999
FreeCAD v0.20 29177 (Git)
  0
SECTION
  2
HEADER
  9
$ACADVER
  1
AC1014
  9
$ACADMAINTVER
 70
     9
  9
$DWGCODEPAGE
  3
ANSI_1252
  9
$TEXTSTYLE
  7
STANDARD
  9
$DIMSTYLE
  2
STANDARD
  9
$DIMTXSTY
  7
STANDARD
  9
$CMLSTYLE
  2
STANDARD
  9
$LUNITS
 70
2
  9
$INSUNITS
 70
4
  9
$PEXTMAX
 10
50
 20
50
 30
50
  9
$PEXTMIN
 10
0
 20
0
 30
0
  9
$HANDSEED
  5
FFFF
  0
ENDSEC
  0
SECTION
  2
CLASSES
  0
CLASS
  1
ACDBDICTIONARYWDFLT
  2
AcDbDictionaryWithDefault
  3
ObjectDBX Classes
 90
        0
280
     0
281
     0
  0
CLASS
  1
XRECORD
  2
AcDbXrecord
  3
ObjectDBX Classes
 90
        0
280
     0
281
     0
  0
CLASS
  1
LWPOLYLINE
  2
AcDbPolyline
  3
ObjectDBX Classes
 90
        0
280
     0
281
     1
  0
ENDSEC
  0
SECTION
  2
TABLES
  0
TABLE
  2
VPORT
  5
20
330
0
100
AcDbSymbolTable
 70
     1
  0
VPORT
  5
21
330
20
100
AcDbSymbolTableRecord
100
AcDbViewportTableRecord
  2
*ACTIVE
 70
     0
  0
ENDTAB
  0
TABLE
  2
LTYPE
  5
22
330
0
100
AcDbSymbolTable
 70
     1
  0
LTYPE
  5
23
330
21
100
AcDbSymbolTableRecord
100
AcDbLinetypeTableRecord
  2
BYBLOCK
 70
     0
  3

 72
    65
 73
     0
 40
0.0
  0
LTYPE
  5
24
330
21
100
AcDbSymbolTableRecord
100
AcDbLinetypeTableRecord
  2
BYLAYER
 70
     0
  3

 72
    65
 73
     0
 40
0.0
  0
LTYPE
  5
25
330
21
100
AcDbSymbolTableRecord
100
AcDbLinetypeTableRecord
  2
CONTINUOUS
 70
     0
  3
Solid line
 72
    65
 73
     0
 40
0.0
  0
ENDTAB
  0
TABLE
  2
LAYER
  5
D18
330
0
100
AcDbSymbolTable
 70
22
  0
LAYER
  5
D19
330
D18
100
AcDbSymbolTableRecord
100
AcDbLayerTableRecord
  2
0
 70
   0
 62
   7
  6
CONTINUOUS
  0
LAYER
  5
D1A
330
D18
100
AcDbSymbolTableRecord
100
AcDbLayerTableRecord
  2
View008
 70
    0
 62
    7
  6
CONTINUOUS
  0
LAYER
  5
D1B
330
D18
100
AcDbSymbolTableRecord
100
AcDbLayerTableRecord
  2
SectionView007
 70
    0
 62
    7
  6
CONTINUOUS
  0
LAYER
  5
D1C
330
D18
100
AcDbSymbolTableRecord
100
AcDbLayerTableRecord
  2
View009
 70
    0
 62
    7
  6
CONTINUOUS
  0
LAYER
  5
D1D
330
D18
100
AcDbSymbolTableRecord
100
AcDbLayerTableRecord
  2
Dimension047
 70
    0
 62
    7
  6
CONTINUOUS
  0
LAYER
  5
D1E
330
D18
100
AcDbSymbolTableRecord
100
AcDbLayerTableRecord
  2
Dimension050
 70
    0
 62
    7
  6
CONTINUOUS
  0
LAYER
  5
D1F
330
D18
100
AcDbSymbolTableRecord
100
AcDbLayerTableRecord
  2
Dimension051
 70
    0
 62
    7
  6
CONTINUOUS
  0
LAYER
  5
D20
330
D18
100
AcDbSymbolTableRecord
100
AcDbLayerTableRecord
  2
View011
 70
    0
 62
    7
  6
CONTINUOUS
  0
LAYER
  5
D21
330
D18
100
AcDbSymbolTableRecord
100
AcDbLayerTableRecord
  2
Dimension052
 70
    0
 62
    7
  6
CONTINUOUS
  0
LAYER
  5
D22
330
D18
100
AcDbSymbolTableRecord
100
AcDbLayerTableRecord
  2
Dimension056
 70
    0
 62
    7
  6
CONTINUOUS
  0
LAYER
  5
D23
330
D18
100
AcDbSymbolTableRecord
100
AcDbLayerTableRecord
  2
Dimension058
 70
    0
 62
    7
  6
CONTINUOUS
  0
LAYER
  5
D24
330
D18
100
AcDbSymbolTableRecord
100
AcDbLayerTableRecord
  2
Dimension059
 70
    0
 62
    7
  6
CONTINUOUS
  0
LAYER
  5
D25
330
D18
100
AcDbSymbolTableRecord
100
AcDbLayerTableRecord
  2
Dimension060
 70
    0
 62
    7
  6
CONTINUOUS
  0
LAYER
  5
D26
330
D18
100
AcDbSymbolTableRecord
100
AcDbLayerTableRecord
  2
Dimension061
 70
    0
 62
    7
  6
CONTINUOUS
  0
LAYER
  5
D27
330
D18
100
AcDbSymbolTableRecord
100
AcDbLayerTableRecord
  2
Dimension062
 70
    0
 62
    7
  6
CONTINUOUS
  0
LAYER
  5
D28
330
D18
100
AcDbSymbolTableRecord
100
AcDbLayerTableRecord
  2
Dimension
 70
    0
 62
    7
  6
CONTINUOUS
  0
LAYER
  5
D29
330
D18
100
AcDbSymbolTableRecord
100
AcDbLayerTableRecord
  2
Dimension063
 70
    0
 62
    7
  6
CONTINUOUS
  0
LAYER
  5
D2A
330
D18
100
AcDbSymbolTableRecord
100
AcDbLayerTableRecord
  2
Dimension064
 70
    0
 62
    7
  6
CONTINUOUS
  0
LAYER
  5
D2B
330
D18
100
AcDbSymbolTableRecord
100
AcDbLayerTableRecord
  2
Dimension065
 70
    0
 62
    7
  6
CONTINUOUS
  0
LAYER
  5
D2C
330
D18
100
AcDbSymbolTableRecord
100
AcDbLayerTableRecord
  2
Dimension066
 70
    0
 62
    7
  6
CONTINUOUS
  0
LAYER
  5
D2D
330
D18
100
AcDbSymbolTableRecord
100
AcDbLayerTableRecord
  2
Dimension067
 70
    0
 62
    7
  6
CONTINUOUS
  0
LAYER
  5
D2E
330
D18
100
AcDbSymbolTableRecord
100
AcDbLayerTableRecord
  2
Annotation
 70
    0
 62
    7
  6
CONTINUOUS
  0
ENDTAB
  0
TABLE
  2
STYLE
  5
70
330
0
100
AcDbSymbolTable
 70
     2
  0
STYLE
  5
71
330
70
100
AcDbSymbolTableRecord
100
AcDbTextStyleTableRecord
  2
STANDARD
 70
     0
 40
0.0
 41
1.0
 50
0.0
 71
     0
 42
2.5
  3
arial.ttf
  4

  0
STYLE
  5
72
330
70
100
AcDbSymbolTableRecord
100
AcDbTextStyleTableRecord
  2
ANNOTATIVE
 70
     0
 40
0.0
 41
1.0
 50
0.0
 71
     0
 42
2.5
  3
arial.ttf
  4

  0
ENDTAB
  0
TABLE
  2
VIEW
  5
73
330
0
100
AcDbSymbolTable
 70
     0
  0
ENDTAB
  0
TABLE
  2
UCS
  5
74
330
0
100
AcDbSymbolTable
 70
     0
  0
ENDTAB
  0
TABLE
  2
APPID
  5
75
330
0
100
AcDbSymbolTable
 70
     2
  0
APPID
  5
76
330
75
100
AcDbSymbolTableRecord
100
AcDbRegAppTableRecord
  2
ACAD
 70
     0
  0
APPID
  5
77
330
75
100
AcDbSymbolTableRecord
100
AcDbRegAppTableRecord
  2
ACADANNOTATIVE
 70
     0
  0
ENDTAB
  0
TABLE
  2
DIMSTYLE
  5
78
330
0
100
AcDbSymbolTable
 70
     2
  0
DIMSTYLE
105
79
330
78
100
AcDbSymbolTableRecord
100
AcDbDimStyleTableRecord
  2
STANDARD
 70
     0
  3

  4

  5

  6

  7

 40
0.0
 41
2.5
 42
0.625
 43
3.75
 44
1.25
 45
0.0
 46
0.0
 47
0.0
 48
0.0
140
2.5
141
2.5
142
0.0
143
0.03937007874016
144
1.0
145
0.0
146
1.0
147
0.625
 71
     0
 72
     0
 73
     0
 74
     0
 75
     0
 76
     0
 77
     1
 78
     8
170
     0
171
     3
172
     1
173
     0
174
     0
175
     0
176
     0
177
     0
178
     0
270
     2
271
     2
272
     2
273
     2
274
     3
340
71
275
     0
280
     0
281
     0
282
     0
283
     0
284
     8
285
     0
286
     0
287
     3
288
     0
  0
ENDTAB
  0
TABLE
  2
BLOCK_RECORD
  5
A01
330
0
100
AcDbSymbolTable
  70
5
  0
BLOCK_RECORD
  5
A02
330
A01
100
AcDbSymbolTableRecord
100
AcDbBlockTableRecord
  2
*MODEL_SPACE
  0
BLOCK_RECORD
  5
A03
330
A01
100
AcDbSymbolTableRecord
100
AcDbBlockTableRecord
  2
*PAPER_SPACE
  0
BLOCK_RECORD
  5
B68
330
A01
100
AcDbSymbolTableRecord
100
AcDbBlockTableRecord
  2
*Dimension047
  0
BLOCK_RECORD
  5
B72
330
A01
100
AcDbSymbolTableRecord
100
AcDbBlockTableRecord
  2
*Dimension050
  0
BLOCK_RECORD
  5
B7A
330
A01
100
AcDbSymbolTableRecord
100
AcDbBlockTableRecord
  2
*Dimension051
  0
BLOCK_RECORD
  5
CA6
330
A01
100
AcDbSymbolTableRecord
100
AcDbBlockTableRecord
  2
*Dimension052
  0
BLOCK_RECORD
  5
CAE
330
A01
100
AcDbSymbolTableRecord
100
AcDbBlockTableRecord
  2
*Dimension056
  0
BLOCK_RECORD
  5
CB8
330
A01
100
AcDbSymbolTableRecord
100
AcDbBlockTableRecord
  2
*Dimension058
  0
BLOCK_RECORD
  5
CC2
330
A01
100
AcDbSymbolTableRecord
100
AcDbBlockTableRecord
  2
*Dimension059
  0
BLOCK_RECORD
  5
CCC
330
A01
100
AcDbSymbolTableRecord
100
AcDbBlockTableRecord
  2
*Dimension060
  0
BLOCK_RECORD
  5
CD6
330
A01
100
AcDbSymbolTableRecord
100
AcDbBlockTableRecord
  2
*Dimension061
  0
BLOCK_RECORD
  5
CE0
330
A01
100
AcDbSymbolTableRecord
100
AcDbBlockTableRecord
  2
*Dimension062
  0
BLOCK_RECORD
  5
CEA
330
A01
100
AcDbSymbolTableRecord
100
AcDbBlockTableRecord
  2
*Dimension
  0
BLOCK_RECORD
  5
CF4
330
A01
100
AcDbSymbolTableRecord
100
AcDbBlockTableRecord
  2
*Dimension063
  0
BLOCK_RECORD
  5
CFC
330
A01
100
AcDbSymbolTableRecord
100
AcDbBlockTableRecord
  2
*Dimension064
  0
BLOCK_RECORD
  5
D03
330
A01
100
AcDbSymbolTableRecord
100
AcDbBlockTableRecord
  2
*Dimension065
  0
BLOCK_RECORD
  5
D0A
330
A01
100
AcDbSymbolTableRecord
100
AcDbBlockTableRecord
  2
*Dimension066
  0
BLOCK_RECORD
  5
D11
330
A01
100
AcDbSymbolTableRecord
100
AcDbBlockTableRecord
  2
*Dimension067
  0
ENDTAB
  0
ENDSEC
  0
SECTION
  2
BLOCKS
  0
BLOCK
  5
A04
330
A02
100
AcDbEntity
  8
0
100
AcDbBlockBegin
  2
*MODEL_SPACE
 70
   0
 10
0
 20
0
 30
0
  3
*MODEL_SPACE
  1
 
  0
ENDBLK
  5
A05
330
A02
100
AcDbEntity
  8
0
100
AcDbBlockEnd
  0
BLOCK
  5
A06
330
A03
100
AcDbEntity
 67
1
  8
0
100
AcDbBlockBegin
  2
*PAPER_SPACE
 70
   0
 10
0
 20
0
 30
0
  3
*PAPER_SPACE
  1
 
  0
ENDBLK
  5
A07
330
A03
100
AcDbEntity
 67
    1
  8
0
100
AcDbBlockEnd
  0
BLOCK
  5
B69
330
B68
100
AcDbEntity
  8
Dimension047
100
AcDbBlockBegin
  2
*Dimension047
 70
   1
 10
0
 20
0
 30
0
  3
*Dimension047
  1
 
  0
LINE
  5
B6A
330
B68
100
AcDbEntity
  8
Dimension047
100
AcDbLine
 10
48.5269
 20
48.0313
 30
0
 11
28.9013
 21
48.0313
 31
0
  0
LINE
  5
B6B
330
B68
100
AcDbEntity
  8
Dimension047
100
AcDbLine
 10
46.4269
 20
124.331
 30
0
 11
28.9013
 21
124.331
 31
0
  0
LINE
  5
B6C
330
B68
100
AcDbEntity
  8
Dimension047
100
AcDbLine
 10
28.9013
 20
124.331
 30
0
 11
28.9013
 21
48.0313
 31
0
  0
TEXT
  5
B6D
330
B68
100
AcDbEntity
  8
Dimension047
100
AcDbText
 10
23.9032
 20
86.1264
 30
0
 40
3.5
  1
109
  7
STANDARD
 72
1
 11
28.9013
 21
85.9888
 31
0
100
AcDbText
  0
SOLID
  5
B6E
330
B68
100
AcDbEntity
  8
0
 62
     0
100
AcDbTrace
 10
28.4847
 20
129.331
 30
0
 11
29.318
 21
129.331
 31
0
 12
28.9013
 22
124.331
 32
0
 13
28.9013
 23
124.331
 33
0
  0
SOLID
  5
B6F
330
B68
100
AcDbEntity
  8
0
 62
     0
100
AcDbTrace
 10
28.4847
 20
43.0313
 30
0
 11
29.318
 21
43.0313
 31
0
 12
28.9013
 22
48.0313
 32
0
 13
28.9013
 23
48.0313
 33
0
  0
ENDBLK
  5
B70
330
B68
100
AcDbEntity
  8
Dimension047
100
AcDbBlockEnd
  0
BLOCK
  5
B73
330
B72
100
AcDbEntity
  8
Dimension050
100
AcDbBlockBegin
  2
*Dimension050
 70
   1
 10
0
 20
0
 30
0
  3
*Dimension050
  1
 
  0
LINE
  5
B74
330
B72
100
AcDbEntity
  8
Dimension050
100
AcDbLine
 10
230.177
 20
144.621
 30
0
 11
226.276
 21
146.177
 31
0
  0
TEXT
  5
B75
330
B72
100
AcDbEntity
  8
Dimension050
100
AcDbText
 10
212.333
 20
46.3033
 30
0
 40
3.5
  1
⌀6
  7
STANDARD
 72
1
 11
212.333
 21
46.3033
 31
0
100
AcDbText
  0
SOLID
  5
B76
330
B72
100
AcDbEntity
  8
0
 62
     0
100
AcDbTrace
 10
225.378
 20
146.086
 30
0
 11
225.687
 21
146.86
 31
0
 12
230.177
 22
144.621
 32
0
 13
230.177
 23
144.621
 33
0
  0
SOLID
  5
B77
330
B72
100
AcDbEntity
  8
0
 62
     0
100
AcDbTrace
 10
230.766
 20
143.938
 30
0
 11
231.075
 21
144.712
 31
0
 12
226.276
 22
146.177
 32
0
 13
226.276
 23
146.177
 33
0
  0
ENDBLK
  5
B78
330
B72
100
AcDbEntity
  8
Dimension050
100
AcDbBlockEnd
  0
BLOCK
  5
B7B
330
B7A
100
AcDbEntity
  8
Dimension051
100
AcDbBlockBegin
  2
*Dimension051
 70
   1
 10
0
 20
0
 30
0
  3
*Dimension051
  1
 
  0
LINE
  5
B7C
330
B7A
100
AcDbEntity
  8
Dimension051
100
AcDbLine
 10
95.4269
 20
124.331
 30
0
 11
95.4269
 21
158.582
 31
0
  0
LINE
  5
B7D
330
B7A
100
AcDbEntity
  8
Dimension051
100
AcDbLine
 10
46.4269
 20
124.331
 30
0
 11
46.4269
 21
158.582
 31
0
  0
LINE
  5
B7E
330
B7A
100
AcDbEntity
  8
Dimension051
100
AcDbLine
 10
46.4269
 20
158.582
 30
0
 11
95.4269
 21
158.582
 31
0
  0
TEXT
  5
B7F
330
B7A
100
AcDbEntity
  8
Dimension051
100
AcDbText
 10
70.3319
 20
163.582
 30
0
 40
3.5
  1
70
  7
STANDARD
 72
1
 11
70.3319
 21
158.582
 31
0
100
AcDbText
  0
SOLID
  5
B80
330
B7A
100
AcDbEntity
  8
0
 62
     0
100
AcDbTrace
 10
41.4269
 20
158.999
 30
0
 11
41.4269
 21
158.165
 31
0
 12
46.4269
 22
158.582
 32
0
 13
46.4269
 23
158.582
 33
0
  0
SOLID
  5
B81
330
B7A
100
AcDbEntity
  8
0
 62
     0
100
AcDbTrace
 10
100.427
 20
158.999
 30
0
 11
100.427
 21
158.165
 31
0
 12
95.4269
 22
158.582
 32
0
 13
95.4269
 23
158.582
 33
0
  0
ENDBLK
  5
B82
330
B7A
100
AcDbEntity
  8
Dimension051
100
AcDbBlockEnd
  0
BLOCK
  5
CA7
330
CA6
100
AcDbEntity
  8
Dimension052
100
AcDbBlockBegin
  2
*Dimension052
 70
   1
 10
0
 20
0
 30
0
  3
*Dimension052
  1
 
  0
LINE
  5
CA8
330
CA6
100
AcDbEntity
  8
Dimension052
100
AcDbLine
 10
229.192
 20
144.986
 30
0
 11
227.261
 21
145.812
 31
0
  0
TEXT
  5
CA9
330
CA6
100
AcDbEntity
  8
Dimension052
100
AcDbText
 10
213.586
 20
53.5742
 30
0
 40
3.5
  1
⌀3
  7
STANDARD
 72
1
 11
213.586
 21
53.5742
 31
0
100
AcDbText
  0
SOLID
  5
CAA
330
CA6
100
AcDbEntity
  8
0
 62
     0
100
AcDbTrace
 10
224.431
 20
146.568
 30
0
 11
224.758
 21
147.334
 31
0
 12
229.192
 22
144.986
 32
0
 13
229.192
 23
144.986
 33
0
  0
SOLID
  5
CAB
330
CA6
100
AcDbEntity
  8
0
 62
     0
100
AcDbTrace
 10
231.695
 20
143.463
 30
0
 11
232.022
 21
144.23
 31
0
 12
227.261
 22
145.812
 32
0
 13
227.261
 23
145.812
 33
0
  0
ENDBLK
  5
CAC
330
CA6
100
AcDbEntity
  8
Dimension052
100
AcDbBlockEnd
  0
BLOCK
  5
CAF
330
CAE
100
AcDbEntity
  8
Dimension056
100
AcDbBlockBegin
  2
*Dimension056
 70
   1
 10
0
 20
0
 30
0
  3
*Dimension056
  1
 
  0
LINE
  5
CB0
330
CAE
100
AcDbEntity
  8
Dimension056
100
AcDbLine
 10
83.5269
 20
93.8113
 30
0
 11
83.5269
 21
98.724
 31
0
  0
LINE
  5
CB1
330
CAE
100
AcDbEntity
  8
Dimension056
100
AcDbLine
 10
88.0769
 20
97.3113
 30
0
 11
88.0769
 21
98.724
 31
0
  0
LINE
  5
CB2
330
CAE
100
AcDbEntity
  8
Dimension056
100
AcDbLine
 10
88.0769
 20
98.724
 30
0
 11
83.5269
 21
98.724
 31
0
  0
TEXT
  5
CB3
330
CAE
100
AcDbEntity
  8
Dimension056
100
AcDbText
 10
100.795
 20
94.7609
 30
0
 40
3.5
  1
6.5
  7
STANDARD
 72
1
 11
103.843
 21
98.724
 31
0
100
AcDbText
  0
SOLID
  5
CB4
330
CAE
100
AcDbEntity
  8
0
 62
     0
100
AcDbTrace
 10
93.0769
 20
99.1407
 30
0
 11
93.0769
 21
98.3074
 31
0
 12
88.0769
 22
98.724
 32
0
 13
88.0769
 23
98.724
 33
0
  0
SOLID
  5
CB5
330
CAE
100
AcDbEntity
  8
0
 62
     0
100
AcDbTrace
 10
78.5269
 20
99.1407
 30
0
 11
78.5269
 21
98.3074
 31
0
 12
83.5269
 22
98.724
 32
0
 13
83.5269
 23
98.724
 33
0
  0
ENDBLK
  5
CB6
330
CAE
100
AcDbEntity
  8
Dimension056
100
AcDbBlockEnd
  0
BLOCK
  5
CB9
330
CB8
100
AcDbEntity
  8
Dimension058
100
AcDbBlockBegin
  2
*Dimension058
 70
   1
 10
0
 20
0
 30
0
  3
*Dimension058
  1
 
  0
LINE
  5
CBA
330
CB8
100
AcDbEntity
  8
Dimension058
100
AcDbLine
 10
191.462
 20
76.9277
 30
0
 11
199.602
 21
76.9277
 31
0
  0
LINE
  5
CBB
330
CB8
100
AcDbEntity
  8
Dimension058
100
AcDbLine
 10
193.462
 20
74.9277
 30
0
 11
199.602
 21
74.9277
 31
0
  0
LINE
  5
CBC
330
CB8
100
AcDbEntity
  8
Dimension058
100
AcDbLine
 10
199.602
 20
74.9277
 30
0
 11
199.602
 21
76.9277
 31
0
  0
TEXT
  5
CBD
330
CB8
100
AcDbEntity
  8
Dimension058
100
AcDbText
 10
203.137
 20
91.2192
 30
0
 40
3.5
  1
2
  7
STANDARD
 72
1
 11
199.602
 21
94.7547
 31
0
100
AcDbText
  0
SOLID
  5
CBE
330
CB8
100
AcDbEntity
  8
0
 62
     0
100
AcDbTrace
 10
200.018
 20
69.9277
 30
0
 11
199.185
 21
69.9277
 31
0
 12
199.602
 22
74.9277
 32
0
 13
199.602
 23
74.9277
 33
0
  0
SOLID
  5
CBF
330
CB8
100
AcDbEntity
  8
0
 62
     0
100
AcDbTrace
 10
200.018
 20
81.9277
 30
0
 11
199.185
 21
81.9277
 31
0
 12
199.602
 22
76.9277
 32
0
 13
199.602
 23
76.9277
 33
0
  0
ENDBLK
  5
CC0
330
CB8
100
AcDbEntity
  8
Dimension058
100
AcDbBlockEnd
  0
BLOCK
  5
CC3
330
CC2
100
AcDbEntity
  8
Dimension059
100
AcDbBlockBegin
  2
*Dimension059
 70
   1
 10
0
 20
0
 30
0
  3
*Dimension059
  1
 
  0
LINE
  5
CC4
330
CC2
100
AcDbEntity
  8
Dimension059
100
AcDbLine
 10
193.462
 20
80.9277
 30
0
 11
193.187
 21
80.9277
 31
0
  0
LINE
  5
CC5
330
CC2
100
AcDbEntity
  8
Dimension059
100
AcDbLine
 10
193.462
 20
74.9277
 30
0
 11
193.187
 21
74.9277
 31
0
  0
LINE
  5
CC6
330
CC2
100
AcDbEntity
  8
Dimension059
100
AcDbLine
 10
193.187
 20
74.9277
 30
0
 11
193.187
 21
80.9277
 31
0
  0
TEXT
  5
CC7
330
CC2
100
AcDbEntity
  8
Dimension059
100
AcDbText
 10
198.187
 20
96.2614
 30
0
 40
3.5
  1
6
  7
STANDARD
 72
1
 11
193.187
 21
96.2614
 31
0
100
AcDbText
  0
SOLID
  5
CC8
330
CC2
100
AcDbEntity
  8
0
 62
     0
100
AcDbTrace
 10
192.77
 20
69.9277
 30
0
 11
193.604
 21
69.9277
 31
0
 12
193.187
 22
74.9277
 32
0
 13
193.187
 23
74.9277
 33
0
  0
SOLID
  5
CC9
330
CC2
100
AcDbEntity
  8
0
 62
     0
100
AcDbTrace
 10
192.77
 20
85.9277
 30
0
 11
193.604
 21
85.9277
 31
0
 12
193.187
 22
80.9277
 32
0
 13
193.187
 23
80.9277
 33
0
  0
ENDBLK
  5
CCA
330
CC2
100
AcDbEntity
  8
Dimension059
100
AcDbBlockEnd
  0
BLOCK
  5
CCD
330
CCC
100
AcDbEntity
  8
Dimension060
100
AcDbBlockBegin
  2
*Dimension060
 70
   1
 10
0
 20
0
 30
0
  3
*Dimension060
  1
 
  0
LINE
  5
CCE
330
CCC
100
AcDbEntity
  8
Dimension060
100
AcDbLine
 10
173.462
 20
74.9277
 30
0
 11
173.462
 21
68.0456
 31
0
  0
LINE
  5
CCF
330
CCC
100
AcDbEntity
  8
Dimension060
100
AcDbLine
 10
171.462
 20
74.9277
 30
0
 11
171.462
 21
68.0456
 31
0
  0
LINE
  5
CD0
330
CCC
100
AcDbEntity
  8
Dimension060
100
AcDbLine
 10
171.462
 20
68.0456
 30
0
 11
173.462
 21
68.0456
 31
0
  0
TEXT
  5
CD1
330
CCC
100
AcDbEntity
  8
Dimension060
100
AcDbText
 10
184.812
 20
73.0456
 30
0
 40
3.5
  1
2
  7
STANDARD
 72
1
 11
184.812
 21
68.0456
 31
0
100
AcDbText
  0
SOLID
  5
CD2
330
CCC
100
AcDbEntity
  8
0
 62
     0
100
AcDbTrace
 10
166.462
 20
67.629
 30
0
 11
166.462
 21
68.4623
 31
0
 12
171.462
 22
68.0456
 32
0
 13
171.462
 23
68.0456
 33
0
  0
SOLID
  5
CD3
330
CCC
100
AcDbEntity
  8
0
 62
     0
100
AcDbTrace
 10
178.462
 20
67.629
 30
0
 11
178.462
 21
68.4623
 31
0
 12
173.462
 22
68.0456
 32
0
 13
173.462
 23
68.0456
 33
0
  0
ENDBLK
  5
CD4
330
CCC
100
AcDbEntity
  8
Dimension060
100
AcDbBlockEnd
  0
BLOCK
  5
CD7
330
CD6
100
AcDbEntity
  8
Dimension061
100
AcDbBlockBegin
  2
*Dimension061
 70
   1
 10
0
 20
0
 30
0
  3
*Dimension061
  1
 
  0
LINE
  5
CD8
330
CD6
100
AcDbEntity
  8
Dimension061
100
AcDbLine
 10
126.962
 20
90.9277
 30
0
 11
109.604
 21
90.9277
 31
0
  0
LINE
  5
CD9
330
CD6
100
AcDbEntity
  8
Dimension061
100
AcDbLine
 10
123.462
 20
80.9277
 30
0
 11
109.604
 21
80.9277
 31
0
  0
LINE
  5
CDA
330
CD6
100
AcDbEntity
  8
Dimension061
100
AcDbLine
 10
109.604
 20
80.9277
 30
0
 11
109.604
 21
90.9277
 31
0
  0
TEXT
  5
CDB
330
CD6
100
AcDbEntity
  8
Dimension061
100
AcDbText
 10
114.324
 20
106.355
 30
0
 40
3.5
  1
10
  7
STANDARD
 72
1
 11
109.604
 21
104.703
 31
0
100
AcDbText
  0
SOLID
  5
CDC
330
CD6
100
AcDbEntity
  8
0
 62
     0
100
AcDbTrace
 10
109.188
 20
75.9277
 30
0
 11
110.021
 21
75.9277
 31
0
 12
109.604
 22
80.9277
 32
0
 13
109.604
 23
80.9277
 33
0
  0
SOLID
  5
CDD
330
CD6
100
AcDbEntity
  8
0
 62
     0
100
AcDbTrace
 10
109.188
 20
95.9277
 30
0
 11
110.021
 21
95.9277
 31
0
 12
109.604
 22
90.9277
 32
0
 13
109.604
 23
90.9277
 33
0
  0
ENDBLK
  5
CDE
330
CD6
100
AcDbEntity
  8
Dimension061
100
AcDbBlockEnd
  0
BLOCK
  5
CE1
330
CE0
100
AcDbEntity
  8
Dimension062
100
AcDbBlockBegin
  2
*Dimension062
 70
   1
 10
0
 20
0
 30
0
  3
*Dimension062
  1
 
  0
LINE
  5
CE2
330
CE0
100
AcDbEntity
  8
Dimension062
100
AcDbLine
 10
127.462
 20
97.9277
 30
0
 11
114.354
 21
97.9277
 31
0
  0
LINE
  5
CE3
330
CE0
100
AcDbEntity
  8
Dimension062
100
AcDbLine
 10
123.462
 20
80.9277
 30
0
 11
114.354
 21
80.9277
 31
0
  0
LINE
  5
CE4
330
CE0
100
AcDbEntity
  8
Dimension062
100
AcDbLine
 10
114.354
 20
80.9277
 30
0
 11
114.354
 21
97.9277
 31
0
  0
TEXT
  5
CE5
330
CE0
100
AcDbEntity
  8
Dimension062
100
AcDbText
 10
119.221
 20
113.838
 30
0
 40
3.5
  1
17
  7
STANDARD
 72
1
 11
114.354
 21
112.693
 31
0
100
AcDbText
  0
SOLID
  5
CE6
330
CE0
100
AcDbEntity
  8
0
 62
     0
100
AcDbTrace
 10
113.938
 20
75.9277
 30
0
 11
114.771
 21
75.9277
 31
0
 12
114.354
 22
80.9277
 32
0
 13
114.354
 23
80.9277
 33
0
  0
SOLID
  5
CE7
330
CE0
100
AcDbEntity
  8
0
 62
     0
100
AcDbTrace
 10
113.938
 20
102.928
 30
0
 11
114.771
 21
102.928
 31
0
 12
114.354
 22
97.9277
 32
0
 13
114.354
 23
97.9277
 33
0
  0
ENDBLK
  5
CE8
330
CE0
100
AcDbEntity
  8
Dimension062
100
AcDbBlockEnd
  0
BLOCK
  5
CEB
330
CEA
100
AcDbEntity
  8
Dimension
100
AcDbBlockBegin
  2
*Dimension
 70
   1
 10
0
 20
0
 30
0
  3
*Dimension
  1
 
  0
LINE
  5
CEC
330
CEA
100
AcDbEntity
  8
Dimension
100
AcDbLine
 10
88.0769
 20
101.511
 30
0
 11
88.0769
 21
102.401
 31
0
  0
LINE
  5
CED
330
CEA
100
AcDbEntity
  8
Dimension
100
AcDbLine
 10
83.0789
 20
101.511
 30
0
 11
83.0789
 21
102.401
 31
0
  0
LINE
  5
CEE
330
CEA
100
AcDbEntity
  8
Dimension
100
AcDbLine
 10
83.0789
 20
102.401
 30
0
 11
88.0769
 21
102.401
 31
0
  0
TEXT
  5
CEF
330
CEA
100
AcDbEntity
  8
Dimension
100
AcDbText
 10
101.255
 20
107.401
 30
0
 40
3.5
  1
7.14
  7
STANDARD
 72
1
 11
101.255
 21
102.401
 31
0
100
AcDbText
  0
SOLID
  5
CF0
330
CEA
100
AcDbEntity
  8
0
 62
     0
100
AcDbTrace
 10
78.0789
 20
102.818
 30
0
 11
78.0789
 21
101.984
 31
0
 12
83.0789
 22
102.401
 32
0
 13
83.0789
 23
102.401
 33
0
  0
SOLID
  5
CF1
330
CEA
100
AcDbEntity
  8
0
 62
     0
100
AcDbTrace
 10
93.0769
 20
102.818
 30
0
 11
93.0769
 21
101.984
 31
0
 12
88.0769
 22
102.401
 32
0
 13
88.0769
 23
102.401
 33
0
  0
ENDBLK
  5
CF2
330
CEA
100
AcDbEntity
  8
Dimension
100
AcDbBlockEnd
  0
BLOCK
  5
CF5
330
CF4
100
AcDbEntity
  8
Dimension063
100
AcDbBlockBegin
  2
*Dimension063
 70
   1
 10
0
 20
0
 30
0
  3
*Dimension063
  1
 
  0
LINE
  5
CF6
330
CF4
100
AcDbEntity
  8
Dimension063
100
AcDbLine
 10
52.4393
 20
137.67
 30
0
 11
50.2144
 21
141.232
 31
0
  0
TEXT
  5
CF7
330
CF4
100
AcDbEntity
  8
Dimension063
100
AcDbText
 10
52.0891
 20
73.7582
 30
0
 40
3.5
  1
⌀6
  7
STANDARD
 72
1
 11
52.0891
 21
73.7582
 31
0
100
AcDbText
  0
SOLID
  5
CF8
330
CF4
100
AcDbEntity
  8
0
 62
     0
100
AcDbTrace
 10
49.4372
 20
141.69
 30
0
 11
50.144
 21
142.132
 31
0
 12
52.4393
 22
137.67
 32
0
 13
52.4393
 23
137.67
 33
0
  0
SOLID
  5
CF9
330
CF4
100
AcDbEntity
  8
0
 62
     0
100
AcDbTrace
 10
52.5097
 20
136.771
 30
0
 11
53.2165
 21
137.212
 31
0
 12
50.2144
 22
141.232
 32
0
 13
50.2144
 23
141.232
 33
0
  0
ENDBLK
  5
CFA
330
CF4
100
AcDbEntity
  8
Dimension063
100
AcDbBlockEnd
  0
BLOCK
  5
CFD
330
CFC
100
AcDbEntity
  8
Dimension064
100
AcDbBlockBegin
  2
*Dimension064
 70
   1
 10
0
 20
0
 30
0
  3
*Dimension064
  1
 
  0
LINE
  5
CFE
330
CFC
100
AcDbEntity
  8
Dimension064
100
AcDbLine
 10
70.9269
 20
124.331
 30
0
 11
70.9269
 21
148.831
 31
0
  0
TEXT
  5
CFF
330
CFC
100
AcDbEntity
  8
Dimension064
100
AcDbText
 10
80.7684
 20
135.933
 30
0
 40
3.5
  1
R35
  7
STANDARD
 72
1
 11
80.7684
 21
135.933
 31
0
100
AcDbText
  0
SOLID
  5
D00
330
CFC
100
AcDbEntity
  8
0
 62
     0
100
AcDbTrace
 10
70.5102
 20
143.831
 30
0
 11
71.3435
 21
143.831
 31
0
 12
70.9269
 22
148.831
 32
0
 13
70.9269
 23
148.831
 33
0
  0
ENDBLK
  5
D01
330
CFC
100
AcDbEntity
  8
Dimension064
100
AcDbBlockEnd
  0
BLOCK
  5
D04
330
D03
100
AcDbEntity
  8
Dimension065
100
AcDbBlockBegin
  2
*Dimension065
 70
   1
 10
0
 20
0
 30
0
  3
*Dimension065
  1
 
  0
LINE
  5
D05
330
D03
100
AcDbEntity
  8
Dimension065
100
AcDbLine
 10
93.3269
 20
50.1313
 30
0
 11
94.8118
 21
48.6463
 31
0
  0
TEXT
  5
D06
330
D03
100
AcDbEntity
  8
Dimension065
100
AcDbText
 10
108.263
 20
44.7537
 30
0
 40
3.5
  1
R3
  7
STANDARD
 72
1
 11
108.263
 21
44.7537
 31
0
100
AcDbText
  0
SOLID
  5
D07
330
D03
100
AcDbEntity
  8
0
 62
     0
100
AcDbTrace
 10
91.5709
 20
52.4765
 30
0
 11
90.9816
 21
51.8872
 31
0
 12
94.8118
 22
48.6463
 32
0
 13
94.8118
 23
48.6463
 33
0
  0
ENDBLK
  5
D08
330
D03
100
AcDbEntity
  8
Dimension065
100
AcDbBlockEnd
  0
BLOCK
  5
D0B
330
D0A
100
AcDbEntity
  8
Dimension066
100
AcDbBlockBegin
  2
*Dimension066
 70
   1
 10
0
 20
0
 30
0
  3
*Dimension066
  1
 
  0
LINE
  5
D0C
330
D0A
100
AcDbEntity
  8
Dimension066
100
AcDbLine
 10
61.4769
 20
57.7613
 30
0
 11
60.2394
 21
58.9987
 31
0
  0
TEXT
  5
D0D
330
D0A
100
AcDbEntity
  8
Dimension066
100
AcDbText
 10
78.1861
 20
53.6061
 30
0
 40
3.5
  1
R2.5
  7
STANDARD
 72
1
 11
78.1861
 21
53.6061
 31
0
100
AcDbText
  0
SOLID
  5
D0E
330
D0A
100
AcDbEntity
  8
0
 62
     0
100
AcDbTrace
 10
63.4803
 20
55.1685
 30
0
 11
64.0696
 21
55.7578
 31
0
 12
60.2394
 22
58.9987
 32
0
 13
60.2394
 23
58.9987
 33
0
  0
ENDBLK
  5
D0F
330
D0A
100
AcDbEntity
  8
Dimension066
100
AcDbBlockEnd
  0
BLOCK
  5
D12
330
D11
100
AcDbEntity
  8
Dimension067
100
AcDbBlockBegin
  2
*Dimension067
 70
   1
 10
0
 20
0
 30
0
  3
*Dimension067
  1
 
  0
LINE
  5
D13
330
D11
100
AcDbEntity
  8
Dimension067
100
AcDbLine
 10
147.462
 20
95.4277
 30
0
 11
146.755
 21
96.1348
 31
0
  0
TEXT
  5
D14
330
D11
100
AcDbEntity
  8
Dimension067
100
AcDbText
 10
134.967
 20
106.815
 30
0
 40
3.5
  1
R1
  7
STANDARD
 72
1
 11
134.967
 21
106.815
 31
0
100
AcDbText
  0
SOLID
  5
D15
330
D11
100
AcDbEntity
  8
0
 62
     0
100
AcDbTrace
 10
149.996
 20
92.3047
 30
0
 11
150.586
 21
92.8939
 31
0
 12
146.755
 22
96.1348
 32
0
 13
146.755
 23
96.1348
 33
0
  0
ENDBLK
  5
D16
330
D11
100
AcDbEntity
  8
Dimension067
100
AcDbBlockEnd
  0
ENDSEC
  0
SECTION
  2
ENTITIES
  0
LINE
  5
A08
330
A02
100
AcDbEntity
  8
View008
100
AcDbLine
 10
76.8769
 20
80.6863
 30
0
 11
76.8769
 21
70.1863
 31
0
  0
LINE
  5
A09
330
A02
100
AcDbEntity
  8
View008
100
AcDbLine
 10
76.8769
 20
70.1863
 30
0
 11
66.3769
 21
70.1863
 31
0
  0
LINE
  5
A0A
330
A02
100
AcDbEntity
  8
View008
100
AcDbLine
 10
66.3769
 20
70.1863
 30
0
 11
76.8769
 21
70.1863
 31
0
  0
SPLINE
  5
A0B
330
A02
100
AcDbEntity
  8
View008
100
AcDbSpline
210
0
220
0
230
1
 70
8
 71
3
 72
35
 73
31
 74
0
 40
3.14159
 40
3.14159
 40
3.14159
 40
3.14159
 40
3.25379
 40
3.25379
 40
3.25379
 40
3.36599
 40
3.36599
 40
3.36599
 40
3.47819
 40
3.47819
 40
3.47819
 40
3.59039
 40
3.59039
 40
3.59039
 40
3.70259
 40
3.70259
 40
3.70259
 40
3.81479
 40
3.81479
 40
3.81479
 40
3.92699
 40
3.92699
 40
3.92699
 40
4.03919
 40
4.03919
 40
4.03919
 40
4.26359
 40
4.26359
 40
4.26359
 40
4.71239
 40
4.71239
 40
4.71239
 40
4.71239
 10
76.8769
 20
80.6863
 30
0
 10
76.8754
 20
80.6848
 30
0
 10
76.8739
 20
80.6833
 30
0
 10
76.8725
 20
80.6819
 30
0
 10
76.8681
 20
80.6775
 30
0
 10
76.8637
 20
80.6731
 30
0
 10
76.8593
 20
80.6687
 30
0
 10
76.8521
 20
80.6615
 30
0
 10
76.8448
 20
80.6542
 30
0
 10
76.8376
 20
80.647
 30
0
 10
76.8276
 20
80.637
 30
0
 10
76.8175
 20
80.627
 30
0
 10
76.8075
 20
80.6169
 30
0
 10
76.7949
 20
80.6043
 30
0
 10
76.7822
 20
80.5916
 30
0
 10
76.7696
 20
80.579
 30
0
 10
76.7544
 20
80.5638
 30
0
 10
76.7393
 20
80.5487
 30
0
 10
76.7241
 20
80.5335
 30
0
 10
76.7067
 20
80.5161
 30
0
 10
76.6893
 20
80.4987
 30
0
 10
76.6718
 20
80.4812
 30
0
 10
76.6523
 20
80.4617
 30
0
 10
76.6328
 20
80.4422
 30
0
 10
76.6133
 20
80.4227
 30
0
 10
76.5715
 20
80.3809
 30
0
 10
76.5273
 20
80.3367
 30
0
 10
76.4806
 20
80.29
 30
0
 10
76.3856
 20
80.195
 30
0
 10
76.2817
 20
80.0911
 30
0
 10
76.1769
 20
79.9863
 30
0
  0
SPLINE
  5
A0C
330
A02
100
AcDbEntity
  8
View008
100
AcDbSpline
210
0
220
0
230
1
 70
8
 71
3
 72
35
 73
31
 74
0
 40
0
 40
0
 40
0
 40
0
 40
0.1122
 40
0.1122
 40
0.1122
 40
0.224399
 40
0.224399
 40
0.224399
 40
0.336599
 40
0.336599
 40
0.336599
 40
0.448799
 40
0.448799
 40
0.448799
 40
0.560999
 40
0.560999
 40
0.560999
 40
0.673198
 40
0.673198
 40
0.673198
 40
0.785398
 40
0.785398
 40
0.785398
 40
0.897598
 40
0.897598
 40
0.897598
 40
1.122
 40
1.122
 40
1.122
 40
1.5708
 40
1.5708
 40
1.5708
 40
1.5708
 10
76.8769
 20
70.1863
 30
0
 10
76.8754
 20
70.1877
 30
0
 10
76.8739
 20
70.1892
 30
0
 10
76.8725
 20
70.1907
 30
0
 10
76.8681
 20
70.195
 30
0
 10
76.8637
 20
70.1994
 30
0
 10
76.8593
 20
70.2038
 30
0
 10
76.8521
 20
70.2111
 30
0
 10
76.8448
 20
70.2183
 30
0
 10
76.8376
 20
70.2255
 30
0
 10
76.8276
 20
70.2356
 30
0
 10
76.8175
 20
70.2456
 30
0
 10
76.8075
 20
70.2556
 30
0
 10
76.7949
 20
70.2682
 30
0
 10
76.7822
 20
70.2809
 30
0
 10
76.7696
 20
70.2936
 30
0
 10
76.7544
 20
70.3087
 30
0
 10
76.7393
 20
70.3238
 30
0
 10
76.7241
 20
70.339
 30
0
 10
76.7067
 20
70.3564
 30
0
 10
76.6893
 20
70.3739
 30
0
 10
76.6718
 20
70.3913
 30
0
 10
76.6523
 20
70.4108
 30
0
 10
76.6328
 20
70.4303
 30
0
 10
76.6133
 20
70.4498
 30
0
 10
76.5715
 20
70.4916
 30
0
 10
76.5273
 20
70.5359
 30
0
 10
76.4806
 20
70.5825
 30
0
 10
76.3856
 20
70.6775
 30
0
 10
76.2817
 20
70.7814
 30
0
 10
76.1769
 20
70.8863
 30
0
  0
ARC
  5
A0D
330
A02
100
AcDbEntity
  8
View008
100
AcDbCircle
 10
85.2769
 20
61.6113
 30
0
 40
1.75
100
AcDbArc
 50
180
 51
-90
  0
LINE
  5
A0E
330
A02
100
AcDbEntity
  8
View008
100
AcDbLine
 10
83.5269
 20
61.6113
 30
0
 11
83.5269
 21
93.8113
 31
0
  0
LINE
  5
A0F
330
A02
100
AcDbEntity
  8
View008
100
AcDbLine
 10
85.2769
 20
59.8613
 30
0
 11
86.3269
 21
59.8613
 31
0
  0
ARC
  5
A10
330
A02
100
AcDbEntity
  8
View008
100
AcDbCircle
 10
85.2769
 20
93.8113
 30
0
 40
1.75
100
AcDbArc
 50
90
 51
180
  0
ARC
  5
A11
330
A02
100
AcDbEntity
  8
View008
100
AcDbCircle
 10
86.3269
 20
58.1113
 30
0
 40
1.75
100
AcDbArc
 50
0
 51
90
  0
LINE
  5
A12
330
A02
100
AcDbEntity
  8
View008
100
AcDbLine
 10
85.2769
 20
95.5613
 30
0
 11
86.3269
 21
95.5613
 31
0
  0
LINE
  5
A13
330
A02
100
AcDbEntity
  8
View008
100
AcDbLine
 10
88.0769
 20
58.1113
 30
0
 11
88.0769
 21
57.0613
 31
0
  0
ARC
  5
A14
330
A02
100
AcDbEntity
  8
View008
100
AcDbCircle
 10
86.3269
 20
97.3113
 30
0
 40
1.75
100
AcDbArc
 50
-90
 51
0
  0
ARC
  5
A15
330
A02
100
AcDbEntity
  8
View008
100
AcDbCircle
 10
85.9769
 20
57.0613
 30
0
 40
2.1
100
AcDbArc
 50
-90
 51
0
  0
LINE
  5
A16
330
A02
100
AcDbEntity
  8
View008
100
AcDbLine
 10
88.0769
 20
97.3113
 30
0
 11
88.0769
 21
101.511
 31
0
  0
LINE
  5
A17
330
A02
100
AcDbEntity
  8
View008
100
AcDbLine
 10
78.9769
 20
54.9613
 30
0
 11
85.9769
 21
54.9613
 31
0
  0
LINE
  5
A18
330
A02
100
AcDbEntity
  8
View008
100
AcDbLine
 10
83.0789
 20
101.511
 30
0
 11
88.0769
 21
101.511
 31
0
  0
ARC
  5
A19
330
A02
100
AcDbEntity
  8
View008
100
AcDbCircle
 10
78.9769
 20
56.7113
 30
0
 40
1.75
100
AcDbArc
 50
180
 51
-90
  0
LINE
  5
A1A
330
A02
100
AcDbEntity
  8
View008
100
AcDbLine
 10
83.0789
 20
98.0113
 30
0
 11
83.0789
 21
101.511
 31
0
  0
LINE
  5
A1B
330
A02
100
AcDbEntity
  8
View008
100
AcDbLine
 10
77.2269
 20
57.7613
 30
0
 11
77.2269
 21
56.7113
 31
0
  0
ARC
  5
A1C
330
A02
100
AcDbEntity
  8
View008
100
AcDbCircle
 10
81.3289
 20
98.0113
 30
0
 40
1.75
100
AcDbArc
 50
-90
 51
0
  0
ARC
  5
A1D
330
A02
100
AcDbEntity
  8
View008
100
AcDbCircle
 10
75.4769
 20
57.7613
 30
0
 40
1.75
100
AcDbArc
 50
0
 51
90
  0
LINE
  5
A1E
330
A02
100
AcDbEntity
  8
View008
100
AcDbLine
 10
80.6289
 20
96.2613
 30
0
 11
81.3289
 21
96.2613
 31
0
  0
LINE
  5
A1F
330
A02
100
AcDbEntity
  8
View008
100
AcDbLine
 10
61.4769
 20
59.5113
 30
0
 11
75.4769
 21
59.5113
 31
0
  0
ARC
  5
A20
330
A02
100
AcDbEntity
  8
View008
100
AcDbCircle
 10
80.6289
 20
98.0113
 30
0
 40
1.75
100
AcDbArc
 50
180
 51
-90
  0
ARC
  5
A21
330
A02
100
AcDbEntity
  8
View008
100
AcDbCircle
 10
61.4769
 20
57.7613
 30
0
 40
1.75
100
AcDbArc
 50
90
 51
180
  0
LINE
  5
A22
330
A02
100
AcDbEntity
  8
View008
100
AcDbLine
 10
78.8789
 20
101.511
 30
0
 11
78.8789
 21
98.0113
 31
0
  0
LINE
  5
A23
330
A02
100
AcDbEntity
  8
View008
100
AcDbLine
 10
59.7269
 20
57.7613
 30
0
 11
59.7269
 21
56.7113
 31
0
  0
LINE
  5
A24
330
A02
100
AcDbEntity
  8
View008
100
AcDbLine
 10
48.8769
 20
101.511
 30
0
 11
78.8789
 21
101.511
 31
0
  0
ARC
  5
A25
330
A02
100
AcDbEntity
  8
View008
100
AcDbCircle
 10
57.9769
 20
56.7113
 30
0
 40
1.75
100
AcDbArc
 50
-90
 51
0
  0
LINE
  5
A26
330
A02
100
AcDbEntity
  8
View008
100
AcDbLine
 10
48.8769
 20
101.511
 30
0
 11
48.8769
 21
57.0613
 31
0
  0
LINE
  5
A27
330
A02
100
AcDbEntity
  8
View008
100
AcDbLine
 10
50.9769
 20
54.9613
 30
0
 11
57.9769
 21
54.9613
 31
0
  0
ARC
  5
A28
330
A02
100
AcDbEntity
  8
View008
100
AcDbCircle
 10
50.9769
 20
57.0613
 30
0
 40
2.1
100
AcDbArc
 50
180
 51
-90
  0
LINE
  5
A29
330
A02
100
AcDbEntity
  8
View008
100
AcDbLine
 10
66.3769
 20
80.6863
 30
0
 11
76.8769
 21
80.6863
 31
0
  0
LINE
  5
A2A
330
A02
100
AcDbEntity
  8
View008
100
AcDbLine
 10
66.3769
 20
70.1863
 30
0
 11
66.3769
 21
80.6863
 31
0
  0
SPLINE
  5
A2B
330
A02
100
AcDbEntity
  8
View008
100
AcDbSpline
210
0
220
0
230
1
 70
8
 71
3
 72
35
 73
31
 74
0
 40
0
 40
0
 40
0
 40
0
 40
0.1122
 40
0.1122
 40
0.1122
 40
0.224399
 40
0.224399
 40
0.224399
 40
0.336599
 40
0.336599
 40
0.336599
 40
0.448799
 40
0.448799
 40
0.448799
 40
0.560999
 40
0.560999
 40
0.560999
 40
0.673198
 40
0.673198
 40
0.673198
 40
0.785398
 40
0.785398
 40
0.785398
 40
0.897598
 40
0.897598
 40
0.897598
 40
1.122
 40
1.122
 40
1.122
 40
1.5708
 40
1.5708
 40
1.5708
 40
1.5708
 10
66.3769
 20
70.1863
 30
0
 10
66.3783
 20
70.1877
 30
0
 10
66.3798
 20
70.1892
 30
0
 10
66.3813
 20
70.1907
 30
0
 10
66.3856
 20
70.195
 30
0
 10
66.39
 20
70.1994
 30
0
 10
66.3944
 20
70.2038
 30
0
 10
66.4016
 20
70.2111
 30
0
 10
66.4089
 20
70.2183
 30
0
 10
66.4161
 20
70.2255
 30
0
 10
66.4261
 20
70.2356
 30
0
 10
66.4362
 20
70.2456
 30
0
 10
66.4462
 20
70.2556
 30
0
 10
66.4588
 20
70.2682
 30
0
 10
66.4715
 20
70.2809
 30
0
 10
66.4841
 20
70.2936
 30
0
 10
66.4993
 20
70.3087
 30
0
 10
66.5144
 20
70.3238
 30
0
 10
66.5296
 20
70.339
 30
0
 10
66.547
 20
70.3564
 30
0
 10
66.5644
 20
70.3739
 30
0
 10
66.5819
 20
70.3913
 30
0
 10
66.6014
 20
70.4108
 30
0
 10
66.6209
 20
70.4303
 30
0
 10
66.6404
 20
70.4498
 30
0
 10
66.6822
 20
70.4916
 30
0
 10
66.7265
 20
70.5359
 30
0
 10
66.7731
 20
70.5825
 30
0
 10
66.8681
 20
70.6775
 30
0
 10
66.972
 20
70.7814
 30
0
 10
67.0769
 20
70.8863
 30
0
  0
SPLINE
  5
A2C
330
A02
100
AcDbEntity
  8
View008
100
AcDbSpline
210
0
220
0
230
1
 70
8
 71
3
 72
35
 73
31
 74
0
 40
0
 40
0
 40
0
 40
0
 40
0.1122
 40
0.1122
 40
0.1122
 40
0.224399
 40
0.224399
 40
0.224399
 40
0.336599
 40
0.336599
 40
0.336599
 40
0.448799
 40
0.448799
 40
0.448799
 40
0.560999
 40
0.560999
 40
0.560999
 40
0.673198
 40
0.673198
 40
0.673198
 40
0.785398
 40
0.785398
 40
0.785398
 40
0.897598
 40
0.897598
 40
0.897598
 40
1.122
 40
1.122
 40
1.122
 40
1.5708
 40
1.5708
 40
1.5708
 40
1.5708
 10
66.3769
 20
80.6863
 30
0
 10
66.3783
 20
80.6848
 30
0
 10
66.3798
 20
80.6833
 30
0
 10
66.3813
 20
80.6819
 30
0
 10
66.3856
 20
80.6775
 30
0
 10
66.39
 20
80.6731
 30
0
 10
66.3944
 20
80.6687
 30
0
 10
66.4016
 20
80.6615
 30
0
 10
66.4089
 20
80.6542
 30
0
 10
66.4161
 20
80.647
 30
0
 10
66.4261
 20
80.637
 30
0
 10
66.4362
 20
80.627
 30
0
 10
66.4462
 20
80.6169
 30
0
 10
66.4588
 20
80.6043
 30
0
 10
66.4715
 20
80.5916
 30
0
 10
66.4841
 20
80.579
 30
0
 10
66.4993
 20
80.5638
 30
0
 10
66.5144
 20
80.5487
 30
0
 10
66.5296
 20
80.5335
 30
0
 10
66.547
 20
80.5161
 30
0
 10
66.5644
 20
80.4987
 30
0
 10
66.5819
 20
80.4812
 30
0
 10
66.6014
 20
80.4617
 30
0
 10
66.6209
 20
80.4422
 30
0
 10
66.6404
 20
80.4227
 30
0
 10
66.6822
 20
80.3809
 30
0
 10
66.7265
 20
80.3367
 30
0
 10
66.7731
 20
80.29
 30
0
 10
66.8681
 20
80.195
 30
0
 10
66.972
 20
80.0911
 30
0
 10
67.0769
 20
79.9863
 30
0
  0
CIRCLE
  5
A2D
330
A02
100
AcDbEntity
  8
View008
100
AcDbCircle
 10
85.6269
 20
57.4113
 40
2.1
  0
CIRCLE
  5
A2E
330
A02
100
AcDbEntity
  8
View008
100
AcDbCircle
 10
85.6269
 20
98.0113
 40
2.1
  0
LINE
  5
A2F
330
A02
100
AcDbEntity
  8
View008
100
AcDbLine
 10
66.3769
 20
82.7863
 30
0
 11
66.3769
 21
89.7863
 31
0
  0
LINE
  5
A30
330
A02
100
AcDbEntity
  8
View008
100
AcDbLine
 10
76.8769
 20
82.7863
 30
0
 11
66.3769
 21
82.7863
 31
0
  0
LINE
  5
A31
330
A02
100
AcDbEntity
  8
View008
100
AcDbLine
 10
76.8769
 20
89.7863
 30
0
 11
76.8769
 21
82.7863
 31
0
  0
LINE
  5
A32
330
A02
100
AcDbEntity
  8
View008
100
AcDbLine
 10
66.3769
 20
89.7863
 30
0
 11
76.8769
 21
89.7863
 31
0
  0
CIRCLE
  5
A33
330
A02
100
AcDbEntity
  8
View008
100
AcDbCircle
 10
51.3269
 20
57.4113
 40
2.1
  0
LINE
  5
A34
330
A02
100
AcDbEntity
  8
View008
100
AcDbLine
 10
62.5269
 20
93.7763
 30
0
 11
62.5269
 21
99.3763
 31
0
  0
LINE
  5
A35
330
A02
100
AcDbEntity
  8
View008
100
AcDbLine
 10
68.1269
 20
93.7763
 30
0
 11
62.5269
 21
93.7763
 31
0
  0
LINE
  5
A36
330
A02
100
AcDbEntity
  8
View008
100
AcDbLine
 10
68.1269
 20
99.3763
 30
0
 11
68.1269
 21
93.7763
 31
0
  0
LINE
  5
A37
330
A02
100
AcDbEntity
  8
View008
100
AcDbLine
 10
62.5269
 20
99.3763
 30
0
 11
68.1269
 21
99.3763
 31
0
  0
CIRCLE
  5
A38
330
A02
100
AcDbEntity
  8
View008
100
AcDbCircle
 10
51.3269
 20
98.0113
 40
2.1
  0
ARC
  5
A39
330
A02
100
AcDbEntity
  8
View008
100
AcDbCircle
 10
70.9269
 20
124.331
 30
0
 40
24.5
100
AcDbArc
 50
-3.32336e-14
 51
180
  0
LINE
  5
A3A
330
A02
100
AcDbEntity
  8
View008
100
AcDbLine
 10
95.4269
 20
50.1313
 30
0
 11
95.4269
 21
124.331
 31
0
  0
LINE
  5
A3B
330
A02
100
AcDbEntity
  8
View008
100
AcDbLine
 10
46.4269
 20
124.331
 30
0
 11
46.4269
 21
50.1313
 31
0
  0
ARC
  5
A3C
330
A02
100
AcDbEntity
  8
View008
100
AcDbCircle
 10
93.3269
 20
50.1313
 30
0
 40
2.1
100
AcDbArc
 50
-90
 51
0
  0
ARC
  5
A3D
330
A02
100
AcDbEntity
  8
View008
100
AcDbCircle
 10
48.5269
 20
50.1313
 30
0
 40
2.1
100
AcDbArc
 50
180
 51
-90
  0
LINE
  5
A3E
330
A02
100
AcDbEntity
  8
View008
100
AcDbLine
 10
48.5269
 20
48.0313
 30
0
 11
93.3269
 21
48.0313
 31
0
  0
CIRCLE
  5
A3F
330
A02
100
AcDbEntity
  8
View008
100
AcDbCircle
 10
92.5919
 20
51.4613
 40
1.05
  0
CIRCLE
  5
A40
330
A02
100
AcDbEntity
  8
View008
100
AcDbCircle
 10
92.5919
 20
120.901
 40
1.05
  0
CIRCLE
  5
A41
330
A02
100
AcDbEntity
  8
View008
100
AcDbCircle
 10
49.2619
 20
51.4613
 40
1.05
  0
CIRCLE
  5
A42
330
A02
100
AcDbEntity
  8
View008
100
AcDbCircle
 10
49.2619
 20
120.901
 40
1.05
  0
CIRCLE
  5
A43
330
A02
100
AcDbEntity
  8
View008
100
AcDbCircle
 10
85.6269
 20
57.4113
 40
1.015
  0
CIRCLE
  5
A44
330
A02
100
AcDbEntity
  8
View008
100
AcDbCircle
 10
85.6269
 20
98.0113
 40
1.015
  0
SPLINE
  5
A45
330
A02
100
AcDbEntity
  8
View008
100
AcDbSpline
210
0
220
0
230
1
 70
8
 71
3
 72
35
 73
31
 74
0
 40
3.14159
 40
3.14159
 40
3.14159
 40
3.14159
 40
3.25379
 40
3.25379
 40
3.25379
 40
3.36599
 40
3.36599
 40
3.36599
 40
3.47819
 40
3.47819
 40
3.47819
 40
3.59039
 40
3.59039
 40
3.59039
 40
3.70259
 40
3.70259
 40
3.70259
 40
3.81479
 40
3.81479
 40
3.81479
 40
3.92699
 40
3.92699
 40
3.92699
 40
4.03919
 40
4.03919
 40
4.03919
 40
4.26359
 40
4.26359
 40
4.26359
 40
4.71239
 40
4.71239
 40
4.71239
 40
4.71239
 10
66.3769
 20
82.7863
 30
0
 10
66.3783
 20
82.7877
 30
0
 10
66.3798
 20
82.7892
 30
0
 10
66.3813
 20
82.7907
 30
0
 10
66.3856
 20
82.795
 30
0
 10
66.39
 20
82.7994
 30
0
 10
66.3944
 20
82.8038
 30
0
 10
66.4016
 20
82.8111
 30
0
 10
66.4089
 20
82.8183
 30
0
 10
66.4161
 20
82.8255
 30
0
 10
66.4261
 20
82.8356
 30
0
 10
66.4362
 20
82.8456
 30
0
 10
66.4462
 20
82.8556
 30
0
 10
66.4588
 20
82.8682
 30
0
 10
66.4715
 20
82.8809
 30
0
 10
66.4841
 20
82.8936
 30
0
 10
66.4993
 20
82.9087
 30
0
 10
66.5144
 20
82.9238
 30
0
 10
66.5296
 20
82.939
 30
0
 10
66.547
 20
82.9564
 30
0
 10
66.5644
 20
82.9739
 30
0
 10
66.5819
 20
82.9913
 30
0
 10
66.6014
 20
83.0108
 30
0
 10
66.6209
 20
83.0303
 30
0
 10
66.6404
 20
83.0498
 30
0
 10
66.6822
 20
83.0916
 30
0
 10
66.7265
 20
83.1359
 30
0
 10
66.7731
 20
83.1825
 30
0
 10
66.8681
 20
83.2775
 30
0
 10
66.972
 20
83.3814
 30
0
 10
67.0769
 20
83.4863
 30
0
  0
SPLINE
  5
A46
330
A02
100
AcDbEntity
  8
View008
100
AcDbSpline
210
0
220
0
230
1
 70
8
 71
3
 72
35
 73
31
 74
0
 40
0
 40
0
 40
0
 40
0
 40
0.1122
 40
0.1122
 40
0.1122
 40
0.224399
 40
0.224399
 40
0.224399
 40
0.336599
 40
0.336599
 40
0.336599
 40
0.448799
 40
0.448799
 40
0.448799
 40
0.560999
 40
0.560999
 40
0.560999
 40
0.673198
 40
0.673198
 40
0.673198
 40
0.785398
 40
0.785398
 40
0.785398
 40
0.897598
 40
0.897598
 40
0.897598
 40
1.122
 40
1.122
 40
1.122
 40
1.5708
 40
1.5708
 40
1.5708
 40
1.5708
 10
66.3769
 20
89.7863
 30
0
 10
66.3783
 20
89.7848
 30
0
 10
66.3798
 20
89.7833
 30
0
 10
66.3813
 20
89.7819
 30
0
 10
66.3856
 20
89.7775
 30
0
 10
66.39
 20
89.7731
 30
0
 10
66.3944
 20
89.7687
 30
0
 10
66.4016
 20
89.7615
 30
0
 10
66.4089
 20
89.7542
 30
0
 10
66.4161
 20
89.747
 30
0
 10
66.4261
 20
89.737
 30
0
 10
66.4362
 20
89.727
 30
0
 10
66.4462
 20
89.7169
 30
0
 10
66.4588
 20
89.7043
 30
0
 10
66.4715
 20
89.6916
 30
0
 10
66.4841
 20
89.679
 30
0
 10
66.4993
 20
89.6638
 30
0
 10
66.5144
 20
89.6487
 30
0
 10
66.5296
 20
89.6335
 30
0
 10
66.547
 20
89.6161
 30
0
 10
66.5644
 20
89.5987
 30
0
 10
66.5819
 20
89.5812
 30
0
 10
66.6014
 20
89.5617
 30
0
 10
66.6209
 20
89.5422
 30
0
 10
66.6404
 20
89.5227
 30
0
 10
66.6822
 20
89.4809
 30
0
 10
66.7265
 20
89.4367
 30
0
 10
66.7731
 20
89.39
 30
0
 10
66.8681
 20
89.295
 30
0
 10
66.972
 20
89.1911
 30
0
 10
67.0769
 20
89.0863
 30
0
  0
SPLINE
  5
A47
330
A02
100
AcDbEntity
  8
View008
100
AcDbSpline
210
0
220
0
230
1
 70
8
 71
3
 72
35
 73
31
 74
0
 40
0
 40
0
 40
0
 40
0
 40
0.1122
 40
0.1122
 40
0.1122
 40
0.224399
 40
0.224399
 40
0.224399
 40
0.336599
 40
0.336599
 40
0.336599
 40
0.448799
 40
0.448799
 40
0.448799
 40
0.560999
 40
0.560999
 40
0.560999
 40
0.673198
 40
0.673198
 40
0.673198
 40
0.785398
 40
0.785398
 40
0.785398
 40
0.897598
 40
0.897598
 40
0.897598
 40
1.122
 40
1.122
 40
1.122
 40
1.5708
 40
1.5708
 40
1.5708
 40
1.5708
 10
76.8769
 20
82.7863
 30
0
 10
76.8754
 20
82.7877
 30
0
 10
76.8739
 20
82.7892
 30
0
 10
76.8725
 20
82.7907
 30
0
 10
76.8681
 20
82.795
 30
0
 10
76.8637
 20
82.7994
 30
0
 10
76.8593
 20
82.8038
 30
0
 10
76.8521
 20
82.8111
 30
0
 10
76.8448
 20
82.8183
 30
0
 10
76.8376
 20
82.8255
 30
0
 10
76.8276
 20
82.8356
 30
0
 10
76.8175
 20
82.8456
 30
0
 10
76.8075
 20
82.8556
 30
0
 10
76.7949
 20
82.8682
 30
0
 10
76.7822
 20
82.8809
 30
0
 10
76.7696
 20
82.8936
 30
0
 10
76.7544
 20
82.9087
 30
0
 10
76.7393
 20
82.9238
 30
0
 10
76.7241
 20
82.939
 30
0
 10
76.7067
 20
82.9564
 30
0
 10
76.6893
 20
82.9739
 30
0
 10
76.6718
 20
82.9913
 30
0
 10
76.6523
 20
83.0108
 30
0
 10
76.6328
 20
83.0303
 30
0
 10
76.6133
 20
83.0498
 30
0
 10
76.5715
 20
83.0916
 30
0
 10
76.5273
 20
83.1359
 30
0
 10
76.4806
 20
83.1825
 30
0
 10
76.3856
 20
83.2775
 30
0
 10
76.2817
 20
83.3814
 30
0
 10
76.1769
 20
83.4863
 30
0
  0
SPLINE
  5
A48
330
A02
100
AcDbEntity
  8
View008
100
AcDbSpline
210
0
220
0
230
1
 70
8
 71
3
 72
35
 73
31
 74
0
 40
0
 40
0
 40
0
 40
0
 40
0.1122
 40
0.1122
 40
0.1122
 40
0.224399
 40
0.224399
 40
0.224399
 40
0.336599
 40
0.336599
 40
0.336599
 40
0.448799
 40
0.448799
 40
0.448799
 40
0.560999
 40
0.560999
 40
0.560999
 40
0.673198
 40
0.673198
 40
0.673198
 40
0.785398
 40
0.785398
 40
0.785398
 40
0.897598
 40
0.897598
 40
0.897598
 40
1.122
 40
1.122
 40
1.122
 40
1.5708
 40
1.5708
 40
1.5708
 40
1.5708
 10
76.8769
 20
89.7863
 30
0
 10
76.8754
 20
89.7848
 30
0
 10
76.8739
 20
89.7833
 30
0
 10
76.8725
 20
89.7819
 30
0
 10
76.8681
 20
89.7775
 30
0
 10
76.8637
 20
89.7731
 30
0
 10
76.8593
 20
89.7687
 30
0
 10
76.8521
 20
89.7615
 30
0
 10
76.8448
 20
89.7542
 30
0
 10
76.8376
 20
89.747
 30
0
 10
76.8276
 20
89.737
 30
0
 10
76.8175
 20
89.727
 30
0
 10
76.8075
 20
89.7169
 30
0
 10
76.7949
 20
89.7043
 30
0
 10
76.7822
 20
89.6916
 30
0
 10
76.7696
 20
89.679
 30
0
 10
76.7544
 20
89.6638
 30
0
 10
76.7393
 20
89.6487
 30
0
 10
76.7241
 20
89.6335
 30
0
 10
76.7067
 20
89.6161
 30
0
 10
76.6893
 20
89.5987
 30
0
 10
76.6718
 20
89.5812
 30
0
 10
76.6523
 20
89.5617
 30
0
 10
76.6328
 20
89.5422
 30
0
 10
76.6133
 20
89.5227
 30
0
 10
76.5715
 20
89.4809
 30
0
 10
76.5273
 20
89.4367
 30
0
 10
76.4806
 20
89.39
 30
0
 10
76.3856
 20
89.295
 30
0
 10
76.2817
 20
89.1911
 30
0
 10
76.1769
 20
89.0863
 30
0
  0
CIRCLE
  5
A49
330
A02
100
AcDbEntity
  8
View008
100
AcDbCircle
 10
51.3269
 20
57.4113
 40
1.015
  0
SPLINE
  5
A4A
330
A02
100
AcDbEntity
  8
View008
100
AcDbSpline
210
0
220
0
230
1
 70
8
 71
3
 72
35
 73
31
 74
0
 40
3.14159
 40
3.14159
 40
3.14159
 40
3.14159
 40
3.25379
 40
3.25379
 40
3.25379
 40
3.36599
 40
3.36599
 40
3.36599
 40
3.47819
 40
3.47819
 40
3.47819
 40
3.59039
 40
3.59039
 40
3.59039
 40
3.70259
 40
3.70259
 40
3.70259
 40
3.81479
 40
3.81479
 40
3.81479
 40
3.92699
 40
3.92699
 40
3.92699
 40
4.03919
 40
4.03919
 40
4.03919
 40
4.26359
 40
4.26359
 40
4.26359
 40
4.71239
 40
4.71239
 40
4.71239
 40
4.71239
 10
62.5269
 20
93.7763
 30
0
 10
62.5283
 20
93.7777
 30
0
 10
62.5298
 20
93.7792
 30
0
 10
62.5313
 20
93.7807
 30
0
 10
62.5356
 20
93.785
 30
0
 10
62.54
 20
93.7894
 30
0
 10
62.5444
 20
93.7938
 30
0
 10
62.5516
 20
93.8011
 30
0
 10
62.5589
 20
93.8083
 30
0
 10
62.5661
 20
93.8155
 30
0
 10
62.5761
 20
93.8256
 30
0
 10
62.5862
 20
93.8356
 30
0
 10
62.5962
 20
93.8456
 30
0
 10
62.6088
 20
93.8582
 30
0
 10
62.6215
 20
93.8709
 30
0
 10
62.6341
 20
93.8836
 30
0
 10
62.6493
 20
93.8987
 30
0
 10
62.6644
 20
93.9138
 30
0
 10
62.6796
 20
93.929
 30
0
 10
62.697
 20
93.9464
 30
0
 10
62.7144
 20
93.9639
 30
0
 10
62.7319
 20
93.9813
 30
0
 10
62.7514
 20
94.0008
 30
0
 10
62.7709
 20
94.0203
 30
0
 10
62.7904
 20
94.0398
 30
0
 10
62.8322
 20
94.0816
 30
0
 10
62.8765
 20
94.1259
 30
0
 10
62.9231
 20
94.1725
 30
0
 10
63.0181
 20
94.2675
 30
0
 10
63.122
 20
94.3714
 30
0
 10
63.2269
 20
94.4763
 30
0
  0
SPLINE
  5
A4B
330
A02
100
AcDbEntity
  8
View008
100
AcDbSpline
210
0
220
0
230
1
 70
8
 71
3
 72
35
 73
31
 74
0
 40
0
 40
0
 40
0
 40
0
 40
0.1122
 40
0.1122
 40
0.1122
 40
0.224399
 40
0.224399
 40
0.224399
 40
0.336599
 40
0.336599
 40
0.336599
 40
0.448799
 40
0.448799
 40
0.448799
 40
0.560999
 40
0.560999
 40
0.560999
 40
0.673198
 40
0.673198
 40
0.673198
 40
0.785398
 40
0.785398
 40
0.785398
 40
0.897598
 40
0.897598
 40
0.897598
 40
1.122
 40
1.122
 40
1.122
 40
1.5708
 40
1.5708
 40
1.5708
 40
1.5708
 10
62.5269
 20
99.3763
 30
0
 10
62.5283
 20
99.3748
 30
0
 10
62.5298
 20
99.3733
 30
0
 10
62.5313
 20
99.3719
 30
0
 10
62.5356
 20
99.3675
 30
0
 10
62.54
 20
99.3631
 30
0
 10
62.5444
 20
99.3587
 30
0
 10
62.5516
 20
99.3515
 30
0
 10
62.5589
 20
99.3442
 30
0
 10
62.5661
 20
99.337
 30
0
 10
62.5761
 20
99.327
 30
0
 10
62.5862
 20
99.317
 30
0
 10
62.5962
 20
99.3069
 30
0
 10
62.6088
 20
99.2943
 30
0
 10
62.6215
 20
99.2816
 30
0
 10
62.6341
 20
99.269
 30
0
 10
62.6493
 20
99.2538
 30
0
 10
62.6644
 20
99.2387
 30
0
 10
62.6796
 20
99.2235
 30
0
 10
62.697
 20
99.2061
 30
0
 10
62.7144
 20
99.1887
 30
0
 10
62.7319
 20
99.1712
 30
0
 10
62.7514
 20
99.1517
 30
0
 10
62.7709
 20
99.1322
 30
0
 10
62.7904
 20
99.1127
 30
0
 10
62.8322
 20
99.0709
 30
0
 10
62.8765
 20
99.0267
 30
0
 10
62.9231
 20
98.98
 30
0
 10
63.0181
 20
98.885
 30
0
 10
63.122
 20
98.7811
 30
0
 10
63.2269
 20
98.6763
 30
0
  0
SPLINE
  5
A4C
330
A02
100
AcDbEntity
  8
View008
100
AcDbSpline
210
0
220
0
230
1
 70
8
 71
3
 72
35
 73
31
 74
0
 40
0
 40
0
 40
0
 40
0
 40
0.1122
 40
0.1122
 40
0.1122
 40
0.224399
 40
0.224399
 40
0.224399
 40
0.336599
 40
0.336599
 40
0.336599
 40
0.448799
 40
0.448799
 40
0.448799
 40
0.560999
 40
0.560999
 40
0.560999
 40
0.673198
 40
0.673198
 40
0.673198
 40
0.785398
 40
0.785398
 40
0.785398
 40
0.897598
 40
0.897598
 40
0.897598
 40
1.122
 40
1.122
 40
1.122
 40
1.5708
 40
1.5708
 40
1.5708
 40
1.5708
 10
68.1269
 20
93.7763
 30
0
 10
68.1254
 20
93.7777
 30
0
 10
68.1239
 20
93.7792
 30
0
 10
68.1225
 20
93.7807
 30
0
 10
68.1181
 20
93.785
 30
0
 10
68.1137
 20
93.7894
 30
0
 10
68.1093
 20
93.7938
 30
0
 10
68.1021
 20
93.8011
 30
0
 10
68.0948
 20
93.8083
 30
0
 10
68.0876
 20
93.8155
 30
0
 10
68.0776
 20
93.8256
 30
0
 10
68.0675
 20
93.8356
 30
0
 10
68.0575
 20
93.8456
 30
0
 10
68.0449
 20
93.8582
 30
0
 10
68.0322
 20
93.8709
 30
0
 10
68.0196
 20
93.8836
 30
0
 10
68.0044
 20
93.8987
 30
0
 10
67.9893
 20
93.9138
 30
0
 10
67.9741
 20
93.929
 30
0
 10
67.9567
 20
93.9464
 30
0
 10
67.9393
 20
93.9639
 30
0
 10
67.9218
 20
93.9813
 30
0
 10
67.9023
 20
94.0008
 30
0
 10
67.8828
 20
94.0203
 30
0
 10
67.8633
 20
94.0398
 30
0
 10
67.8215
 20
94.0816
 30
0
 10
67.7773
 20
94.1259
 30
0
 10
67.7306
 20
94.1725
 30
0
 10
67.6356
 20
94.2675
 30
0
 10
67.5317
 20
94.3714
 30
0
 10
67.4269
 20
94.4763
 30
0
  0
SPLINE
  5
A4D
330
A02
100
AcDbEntity
  8
View008
100
AcDbSpline
210
0
220
0
230
1
 70
8
 71
3
 72
35
 73
31
 74
0
 40
0
 40
0
 40
0
 40
0
 40
0.1122
 40
0.1122
 40
0.1122
 40
0.224399
 40
0.224399
 40
0.224399
 40
0.336599
 40
0.336599
 40
0.336599
 40
0.448799
 40
0.448799
 40
0.448799
 40
0.560999
 40
0.560999
 40
0.560999
 40
0.673198
 40
0.673198
 40
0.673198
 40
0.785398
 40
0.785398
 40
0.785398
 40
0.897598
 40
0.897598
 40
0.897598
 40
1.122
 40
1.122
 40
1.122
 40
1.5708
 40
1.5708
 40
1.5708
 40
1.5708
 10
68.1269
 20
99.3763
 30
0
 10
68.1254
 20
99.3748
 30
0
 10
68.1239
 20
99.3733
 30
0
 10
68.1225
 20
99.3719
 30
0
 10
68.1181
 20
99.3675
 30
0
 10
68.1137
 20
99.3631
 30
0
 10
68.1093
 20
99.3587
 30
0
 10
68.1021
 20
99.3515
 30
0
 10
68.0948
 20
99.3442
 30
0
 10
68.0876
 20
99.337
 30
0
 10
68.0776
 20
99.327
 30
0
 10
68.0675
 20
99.317
 30
0
 10
68.0575
 20
99.3069
 30
0
 10
68.0449
 20
99.2943
 30
0
 10
68.0322
 20
99.2816
 30
0
 10
68.0196
 20
99.269
 30
0
 10
68.0044
 20
99.2538
 30
0
 10
67.9893
 20
99.2387
 30
0
 10
67.9741
 20
99.2235
 30
0
 10
67.9567
 20
99.2061
 30
0
 10
67.9393
 20
99.1887
 30
0
 10
67.9218
 20
99.1712
 30
0
 10
67.9023
 20
99.1517
 30
0
 10
67.8828
 20
99.1322
 30
0
 10
67.8633
 20
99.1127
 30
0
 10
67.8215
 20
99.0709
 30
0
 10
67.7773
 20
99.0267
 30
0
 10
67.7306
 20
98.98
 30
0
 10
67.6356
 20
98.885
 30
0
 10
67.5317
 20
98.7811
 30
0
 10
67.4269
 20
98.6763
 30
0
  0
CIRCLE
  5
A4E
330
A02
100
AcDbEntity
  8
View008
100
AcDbCircle
 10
51.3269
 20
98.0113
 40
1.015
  0
LINE
  5
A4F
330
A02
100
AcDbEntity
  8
View008
100
AcDbLine
 10
76.1769
 20
79.9863
 30
0
 11
76.1769
 21
70.8863
 31
0
  0
LINE
  5
A50
330
A02
100
AcDbEntity
  8
View008
100
AcDbLine
 10
76.1769
 20
70.8863
 30
0
 11
67.0769
 21
70.8863
 31
0
  0
LINE
  5
A51
330
A02
100
AcDbEntity
  8
View008
100
AcDbLine
 10
67.0769
 20
79.9863
 30
0
 11
76.1769
 21
79.9863
 31
0
  0
LINE
  5
A52
330
A02
100
AcDbEntity
  8
View008
100
AcDbLine
 10
67.0769
 20
70.8863
 30
0
 11
67.0769
 21
79.9863
 31
0
  0
LINE
  5
A53
330
A02
100
AcDbEntity
  8
View008
100
AcDbLine
 10
67.0769
 20
83.4863
 30
0
 11
67.0769
 21
89.0863
 31
0
  0
LINE
  5
A54
330
A02
100
AcDbEntity
  8
View008
100
AcDbLine
 10
76.1769
 20
83.4863
 30
0
 11
67.0769
 21
83.4863
 31
0
  0
LINE
  5
A55
330
A02
100
AcDbEntity
  8
View008
100
AcDbLine
 10
76.1769
 20
89.0863
 30
0
 11
76.1769
 21
83.4863
 31
0
  0
LINE
  5
A56
330
A02
100
AcDbEntity
  8
View008
100
AcDbLine
 10
67.0769
 20
89.0863
 30
0
 11
76.1769
 21
89.0863
 31
0
  0
LINE
  5
A57
330
A02
100
AcDbEntity
  8
View008
100
AcDbLine
 10
63.2269
 20
94.4763
 30
0
 11
63.2269
 21
98.6763
 31
0
  0
LINE
  5
A58
330
A02
100
AcDbEntity
  8
View008
100
AcDbLine
 10
67.4269
 20
94.4763
 30
0
 11
63.2269
 21
94.4763
 31
0
  0
LINE
  5
A59
330
A02
100
AcDbEntity
  8
View008
100
AcDbLine
 10
67.4269
 20
98.6763
 30
0
 11
67.4269
 21
94.4763
 31
0
  0
LINE
  5
A5A
330
A02
100
AcDbEntity
  8
View008
100
AcDbLine
 10
63.2269
 20
98.6763
 30
0
 11
67.4269
 21
98.6763
 31
0
  0
LINE
  5
A5B
330
A02
100
AcDbEntity
  8
SectionView007
100
AcDbLine
 10
154.462
 20
90.9277
 30
0
 11
169.822
 21
90.9277
 31
0
  0
LINE
  5
A5C
330
A02
100
AcDbEntity
  8
SectionView007
100
AcDbLine
 10
133.462
 20
90.9277
 30
0
 11
146.462
 21
90.9277
 31
0
  0
LINE
  5
A5D
330
A02
100
AcDbEntity
  8
SectionView007
100
AcDbLine
 10
126.962
 20
90.9277
 30
0
 11
127.462
 21
90.9277
 31
0
  0
LINE
  5
A5E
330
A02
100
AcDbEntity
  8
SectionView007
100
AcDbLine
 10
175.822
 20
80.9277
 30
0
 11
175.822
 21
90.9277
 31
0
  0
LINE
  5
A5F
330
A02
100
AcDbEntity
  8
SectionView007
100
AcDbLine
 10
175.822
 20
90.9277
 30
0
 11
176.462
 21
90.9277
 31
0
  0
LINE
  5
A60
330
A02
100
AcDbEntity
  8
SectionView007
100
AcDbLine
 10
176.462
 20
97.9277
 30
0
 11
176.462
 21
90.9277
 31
0
  0
LINE
  5
A61
330
A02
100
AcDbEntity
  8
SectionView007
100
AcDbLine
 10
176.462
 20
97.9277
 30
0
 11
178.012
 21
97.9277
 31
0
  0
LINE
  5
A62
330
A02
100
AcDbEntity
  8
SectionView007
100
AcDbLine
 10
178.012
 20
97.9277
 30
0
 11
178.012
 21
90.9277
 31
0
  0
LINE
  5
A63
330
A02
100
AcDbEntity
  8
SectionView007
100
AcDbLine
 10
178.012
 20
90.9277
 30
0
 11
180.912
 21
90.9277
 31
0
  0
LINE
  5
A64
330
A02
100
AcDbEntity
  8
SectionView007
100
AcDbLine
 10
180.912
 20
97.9277
 30
0
 11
180.912
 21
90.9277
 31
0
  0
LINE
  5
A65
330
A02
100
AcDbEntity
  8
SectionView007
100
AcDbLine
 10
180.912
 20
97.9277
 30
0
 11
182.462
 21
97.9277
 31
0
  0
LINE
  5
A66
330
A02
100
AcDbEntity
  8
SectionView007
100
AcDbLine
 10
182.462
 20
97.9277
 30
0
 11
182.462
 21
90.9277
 31
0
  0
LINE
  5
A67
330
A02
100
AcDbEntity
  8
SectionView007
100
AcDbLine
 10
182.462
 20
90.9277
 30
0
 11
182.962
 21
90.9277
 31
0
  0
LINE
  5
A68
330
A02
100
AcDbEntity
  8
SectionView007
100
AcDbLine
 10
182.962
 20
80.9277
 30
0
 11
182.962
 21
90.9277
 31
0
  0
LINE
  5
A69
330
A02
100
AcDbEntity
  8
SectionView007
100
AcDbLine
 10
182.962
 20
80.9277
 30
0
 11
193.462
 21
80.9277
 31
0
  0
LINE
  5
A6A
330
A02
100
AcDbEntity
  8
SectionView007
100
AcDbLine
 10
193.462
 20
74.9277
 30
0
 11
193.462
 21
80.9277
 31
0
  0
LINE
  5
A6B
330
A02
100
AcDbEntity
  8
SectionView007
100
AcDbLine
 10
191.462
 20
74.9277
 30
0
 11
193.462
 21
74.9277
 31
0
  0
LINE
  5
A6C
330
A02
100
AcDbEntity
  8
SectionView007
100
AcDbLine
 10
191.462
 20
76.9277
 30
0
 11
191.462
 21
74.9277
 31
0
  0
LINE
  5
A6D
330
A02
100
AcDbEntity
  8
SectionView007
100
AcDbLine
 10
189.462
 20
76.9277
 30
0
 11
191.462
 21
76.9277
 31
0
  0
LINE
  5
A6E
330
A02
100
AcDbEntity
  8
SectionView007
100
AcDbLine
 10
189.462
 20
74.9277
 30
0
 11
189.462
 21
76.9277
 31
0
  0
LINE
  5
A6F
330
A02
100
AcDbEntity
  8
SectionView007
100
AcDbLine
 10
187.462
 20
74.9277
 30
0
 11
189.462
 21
74.9277
 31
0
  0
LINE
  5
A70
330
A02
100
AcDbEntity
  8
SectionView007
100
AcDbLine
 10
187.462
 20
76.9277
 30
0
 11
187.462
 21
74.9277
 31
0
  0
LINE
  5
A71
330
A02
100
AcDbEntity
  8
SectionView007
100
AcDbLine
 10
185.462
 20
76.9277
 30
0
 11
187.462
 21
76.9277
 31
0
  0
LINE
  5
A72
330
A02
100
AcDbEntity
  8
SectionView007
100
AcDbLine
 10
185.462
 20
74.9277
 30
0
 11
185.462
 21
76.9277
 31
0
  0
LINE
  5
A73
330
A02
100
AcDbEntity
  8
SectionView007
100
AcDbLine
 10
183.462
 20
74.9277
 30
0
 11
185.462
 21
74.9277
 31
0
  0
LINE
  5
A74
330
A02
100
AcDbEntity
  8
SectionView007
100
AcDbLine
 10
183.462
 20
76.9277
 30
0
 11
183.462
 21
74.9277
 31
0
  0
LINE
  5
A75
330
A02
100
AcDbEntity
  8
SectionView007
100
AcDbLine
 10
181.462
 20
76.9277
 30
0
 11
183.462
 21
76.9277
 31
0
  0
LINE
  5
A76
330
A02
100
AcDbEntity
  8
SectionView007
100
AcDbLine
 10
181.462
 20
74.9277
 30
0
 11
181.462
 21
76.9277
 31
0
  0
LINE
  5
A77
330
A02
100
AcDbEntity
  8
SectionView007
100
AcDbLine
 10
179.462
 20
74.9277
 30
0
 11
181.462
 21
74.9277
 31
0
  0
LINE
  5
A78
330
A02
100
AcDbEntity
  8
SectionView007
100
AcDbLine
 10
179.462
 20
76.9277
 30
0
 11
179.462
 21
74.9277
 31
0
  0
LINE
  5
A79
330
A02
100
AcDbEntity
  8
SectionView007
100
AcDbLine
 10
177.462
 20
76.9277
 30
0
 11
179.462
 21
76.9277
 31
0
  0
LINE
  5
A7A
330
A02
100
AcDbEntity
  8
SectionView007
100
AcDbLine
 10
177.462
 20
74.9277
 30
0
 11
177.462
 21
76.9277
 31
0
  0
LINE
  5
A7B
330
A02
100
AcDbEntity
  8
SectionView007
100
AcDbLine
 10
175.462
 20
74.9277
 30
0
 11
177.462
 21
74.9277
 31
0
  0
LINE
  5
A7C
330
A02
100
AcDbEntity
  8
SectionView007
100
AcDbLine
 10
175.462
 20
76.9277
 30
0
 11
175.462
 21
74.9277
 31
0
  0
LINE
  5
A7D
330
A02
100
AcDbEntity
  8
SectionView007
100
AcDbLine
 10
173.462
 20
76.9277
 30
0
 11
175.462
 21
76.9277
 31
0
  0
LINE
  5
A7E
330
A02
100
AcDbEntity
  8
SectionView007
100
AcDbLine
 10
173.462
 20
74.9277
 30
0
 11
173.462
 21
76.9277
 31
0
  0
LINE
  5
A7F
330
A02
100
AcDbEntity
  8
SectionView007
100
AcDbLine
 10
171.462
 20
74.9277
 30
0
 11
173.462
 21
74.9277
 31
0
  0
LINE
  5
A80
330
A02
100
AcDbEntity
  8
SectionView007
100
AcDbLine
 10
171.462
 20
76.9277
 30
0
 11
171.462
 21
74.9277
 31
0
  0
LINE
  5
A81
330
A02
100
AcDbEntity
  8
SectionView007
100
AcDbLine
 10
169.462
 20
76.9277
 30
0
 11
171.462
 21
76.9277
 31
0
  0
LINE
  5
A82
330
A02
100
AcDbEntity
  8
SectionView007
100
AcDbLine
 10
169.462
 20
74.9277
 30
0
 11
169.462
 21
76.9277
 31
0
  0
LINE
  5
A83
330
A02
100
AcDbEntity
  8
SectionView007
100
AcDbLine
 10
167.462
 20
74.9277
 30
0
 11
169.462
 21
74.9277
 31
0
  0
LINE
  5
A84
330
A02
100
AcDbEntity
  8
SectionView007
100
AcDbLine
 10
167.462
 20
76.9277
 30
0
 11
167.462
 21
74.9277
 31
0
  0
LINE
  5
A85
330
A02
100
AcDbEntity
  8
SectionView007
100
AcDbLine
 10
165.462
 20
76.9277
 30
0
 11
167.462
 21
76.9277
 31
0
  0
LINE
  5
A86
330
A02
100
AcDbEntity
  8
SectionView007
100
AcDbLine
 10
165.462
 20
74.9277
 30
0
 11
165.462
 21
76.9277
 31
0
  0
LINE
  5
A87
330
A02
100
AcDbEntity
  8
SectionView007
100
AcDbLine
 10
163.462
 20
74.9277
 30
0
 11
165.462
 21
74.9277
 31
0
  0
LINE
  5
A88
330
A02
100
AcDbEntity
  8
SectionView007
100
AcDbLine
 10
163.462
 20
76.9277
 30
0
 11
163.462
 21
74.9277
 31
0
  0
LINE
  5
A89
330
A02
100
AcDbEntity
  8
SectionView007
100
AcDbLine
 10
161.462
 20
76.9277
 30
0
 11
163.462
 21
76.9277
 31
0
  0
LINE
  5
A8A
330
A02
100
AcDbEntity
  8
SectionView007
100
AcDbLine
 10
161.462
 20
74.9277
 30
0
 11
161.462
 21
76.9277
 31
0
  0
LINE
  5
A8B
330
A02
100
AcDbEntity
  8
SectionView007
100
AcDbLine
 10
159.462
 20
74.9277
 30
0
 11
161.462
 21
74.9277
 31
0
  0
LINE
  5
A8C
330
A02
100
AcDbEntity
  8
SectionView007
100
AcDbLine
 10
159.462
 20
76.9277
 30
0
 11
159.462
 21
74.9277
 31
0
  0
LINE
  5
A8D
330
A02
100
AcDbEntity
  8
SectionView007
100
AcDbLine
 10
157.462
 20
76.9277
 30
0
 11
159.462
 21
76.9277
 31
0
  0
LINE
  5
A8E
330
A02
100
AcDbEntity
  8
SectionView007
100
AcDbLine
 10
157.462
 20
74.9277
 30
0
 11
157.462
 21
76.9277
 31
0
  0
LINE
  5
A8F
330
A02
100
AcDbEntity
  8
SectionView007
100
AcDbLine
 10
155.462
 20
74.9277
 30
0
 11
157.462
 21
74.9277
 31
0
  0
LINE
  5
A90
330
A02
100
AcDbEntity
  8
SectionView007
100
AcDbLine
 10
155.462
 20
76.9277
 30
0
 11
155.462
 21
74.9277
 31
0
  0
LINE
  5
A91
330
A02
100
AcDbEntity
  8
SectionView007
100
AcDbLine
 10
153.462
 20
76.9277
 30
0
 11
155.462
 21
76.9277
 31
0
  0
LINE
  5
A92
330
A02
100
AcDbEntity
  8
SectionView007
100
AcDbLine
 10
153.462
 20
74.9277
 30
0
 11
153.462
 21
76.9277
 31
0
  0
LINE
  5
A93
330
A02
100
AcDbEntity
  8
SectionView007
100
AcDbLine
 10
151.462
 20
74.9277
 30
0
 11
153.462
 21
74.9277
 31
0
  0
LINE
  5
A94
330
A02
100
AcDbEntity
  8
SectionView007
100
AcDbLine
 10
151.462
 20
76.9277
 30
0
 11
151.462
 21
74.9277
 31
0
  0
LINE
  5
A95
330
A02
100
AcDbEntity
  8
SectionView007
100
AcDbLine
 10
149.462
 20
76.9277
 30
0
 11
151.462
 21
76.9277
 31
0
  0
LINE
  5
A96
330
A02
100
AcDbEntity
  8
SectionView007
100
AcDbLine
 10
149.462
 20
74.9277
 30
0
 11
149.462
 21
76.9277
 31
0
  0
LINE
  5
A97
330
A02
100
AcDbEntity
  8
SectionView007
100
AcDbLine
 10
147.462
 20
74.9277
 30
0
 11
149.462
 21
74.9277
 31
0
  0
LINE
  5
A98
330
A02
100
AcDbEntity
  8
SectionView007
100
AcDbLine
 10
147.462
 20
76.9277
 30
0
 11
147.462
 21
74.9277
 31
0
  0
LINE
  5
A99
330
A02
100
AcDbEntity
  8
SectionView007
100
AcDbLine
 10
145.462
 20
76.9277
 30
0
 11
147.462
 21
76.9277
 31
0
  0
LINE
  5
A9A
330
A02
100
AcDbEntity
  8
SectionView007
100
AcDbLine
 10
145.462
 20
74.9277
 30
0
 11
145.462
 21
76.9277
 31
0
  0
LINE
  5
A9B
330
A02
100
AcDbEntity
  8
SectionView007
100
AcDbLine
 10
143.462
 20
74.9277
 30
0
 11
145.462
 21
74.9277
 31
0
  0
LINE
  5
A9C
330
A02
100
AcDbEntity
  8
SectionView007
100
AcDbLine
 10
143.462
 20
76.9277
 30
0
 11
143.462
 21
74.9277
 31
0
  0
LINE
  5
A9D
330
A02
100
AcDbEntity
  8
SectionView007
100
AcDbLine
 10
141.462
 20
76.9277
 30
0
 11
143.462
 21
76.9277
 31
0
  0
LINE
  5
A9E
330
A02
100
AcDbEntity
  8
SectionView007
100
AcDbLine
 10
141.462
 20
74.9277
 30
0
 11
141.462
 21
76.9277
 31
0
  0
LINE
  5
A9F
330
A02
100
AcDbEntity
  8
SectionView007
100
AcDbLine
 10
139.462
 20
74.9277
 30
0
 11
141.462
 21
74.9277
 31
0
  0
LINE
  5
AA0
330
A02
100
AcDbEntity
  8
SectionView007
100
AcDbLine
 10
139.462
 20
76.9277
 30
0
 11
139.462
 21
74.9277
 31
0
  0
LINE
  5
AA1
330
A02
100
AcDbEntity
  8
SectionView007
100
AcDbLine
 10
137.462
 20
76.9277
 30
0
 11
139.462
 21
76.9277
 31
0
  0
LINE
  5
AA2
330
A02
100
AcDbEntity
  8
SectionView007
100
AcDbLine
 10
137.462
 20
74.9277
 30
0
 11
137.462
 21
76.9277
 31
0
  0
LINE
  5
AA3
330
A02
100
AcDbEntity
  8
SectionView007
100
AcDbLine
 10
135.462
 20
74.9277
 30
0
 11
137.462
 21
74.9277
 31
0
  0
LINE
  5
AA4
330
A02
100
AcDbEntity
  8
SectionView007
100
AcDbLine
 10
135.462
 20
76.9277
 30
0
 11
135.462
 21
74.9277
 31
0
  0
LINE
  5
AA5
330
A02
100
AcDbEntity
  8
SectionView007
100
AcDbLine
 10
133.462
 20
76.9277
 30
0
 11
135.462
 21
76.9277
 31
0
  0
LINE
  5
AA6
330
A02
100
AcDbEntity
  8
SectionView007
100
AcDbLine
 10
133.462
 20
74.9277
 30
0
 11
133.462
 21
76.9277
 31
0
  0
LINE
  5
AA7
330
A02
100
AcDbEntity
  8
SectionView007
100
AcDbLine
 10
131.462
 20
74.9277
 30
0
 11
133.462
 21
74.9277
 31
0
  0
LINE
  5
AA8
330
A02
100
AcDbEntity
  8
SectionView007
100
AcDbLine
 10
131.462
 20
76.9277
 30
0
 11
131.462
 21
74.9277
 31
0
  0
LINE
  5
AA9
330
A02
100
AcDbEntity
  8
SectionView007
100
AcDbLine
 10
129.462
 20
76.9277
 30
0
 11
131.462
 21
76.9277
 31
0
  0
LINE
  5
AAA
330
A02
100
AcDbEntity
  8
SectionView007
100
AcDbLine
 10
129.462
 20
74.9277
 30
0
 11
129.462
 21
76.9277
 31
0
  0
LINE
  5
AAB
330
A02
100
AcDbEntity
  8
SectionView007
100
AcDbLine
 10
127.462
 20
74.9277
 30
0
 11
129.462
 21
74.9277
 31
0
  0
LINE
  5
AAC
330
A02
100
AcDbEntity
  8
SectionView007
100
AcDbLine
 10
127.462
 20
76.9277
 30
0
 11
127.462
 21
74.9277
 31
0
  0
LINE
  5
AAD
330
A02
100
AcDbEntity
  8
SectionView007
100
AcDbLine
 10
125.462
 20
76.9277
 30
0
 11
127.462
 21
76.9277
 31
0
  0
LINE
  5
AAE
330
A02
100
AcDbEntity
  8
SectionView007
100
AcDbLine
 10
125.462
 20
74.9277
 30
0
 11
125.462
 21
76.9277
 31
0
  0
LINE
  5
AAF
330
A02
100
AcDbEntity
  8
SectionView007
100
AcDbLine
 10
123.462
 20
74.9277
 30
0
 11
125.462
 21
74.9277
 31
0
  0
LINE
  5
AB0
330
A02
100
AcDbEntity
  8
SectionView007
100
AcDbLine
 10
123.462
 20
80.9277
 30
0
 11
123.462
 21
74.9277
 31
0
  0
LINE
  5
AB1
330
A02
100
AcDbEntity
  8
SectionView007
100
AcDbLine
 10
123.462
 20
80.9277
 30
0
 11
126.962
 21
80.9277
 31
0
  0
LINE
  5
AB2
330
A02
100
AcDbEntity
  8
SectionView007
100
AcDbLine
 10
126.962
 20
90.9277
 30
0
 11
126.962
 21
80.9277
 31
0
  0
LINE
  5
AB3
330
A02
100
AcDbEntity
  8
SectionView007
100
AcDbLine
 10
127.462
 20
97.9277
 30
0
 11
127.462
 21
90.9277
 31
0
  0
LINE
  5
AB4
330
A02
100
AcDbEntity
  8
SectionView007
100
AcDbLine
 10
127.462
 20
97.9277
 30
0
 11
129.012
 21
97.9277
 31
0
  0
LINE
  5
AB5
330
A02
100
AcDbEntity
  8
SectionView007
100
AcDbLine
 10
129.012
 20
97.9277
 30
0
 11
129.012
 21
90.9277
 31
0
  0
LINE
  5
AB6
330
A02
100
AcDbEntity
  8
SectionView007
100
AcDbLine
 10
129.012
 20
90.9277
 30
0
 11
131.912
 21
90.9277
 31
0
  0
LINE
  5
AB7
330
A02
100
AcDbEntity
  8
SectionView007
100
AcDbLine
 10
131.912
 20
97.9277
 30
0
 11
131.912
 21
90.9277
 31
0
  0
LINE
  5
AB8
330
A02
100
AcDbEntity
  8
SectionView007
100
AcDbLine
 10
131.912
 20
97.9277
 30
0
 11
133.462
 21
97.9277
 31
0
  0
LINE
  5
AB9
330
A02
100
AcDbEntity
  8
SectionView007
100
AcDbLine
 10
133.462
 20
97.9277
 30
0
 11
133.462
 21
90.9277
 31
0
  0
LINE
  5
ABA
330
A02
100
AcDbEntity
  8
SectionView007
100
AcDbLine
 10
146.462
 20
90.9277
 30
0
 11
146.462
 21
95.4277
 31
0
  0
ARC
  5
ABB
330
A02
100
AcDbEntity
  8
SectionView007
100
AcDbCircle
 10
147.462
 20
95.4277
 30
0
 40
1
100
AcDbArc
 50
90
 51
180
  0
LINE
  5
ABC
330
A02
100
AcDbEntity
  8
SectionView007
100
AcDbLine
 10
147.462
 20
96.4277
 30
0
 11
153.462
 21
96.4277
 31
0
  0
ARC
  5
ABD
330
A02
100
AcDbEntity
  8
SectionView007
100
AcDbCircle
 10
153.462
 20
95.4277
 30
0
 40
1
100
AcDbArc
 50
0
 51
90
  0
LINE
  5
ABE
330
A02
100
AcDbEntity
  8
SectionView007
100
AcDbLine
 10
154.462
 20
95.4277
 30
0
 11
154.462
 21
90.9277
 31
0
  0
LINE
  5
ABF
330
A02
100
AcDbEntity
  8
SectionView007
100
AcDbLine
 10
169.822
 20
80.9277
 30
0
 11
169.822
 21
90.9277
 31
0
  0
LINE
  5
AC0
330
A02
100
AcDbEntity
  8
SectionView007
100
AcDbLine
 10
169.822
 20
80.9277
 30
0
 11
175.822
 21
80.9277
 31
0
  0
SPLINE
  5
AC1
330
A02
100
AcDbEntity
  8
SectionView007
100
AcDbSpline
210
0
220
0
230
1
 70
8
 71
2
 72
28
 73
25
 74
0
 40
4.71239
 40
4.71239
 40
4.71239
 40
4.82459
 40
4.82459
 40
4.93679
 40
4.93679
 40
5.04899
 40
5.04899
 40
5.16119
 40
5.16119
 40
5.27339
 40
5.27339
 40
5.38559
 40
5.38559
 40
5.49779
 40
5.49779
 40
5.60999
 40
5.60999
 40
5.72219
 40
5.72219
 40
5.83439
 40
5.83439
 40
6.05879
 40
6.05879
 40
6.28319
 40
6.28319
 40
6.28319
 10
180.912
 20
97.9277
 30
0
 10
180.908
 20
97.9277
 30
0
 10
180.903
 20
97.9277
 30
0
 10
180.89
 20
97.9277
 30
0
 10
180.876
 20
97.9277
 30
0
 10
180.854
 20
97.9277
 30
0
 10
180.831
 20
97.9277
 30
0
 10
180.8
 20
97.9277
 30
0
 10
180.769
 20
97.9277
 30
0
 10
180.73
 20
97.9277
 30
0
 10
180.69
 20
97.9277
 30
0
 10
180.643
 20
97.9277
 30
0
 10
180.596
 20
97.9277
 30
0
 10
180.542
 20
97.9277
 30
0
 10
180.488
 20
97.9277
 30
0
 10
180.427
 20
97.9277
 30
0
 10
180.367
 20
97.9277
 30
0
 10
180.3
 20
97.9277
 30
0
 10
180.234
 20
97.9277
 30
0
 10
180.163
 20
97.9277
 30
0
 10
180.092
 20
97.9277
 30
0
 10
179.943
 20
97.9277
 30
0
 10
179.785
 20
97.9277
 30
0
 10
179.625
 20
97.9277
 30
0
 10
179.462
 20
97.9277
 30
0
  0
SPLINE
  5
AC2
330
A02
100
AcDbEntity
  8
SectionView007
100
AcDbSpline
210
0
220
0
230
1
 70
8
 71
2
 72
26
 73
23
 74
0
 40
0
 40
0
 40
0
 40
0.336599
 40
0.336599
 40
0.560999
 40
0.560999
 40
0.673198
 40
0.673198
 40
0.785398
 40
0.785398
 40
0.897598
 40
0.897598
 40
1.0098
 40
1.0098
 40
1.122
 40
1.122
 40
1.2342
 40
1.2342
 40
1.3464
 40
1.3464
 40
1.4586
 40
1.4586
 40
1.5708
 40
1.5708
 40
1.5708
 10
179.462
 20
97.9277
 30
0
 10
179.217
 20
97.9277
 30
0
 10
178.984
 20
97.9277
 30
0
 10
178.831
 20
97.9277
 30
0
 10
178.691
 20
97.9277
 30
0
 10
178.625
 20
97.9277
 30
0
 10
178.558
 20
97.9277
 30
0
 10
178.498
 20
97.9277
 30
0
 10
178.437
 20
97.9277
 30
0
 10
178.383
 20
97.9277
 30
0
 10
178.329
 20
97.9277
 30
0
 10
178.282
 20
97.9277
 30
0
 10
178.235
 20
97.9277
 30
0
 10
178.195
 20
97.9277
 30
0
 10
178.156
 20
97.9277
 30
0
 10
178.125
 20
97.9277
 30
0
 10
178.094
 20
97.9277
 30
0
 10
178.071
 20
97.9277
 30
0
 10
178.049
 20
97.9277
 30
0
 10
178.035
 20
97.9277
 30
0
 10
178.022
 20
97.9277
 30
0
 10
178.017
 20
97.9277
 30
0
 10
178.012
 20
97.9277
 30
0
  0
SPLINE
  5
AC3
330
A02
100
AcDbEntity
  8
SectionView007
100
AcDbSpline
210
0
220
0
230
1
 70
8
 71
1
 72
17
 73
15
 74
0
 40
4.71239
 40
4.71239
 40
4.73982
 40
4.76726
 40
4.79469
 40
4.82213
 40
4.84956
 40
4.877
 40
4.90443
 40
4.93186
 40
4.9593
 40
4.98673
 40
5.01417
 40
5.0416
 40
5.06904
 40
5.09647
 40
5.09647
 10
193.462
 20
80.9277
 30
0
 10
193.449
 20
80.9277
 30
0
 10
193.41
 20
80.9277
 30
0
 10
193.344
 20
80.9277
 30
0
 10
193.252
 20
80.9277
 30
0
 10
193.134
 20
80.9277
 30
0
 10
192.989
 20
80.9277
 30
0
 10
192.819
 20
80.9277
 30
0
 10
192.623
 20
80.9277
 30
0
 10
192.401
 20
80.9277
 30
0
 10
192.154
 20
80.9277
 30
0
 10
191.881
 20
80.9277
 30
0
 10
191.583
 20
80.9277
 30
0
 10
191.26
 20
80.9277
 30
0
 10
190.912
 20
80.9277
 30
0
  0
SPLINE
  5
AC4
330
A02
100
AcDbEntity
  8
SectionView007
100
AcDbSpline
210
0
220
0
230
1
 70
8
 71
3
 72
8
 73
4
 74
0
 40
5.28326
 40
5.28326
 40
5.28326
 40
5.28326
 40
5.50779
 40
5.50779
 40
5.50779
 40
5.50779
 10
187.912
 20
80.9277
 30
0
 10
186.496
 20
80.9277
 30
0
 10
184.832
 20
80.9277
 30
0
 10
182.962
 20
80.9277
 30
0
  0
SPLINE
  5
AC5
330
A02
100
AcDbEntity
  8
SectionView007
100
AcDbSpline
210
0
220
0
230
1
 70
8
 71
3
 72
8
 73
4
 74
0
 40
5.7642
 40
5.7642
 40
5.7642
 40
5.7642
 40
5.95263
 40
5.95263
 40
5.95263
 40
5.95263
 10
175.822
 20
80.9277
 30
0
 10
173.913
 20
80.9277
 30
0
 10
171.902
 20
80.9277
 30
0
 10
169.822
 20
80.9277
 30
0
  0
SPLINE
  5
AC6
330
A02
100
AcDbEntity
  8
SectionView007
100
AcDbSpline
210
0
220
0
230
1
 70
8
 71
1
 72
17
 73
15
 74
0
 40
7.4699
 40
7.4699
 40
7.49733
 40
7.52477
 40
7.5522
 40
7.57964
 40
7.60707
 40
7.63451
 40
7.66194
 40
7.68938
 40
7.71681
 40
7.74424
 40
7.77168
 40
7.79911
 40
7.82655
 40
7.85398
 40
7.85398
 10
126.012
 20
80.9277
 30
0
 10
125.665
 20
80.9277
 30
0
 10
125.342
 20
80.9277
 30
0
 10
125.044
 20
80.9277
 30
0
 10
124.771
 20
80.9277
 30
0
 10
124.524
 20
80.9277
 30
0
 10
124.302
 20
80.9277
 30
0
 10
124.106
 20
80.9277
 30
0
 10
123.936
 20
80.9277
 30
0
 10
123.791
 20
80.9277
 30
0
 10
123.673
 20
80.9277
 30
0
 10
123.581
 20
80.9277
 30
0
 10
123.515
 20
80.9277
 30
0
 10
123.476
 20
80.9277
 30
0
 10
123.462
 20
80.9277
 30
0
  0
SPLINE
  5
AC7
330
A02
100
AcDbEntity
  8
SectionView007
100
AcDbSpline
210
0
220
0
230
1
 70
8
 71
2
 72
26
 73
23
 74
0
 40
4.71239
 40
4.71239
 40
4.71239
 40
4.79777
 40
4.79777
 40
4.88316
 40
4.88316
 40
4.96854
 40
4.96854
 40
5.05392
 40
5.05392
 40
5.13931
 40
5.13931
 40
5.22469
 40
5.22469
 40
5.31008
 40
5.31008
 40
5.39546
 40
5.39546
 40
5.56623
 40
5.56623
 40
5.73699
 40
5.73699
 40
5.90776
 40
5.90776
 40
5.90776
 10
126.012
 20
80.9277
 30
0
 10
126.015
 20
80.9277
 30
0
 10
126.018
 20
80.9277
 30
0
 10
126.026
 20
80.9277
 30
0
 10
126.034
 20
80.9277
 30
0
 10
126.048
 20
80.9277
 30
0
 10
126.061
 20
80.9277
 30
0
 10
126.08
 20
80.9277
 30
0
 10
126.099
 20
80.9277
 30
0
 10
126.123
 20
80.9277
 30
0
 10
126.147
 20
80.9277
 30
0
 10
126.176
 20
80.9277
 30
0
 10
126.205
 20
80.9277
 30
0
 10
126.239
 20
80.9277
 30
0
 10
126.272
 20
80.9277
 30
0
 10
126.311
 20
80.9277
 30
0
 10
126.349
 20
80.9277
 30
0
 10
126.432
 20
80.9277
 30
0
 10
126.527
 20
80.9277
 30
0
 10
126.625
 20
80.9277
 30
0
 10
126.733
 20
80.9277
 30
0
 10
126.844
 20
80.9277
 30
0
 10
126.962
 20
80.9277
 30
0
  0
SPLINE
  5
AC8
330
A02
100
AcDbEntity
  8
SectionView007
100
AcDbSpline
210
0
220
0
230
1
 70
8
 71
2
 72
6
 73
3
 74
0
 40
0.881083
 40
0.881083
 40
0.881083
 40
0.924918
 40
0.924918
 40
0.924918
 10
185.462
 20
76.9277
 30
0
 10
185.951
 20
76.9277
 30
0
 10
186.412
 20
76.9277
 30
0
  0
SPLINE
  5
AC9
330
A02
100
AcDbEntity
  8
SectionView007
100
AcDbSpline
210
0
220
0
230
1
 70
8
 71
2
 72
6
 73
3
 74
0
 40
5.35827
 40
5.35827
 40
5.35827
 40
5.4021
 40
5.4021
 40
5.4021
 10
130.512
 20
76.9277
 30
0
 10
130.974
 20
76.9277
 30
0
 10
131.462
 20
76.9277
 30
0
  0
SPLINE
  5
ACA
330
A02
100
AcDbEntity
  8
SectionView007
100
AcDbSpline
210
0
220
0
230
1
 70
8
 71
2
 72
28
 73
25
 74
0
 40
4.71239
 40
4.71239
 40
4.71239
 40
4.82459
 40
4.82459
 40
4.93679
 40
4.93679
 40
5.04899
 40
5.04899
 40
5.16119
 40
5.16119
 40
5.27339
 40
5.27339
 40
5.38559
 40
5.38559
 40
5.49779
 40
5.49779
 40
5.60999
 40
5.60999
 40
5.72219
 40
5.72219
 40
5.83439
 40
5.83439
 40
6.05879
 40
6.05879
 40
6.28319
 40
6.28319
 40
6.28319
 10
131.912
 20
97.9277
 30
0
 10
131.908
 20
97.9277
 30
0
 10
131.903
 20
97.9277
 30
0
 10
131.89
 20
97.9277
 30
0
 10
131.876
 20
97.9277
 30
0
 10
131.854
 20
97.9277
 30
0
 10
131.831
 20
97.9277
 30
0
 10
131.8
 20
97.9277
 30
0
 10
131.769
 20
97.9277
 30
0
 10
131.73
 20
97.9277
 30
0
 10
131.69
 20
97.9277
 30
0
 10
131.643
 20
97.9277
 30
0
 10
131.596
 20
97.9277
 30
0
 10
131.542
 20
97.9277
 30
0
 10
131.488
 20
97.9277
 30
0
 10
131.427
 20
97.9277
 30
0
 10
131.367
 20
97.9277
 30
0
 10
131.3
 20
97.9277
 30
0
 10
131.234
 20
97.9277
 30
0
 10
131.163
 20
97.9277
 30
0
 10
131.092
 20
97.9277
 30
0
 10
130.943
 20
97.9277
 30
0
 10
130.785
 20
97.9277
 30
0
 10
130.625
 20
97.9277
 30
0
 10
130.462
 20
97.9277
 30
0
  0
SPLINE
  5
ACB
330
A02
100
AcDbEntity
  8
SectionView007
100
AcDbSpline
210
0
220
0
230
1
 70
8
 71
2
 72
26
 73
23
 74
0
 40
0
 40
0
 40
0
 40
0.336599
 40
0.336599
 40
0.560999
 40
0.560999
 40
0.673198
 40
0.673198
 40
0.785398
 40
0.785398
 40
0.897598
 40
0.897598
 40
1.0098
 40
1.0098
 40
1.122
 40
1.122
 40
1.2342
 40
1.2342
 40
1.3464
 40
1.3464
 40
1.4586
 40
1.4586
 40
1.5708
 40
1.5708
 40
1.5708
 10
130.462
 20
97.9277
 30
0
 10
130.217
 20
97.9277
 30
0
 10
129.984
 20
97.9277
 30
0
 10
129.831
 20
97.9277
 30
0
 10
129.691
 20
97.9277
 30
0
 10
129.625
 20
97.9277
 30
0
 10
129.558
 20
97.9277
 30
0
 10
129.498
 20
97.9277
 30
0
 10
129.437
 20
97.9277
 30
0
 10
129.383
 20
97.9277
 30
0
 10
129.329
 20
97.9277
 30
0
 10
129.282
 20
97.9277
 30
0
 10
129.235
 20
97.9277
 30
0
 10
129.195
 20
97.9277
 30
0
 10
129.156
 20
97.9277
 30
0
 10
129.125
 20
97.9277
 30
0
 10
129.094
 20
97.9277
 30
0
 10
129.071
 20
97.9277
 30
0
 10
129.049
 20
97.9277
 30
0
 10
129.035
 20
97.9277
 30
0
 10
129.022
 20
97.9277
 30
0
 10
129.017
 20
97.9277
 30
0
 10
129.012
 20
97.9277
 30
0
  0
LINE
  5
ACC
330
A02
100
AcDbEntity
  8
SectionView007
100
AcDbLine
 10
179.462
 20
97.9277
 30
0
 11
179.462
 21
90.9277
 31
0
  0
LINE
  5
ACD
330
A02
100
AcDbEntity
  8
SectionView007
100
AcDbLine
 10
130.462
 20
97.9277
 30
0
 11
130.462
 21
90.9277
 31
0
  0
ARC
  5
ACE
330
A02
100
AcDbEntity
  8
View009
100
AcDbCircle
 10
249.892
 20
124.329
 30
0
 40
24.5
100
AcDbArc
 50
160.537
 51
-180
  0
ARC
  5
ACF
330
A02
100
AcDbEntity
  8
View009
100
AcDbCircle
 10
249.892
 20
124.329
 30
0
 40
24.5
100
AcDbArc
 50
152.34
 51
160.537
  0
ARC
  5
AD0
330
A02
100
AcDbEntity
  8
View009
100
AcDbCircle
 10
249.892
 20
124.329
 30
0
 40
24.5
100
AcDbArc
 50
145.952
 51
152.34
  0
ARC
  5
AD1
330
A02
100
AcDbEntity
  8
View009
100
AcDbCircle
 10
249.892
 20
124.329
 30
0
 40
24.5
100
AcDbArc
 50
140.482
 51
145.952
  0
ARC
  5
AD2
330
A02
100
AcDbEntity
  8
View009
100
AcDbCircle
 10
249.892
 20
124.329
 30
0
 40
24.5
100
AcDbArc
 50
135.585
 51
140.482
  0
ARC
  5
AD3
330
A02
100
AcDbEntity
  8
View009
100
AcDbCircle
 10
249.892
 20
124.329
 30
0
 40
24.5
100
AcDbArc
 50
131.082
 51
135.585
  0
ARC
  5
AD4
330
A02
100
AcDbEntity
  8
View009
100
AcDbCircle
 10
249.892
 20
124.329
 30
0
 40
24.5
100
AcDbArc
 50
126.87
 51
131.082
  0
ARC
  5
AD5
330
A02
100
AcDbEntity
  8
View009
100
AcDbCircle
 10
249.892
 20
124.329
 30
0
 40
24.5
100
AcDbArc
 50
122.878
 51
126.87
  0
ARC
  5
AD6
330
A02
100
AcDbEntity
  8
View009
100
AcDbCircle
 10
249.892
 20
124.329
 30
0
 40
24.5
100
AcDbArc
 50
119.059
 51
122.878
  0
ARC
  5
AD7
330
A02
100
AcDbEntity
  8
View009
100
AcDbCircle
 10
249.892
 20
124.329
 30
0
 40
24.5
100
AcDbArc
 50
115.377
 51
119.059
  0
ARC
  5
AD8
330
A02
100
AcDbEntity
  8
View009
100
AcDbCircle
 10
249.892
 20
124.329
 30
0
 40
24.5
100
AcDbArc
 50
111.804
 51
115.377
  0
ARC
  5
AD9
330
A02
100
AcDbEntity
  8
View009
100
AcDbCircle
 10
249.892
 20
124.329
 30
0
 40
24.5
100
AcDbArc
 50
108.318
 51
111.804
  0
ARC
  5
ADA
330
A02
100
AcDbEntity
  8
View009
100
AcDbCircle
 10
249.892
 20
124.329
 30
0
 40
24.5
100
AcDbArc
 50
104.901
 51
108.318
  0
ARC
  5
ADB
330
A02
100
AcDbEntity
  8
View009
100
AcDbCircle
 10
249.892
 20
124.329
 30
0
 40
24.5
100
AcDbArc
 50
101.537
 51
104.901
  0
ARC
  5
ADC
330
A02
100
AcDbEntity
  8
View009
100
AcDbCircle
 10
249.892
 20
124.329
 30
0
 40
24.5
100
AcDbArc
 50
98.2132
 51
101.537
  0
ARC
  5
ADD
330
A02
100
AcDbEntity
  8
View009
100
AcDbCircle
 10
249.892
 20
124.329
 30
0
 40
24.5
100
AcDbArc
 50
94.9171
 51
98.2132
  0
ARC
  5
ADE
330
A02
100
AcDbEntity
  8
View009
100
AcDbCircle
 10
249.892
 20
124.329
 30
0
 40
24.5
100
AcDbArc
 50
91.6372
 51
94.9171
  0
ARC
  5
ADF
330
A02
100
AcDbEntity
  8
View009
100
AcDbCircle
 10
249.892
 20
124.329
 30
0
 40
24.5
100
AcDbArc
 50
90
 51
91.6372
  0
ARC
  5
AE0
330
A02
100
AcDbEntity
  8
View009
100
AcDbCircle
 10
249.892
 20
124.329
 30
0
 40
24.5
100
AcDbArc
 50
88.3628
 51
90
  0
ARC
  5
AE1
330
A02
100
AcDbEntity
  8
View009
100
AcDbCircle
 10
249.892
 20
124.329
 30
0
 40
24.5
100
AcDbArc
 50
85.0829
 51
88.3628
  0
ARC
  5
AE2
330
A02
100
AcDbEntity
  8
View009
100
AcDbCircle
 10
249.892
 20
124.329
 30
0
 40
24.5
100
AcDbArc
 50
81.7868
 51
85.0829
  0
ARC
  5
AE3
330
A02
100
AcDbEntity
  8
View009
100
AcDbCircle
 10
249.892
 20
124.329
 30
0
 40
24.5
100
AcDbArc
 50
78.463
 51
81.7868
  0
ARC
  5
AE4
330
A02
100
AcDbEntity
  8
View009
100
AcDbCircle
 10
249.892
 20
124.329
 30
0
 40
24.5
100
AcDbArc
 50
75.0994
 51
78.463
  0
ARC
  5
AE5
330
A02
100
AcDbEntity
  8
View009
100
AcDbCircle
 10
249.892
 20
124.329
 30
0
 40
24.5
100
AcDbArc
 50
71.6823
 51
75.0994
  0
ARC
  5
AE6
330
A02
100
AcDbEntity
  8
View009
100
AcDbCircle
 10
249.892
 20
124.329
 30
0
 40
24.5
100
AcDbArc
 50
68.1963
 51
71.6823
  0
ARC
  5
AE7
330
A02
100
AcDbEntity
  8
View009
100
AcDbCircle
 10
249.892
 20
124.329
 30
0
 40
24.5
100
AcDbArc
 50
64.6231
 51
68.1963
  0
ARC
  5
AE8
330
A02
100
AcDbEntity
  8
View009
100
AcDbCircle
 10
249.892
 20
124.329
 30
0
 40
24.5
100
AcDbArc
 50
60.9407
 51
64.6231
  0
ARC
  5
AE9
330
A02
100
AcDbEntity
  8
View009
100
AcDbCircle
 10
249.892
 20
124.329
 30
0
 40
24.5
100
AcDbArc
 50
57.1217
 51
60.9407
  0
ARC
  5
AEA
330
A02
100
AcDbEntity
  8
View009
100
AcDbCircle
 10
249.892
 20
124.329
 30
0
 40
24.5
100
AcDbArc
 50
53.1301
 51
57.1217
  0
ARC
  5
AEB
330
A02
100
AcDbEntity
  8
View009
100
AcDbCircle
 10
249.892
 20
124.329
 30
0
 40
24.5
100
AcDbArc
 50
48.9177
 51
53.1301
  0
ARC
  5
AEC
330
A02
100
AcDbEntity
  8
View009
100
AcDbCircle
 10
249.892
 20
124.329
 30
0
 40
24.5
100
AcDbArc
 50
44.4153
 51
48.9177
  0
ARC
  5
AED
330
A02
100
AcDbEntity
  8
View009
100
AcDbCircle
 10
249.892
 20
124.329
 30
0
 40
24.5
100
AcDbArc
 50
39.5177
 51
44.4153
  0
ARC
  5
AEE
330
A02
100
AcDbEntity
  8
View009
100
AcDbCircle
 10
249.892
 20
124.329
 30
0
 40
24.5
100
AcDbArc
 50
34.0477
 51
39.5177
  0
ARC
  5
AEF
330
A02
100
AcDbEntity
  8
View009
100
AcDbCircle
 10
249.892
 20
124.329
 30
0
 40
24.5
100
AcDbArc
 50
27.6604
 51
34.0477
  0
ARC
  5
AF0
330
A02
100
AcDbEntity
  8
View009
100
AcDbCircle
 10
249.892
 20
124.329
 30
0
 40
24.5
100
AcDbArc
 50
19.463
 51
27.6604
  0
ARC
  5
AF1
330
A02
100
AcDbEntity
  8
View009
100
AcDbCircle
 10
249.892
 20
124.329
 30
0
 40
24.5
100
AcDbArc
 50
0
 51
19.463
  0
LINE
  5
AF2
330
A02
100
AcDbEntity
  8
View009
100
AcDbLine
 10
225.392
 20
50.1289
 30
0
 11
225.392
 21
124.329
 31
0
  0
LINE
  5
AF3
330
A02
100
AcDbEntity
  8
View009
100
AcDbLine
 10
274.392
 20
124.329
 30
0
 11
274.392
 21
50.1289
 31
0
  0
ARC
  5
AF4
330
A02
100
AcDbEntity
  8
View009
100
AcDbCircle
 10
227.492
 20
50.1289
 30
0
 40
2.1
100
AcDbArc
 50
-109.471
 51
-90
  0
ARC
  5
AF5
330
A02
100
AcDbEntity
  8
View009
100
AcDbCircle
 10
227.492
 20
50.1289
 30
0
 40
2.1
100
AcDbArc
 50
180
 51
-109.471
  0
ARC
  5
AF6
330
A02
100
AcDbEntity
  8
View009
100
AcDbCircle
 10
272.292
 20
50.1289
 30
0
 40
2.1
100
AcDbArc
 50
-70.5288
 51
0
  0
ARC
  5
AF7
330
A02
100
AcDbEntity
  8
View009
100
AcDbCircle
 10
272.292
 20
50.1289
 30
0
 40
2.1
100
AcDbArc
 50
-90
 51
-70.5288
  0
LINE
  5
AF8
330
A02
100
AcDbEntity
  8
View009
100
AcDbLine
 10
271.592
 20
48.0289
 30
0
 11
272.292
 21
48.0289
 31
0
  0
LINE
  5
AF9
330
A02
100
AcDbEntity
  8
View009
100
AcDbLine
 10
271.592
 20
48.0289
 30
0
 11
270.192
 21
48.0289
 31
0
  0
LINE
  5
AFA
330
A02
100
AcDbEntity
  8
View009
100
AcDbLine
 10
268.792
 20
48.0289
 30
0
 11
270.192
 21
48.0289
 31
0
  0
LINE
  5
AFB
330
A02
100
AcDbEntity
  8
View009
100
AcDbLine
 10
268.792
 20
48.0289
 30
0
 11
267.392
 21
48.0289
 31
0
  0
LINE
  5
AFC
330
A02
100
AcDbEntity
  8
View009
100
AcDbLine
 10
265.992
 20
48.0289
 30
0
 11
267.392
 21
48.0289
 31
0
  0
LINE
  5
AFD
330
A02
100
AcDbEntity
  8
View009
100
AcDbLine
 10
265.992
 20
48.0289
 30
0
 11
264.592
 21
48.0289
 31
0
  0
LINE
  5
AFE
330
A02
100
AcDbEntity
  8
View009
100
AcDbLine
 10
263.192
 20
48.0289
 30
0
 11
264.592
 21
48.0289
 31
0
  0
LINE
  5
AFF
330
A02
100
AcDbEntity
  8
View009
100
AcDbLine
 10
263.192
 20
48.0289
 30
0
 11
261.792
 21
48.0289
 31
0
  0
LINE
  5
B00
330
A02
100
AcDbEntity
  8
View009
100
AcDbLine
 10
260.392
 20
48.0289
 30
0
 11
261.792
 21
48.0289
 31
0
  0
LINE
  5
B01
330
A02
100
AcDbEntity
  8
View009
100
AcDbLine
 10
260.392
 20
48.0289
 30
0
 11
258.992
 21
48.0289
 31
0
  0
LINE
  5
B02
330
A02
100
AcDbEntity
  8
View009
100
AcDbLine
 10
257.592
 20
48.0289
 30
0
 11
258.992
 21
48.0289
 31
0
  0
LINE
  5
B03
330
A02
100
AcDbEntity
  8
View009
100
AcDbLine
 10
257.592
 20
48.0289
 30
0
 11
256.192
 21
48.0289
 31
0
  0
LINE
  5
B04
330
A02
100
AcDbEntity
  8
View009
100
AcDbLine
 10
254.792
 20
48.0289
 30
0
 11
256.192
 21
48.0289
 31
0
  0
LINE
  5
B05
330
A02
100
AcDbEntity
  8
View009
100
AcDbLine
 10
254.792
 20
48.0289
 30
0
 11
253.392
 21
48.0289
 31
0
  0
LINE
  5
B06
330
A02
100
AcDbEntity
  8
View009
100
AcDbLine
 10
251.992
 20
48.0289
 30
0
 11
253.392
 21
48.0289
 31
0
  0
LINE
  5
B07
330
A02
100
AcDbEntity
  8
View009
100
AcDbLine
 10
251.992
 20
48.0289
 30
0
 11
250.592
 21
48.0289
 31
0
  0
LINE
  5
B08
330
A02
100
AcDbEntity
  8
View009
100
AcDbLine
 10
249.192
 20
48.0289
 30
0
 11
250.592
 21
48.0289
 31
0
  0
LINE
  5
B09
330
A02
100
AcDbEntity
  8
View009
100
AcDbLine
 10
249.192
 20
48.0289
 30
0
 11
247.792
 21
48.0289
 31
0
  0
LINE
  5
B0A
330
A02
100
AcDbEntity
  8
View009
100
AcDbLine
 10
246.392
 20
48.0289
 30
0
 11
247.792
 21
48.0289
 31
0
  0
LINE
  5
B0B
330
A02
100
AcDbEntity
  8
View009
100
AcDbLine
 10
246.392
 20
48.0289
 30
0
 11
244.992
 21
48.0289
 31
0
  0
LINE
  5
B0C
330
A02
100
AcDbEntity
  8
View009
100
AcDbLine
 10
243.592
 20
48.0289
 30
0
 11
244.992
 21
48.0289
 31
0
  0
LINE
  5
B0D
330
A02
100
AcDbEntity
  8
View009
100
AcDbLine
 10
243.592
 20
48.0289
 30
0
 11
242.192
 21
48.0289
 31
0
  0
LINE
  5
B0E
330
A02
100
AcDbEntity
  8
View009
100
AcDbLine
 10
240.792
 20
48.0289
 30
0
 11
242.192
 21
48.0289
 31
0
  0
LINE
  5
B0F
330
A02
100
AcDbEntity
  8
View009
100
AcDbLine
 10
240.792
 20
48.0289
 30
0
 11
239.392
 21
48.0289
 31
0
  0
LINE
  5
B10
330
A02
100
AcDbEntity
  8
View009
100
AcDbLine
 10
237.992
 20
48.0289
 30
0
 11
239.392
 21
48.0289
 31
0
  0
LINE
  5
B11
330
A02
100
AcDbEntity
  8
View009
100
AcDbLine
 10
237.992
 20
48.0289
 30
0
 11
236.592
 21
48.0289
 31
0
  0
LINE
  5
B12
330
A02
100
AcDbEntity
  8
View009
100
AcDbLine
 10
235.192
 20
48.0289
 30
0
 11
236.592
 21
48.0289
 31
0
  0
LINE
  5
B13
330
A02
100
AcDbEntity
  8
View009
100
AcDbLine
 10
235.192
 20
48.0289
 30
0
 11
233.792
 21
48.0289
 31
0
  0
LINE
  5
B14
330
A02
100
AcDbEntity
  8
View009
100
AcDbLine
 10
232.392
 20
48.0289
 30
0
 11
233.792
 21
48.0289
 31
0
  0
LINE
  5
B15
330
A02
100
AcDbEntity
  8
View009
100
AcDbLine
 10
232.392
 20
48.0289
 30
0
 11
230.992
 21
48.0289
 31
0
  0
LINE
  5
B16
330
A02
100
AcDbEntity
  8
View009
100
AcDbLine
 10
229.592
 20
48.0289
 30
0
 11
230.992
 21
48.0289
 31
0
  0
LINE
  5
B17
330
A02
100
AcDbEntity
  8
View009
100
AcDbLine
 10
229.592
 20
48.0289
 30
0
 11
228.192
 21
48.0289
 31
0
  0
LINE
  5
B18
330
A02
100
AcDbEntity
  8
View009
100
AcDbLine
 10
227.492
 20
48.0289
 30
0
 11
228.192
 21
48.0289
 31
0
  0
CIRCLE
  5
B19
330
A02
100
AcDbEntity
  8
View009
100
AcDbCircle
 10
228.227
 20
51.4589
 40
1.05
  0
CIRCLE
  5
B1A
330
A02
100
AcDbEntity
  8
View009
100
AcDbCircle
 10
228.227
 20
120.899
 40
1.05
  0
CIRCLE
  5
B1B
330
A02
100
AcDbEntity
  8
View009
100
AcDbCircle
 10
271.557
 20
51.4589
 40
1.05
  0
CIRCLE
  5
B1C
330
A02
100
AcDbEntity
  8
View009
100
AcDbCircle
 10
271.557
 20
120.899
 40
1.05
  0
LINE
  5
B1D
330
A02
100
AcDbEntity
  8
View009
100
AcDbLine
 10
226.792
 20
49.9257
 30
0
 11
226.792
 21
48.149
 31
0
  0
ARC
  5
B1E
330
A02
100
AcDbEntity
  8
View009
100
AcDbCircle
 10
228.227
 20
51.4589
 30
0
 40
2.1
100
AcDbArc
 50
133.105
 51
-133.105
  0
LINE
  5
B1F
330
A02
100
AcDbEntity
  8
View009
100
AcDbLine
 10
226.792
 20
119.366
 30
0
 11
226.792
 21
52.9922
 31
0
  0
ARC
  5
B20
330
A02
100
AcDbEntity
  8
View009
100
AcDbCircle
 10
228.227
 20
120.899
 30
0
 40
2.1
100
AcDbArc
 50
133.105
 51
-133.105
  0
LINE
  5
B21
330
A02
100
AcDbEntity
  8
View009
100
AcDbLine
 10
226.792
 20
132.492
 30
0
 11
226.792
 21
122.432
 31
0
  0
ARC
  5
B22
330
A02
100
AcDbEntity
  8
View009
100
AcDbCircle
 10
228.227
 20
120.899
 30
0
 40
2.1
100
AcDbArc
 50
90.955
 51
133.105
  0
LINE
  5
B23
330
A02
100
AcDbEntity
  8
View009
100
AcDbLine
 10
228.192
 20
122.999
 30
0
 11
228.192
 21
135.703
 31
0
  0
ARC
  5
B24
330
A02
100
AcDbEntity
  8
View009
100
AcDbCircle
 10
228.227
 20
120.899
 30
0
 40
2.1
100
AcDbArc
 50
49.4584
 51
90.955
  0
LINE
  5
B25
330
A02
100
AcDbEntity
  8
View009
100
AcDbLine
 10
229.592
 20
138.046
 30
0
 11
229.592
 21
122.495
 31
0
  0
ARC
  5
B26
330
A02
100
AcDbEntity
  8
View009
100
AcDbCircle
 10
228.227
 20
120.899
 30
0
 40
2.1
100
AcDbArc
 50
-49.4584
 51
49.4584
  0
ARC
  5
B27
330
A02
100
AcDbEntity
  8
View009
100
AcDbCircle
 10
228.227
 20
51.4589
 30
0
 40
2.1
100
AcDbArc
 50
-49.4584
 51
49.4584
  0
LINE
  5
B28
330
A02
100
AcDbEntity
  8
View009
100
AcDbLine
 10
230.992
 20
48.0289
 30
0
 11
230.992
 21
139.919
 31
0
  0
LINE
  5
B29
330
A02
100
AcDbEntity
  8
View009
100
AcDbLine
 10
232.392
 20
141.475
 30
0
 11
232.392
 21
48.0289
 31
0
  0
LINE
  5
B2A
330
A02
100
AcDbEntity
  8
View009
100
AcDbLine
 10
233.792
 20
48.0289
 30
0
 11
233.792
 21
142.796
 31
0
  0
LINE
  5
B2B
330
A02
100
AcDbEntity
  8
View009
100
AcDbLine
 10
235.192
 20
143.929
 30
0
 11
235.192
 21
48.0289
 31
0
  0
LINE
  5
B2C
330
A02
100
AcDbEntity
  8
View009
100
AcDbLine
 10
236.592
 20
48.0289
 30
0
 11
236.592
 21
144.905
 31
0
  0
LINE
  5
B2D
330
A02
100
AcDbEntity
  8
View009
100
AcDbLine
 10
237.992
 20
145.745
 30
0
 11
237.992
 21
48.0289
 31
0
  0
LINE
  5
B2E
330
A02
100
AcDbEntity
  8
View009
100
AcDbLine
 10
239.392
 20
48.0289
 30
0
 11
239.392
 21
146.465
 31
0
  0
LINE
  5
B2F
330
A02
100
AcDbEntity
  8
View009
100
AcDbLine
 10
240.792
 20
147.076
 30
0
 11
240.792
 21
48.0289
 31
0
  0
LINE
  5
B30
330
A02
100
AcDbEntity
  8
View009
100
AcDbLine
 10
242.192
 20
48.0289
 30
0
 11
242.192
 21
147.587
 31
0
  0
LINE
  5
B31
330
A02
100
AcDbEntity
  8
View009
100
AcDbLine
 10
243.592
 20
148.005
 30
0
 11
243.592
 21
48.0289
 31
0
  0
LINE
  5
B32
330
A02
100
AcDbEntity
  8
View009
100
AcDbLine
 10
244.992
 20
48.0289
 30
0
 11
244.992
 21
148.334
 31
0
  0
LINE
  5
B33
330
A02
100
AcDbEntity
  8
View009
100
AcDbLine
 10
246.392
 20
148.578
 30
0
 11
246.392
 21
48.0289
 31
0
  0
LINE
  5
B34
330
A02
100
AcDbEntity
  8
View009
100
AcDbLine
 10
247.792
 20
48.0289
 30
0
 11
247.792
 21
148.739
 31
0
  0
LINE
  5
B35
330
A02
100
AcDbEntity
  8
View009
100
AcDbLine
 10
249.192
 20
148.819
 30
0
 11
249.192
 21
48.0289
 31
0
  0
LINE
  5
B36
330
A02
100
AcDbEntity
  8
View009
100
AcDbLine
 10
250.592
 20
48.0289
 30
0
 11
250.592
 21
148.819
 31
0
  0
LINE
  5
B37
330
A02
100
AcDbEntity
  8
View009
100
AcDbLine
 10
251.992
 20
148.739
 30
0
 11
251.992
 21
48.0289
 31
0
  0
LINE
  5
B38
330
A02
100
AcDbEntity
  8
View009
100
AcDbLine
 10
253.392
 20
48.0289
 30
0
 11
253.392
 21
148.578
 31
0
  0
LINE
  5
B39
330
A02
100
AcDbEntity
  8
View009
100
AcDbLine
 10
254.792
 20
148.334
 30
0
 11
254.792
 21
48.0289
 31
0
  0
LINE
  5
B3A
330
A02
100
AcDbEntity
  8
View009
100
AcDbLine
 10
256.192
 20
48.0289
 30
0
 11
256.192
 21
148.005
 31
0
  0
LINE
  5
B3B
330
A02
100
AcDbEntity
  8
View009
100
AcDbLine
 10
257.592
 20
147.587
 30
0
 11
257.592
 21
48.0289
 31
0
  0
LINE
  5
B3C
330
A02
100
AcDbEntity
  8
View009
100
AcDbLine
 10
258.992
 20
48.0289
 30
0
 11
258.992
 21
147.076
 31
0
  0
LINE
  5
B3D
330
A02
100
AcDbEntity
  8
View009
100
AcDbLine
 10
260.392
 20
146.465
 30
0
 11
260.392
 21
48.0289
 31
0
  0
LINE
  5
B3E
330
A02
100
AcDbEntity
  8
View009
100
AcDbLine
 10
261.792
 20
48.0289
 30
0
 11
261.792
 21
145.745
 31
0
  0
LINE
  5
B3F
330
A02
100
AcDbEntity
  8
View009
100
AcDbLine
 10
263.192
 20
144.905
 30
0
 11
263.192
 21
48.0289
 31
0
  0
LINE
  5
B40
330
A02
100
AcDbEntity
  8
View009
100
AcDbLine
 10
264.592
 20
48.0289
 30
0
 11
264.592
 21
143.929
 31
0
  0
LINE
  5
B41
330
A02
100
AcDbEntity
  8
View009
100
AcDbLine
 10
265.992
 20
142.796
 30
0
 11
265.992
 21
48.0289
 31
0
  0
LINE
  5
B42
330
A02
100
AcDbEntity
  8
View009
100
AcDbLine
 10
267.392
 20
48.0289
 30
0
 11
267.392
 21
141.475
 31
0
  0
LINE
  5
B43
330
A02
100
AcDbEntity
  8
View009
100
AcDbLine
 10
268.792
 20
139.919
 30
0
 11
268.792
 21
48.0289
 31
0
  0
ARC
  5
B44
330
A02
100
AcDbEntity
  8
View009
100
AcDbCircle
 10
271.557
 20
51.4589
 30
0
 40
2.1
100
AcDbArc
 50
130.542
 51
-130.542
  0
ARC
  5
B45
330
A02
100
AcDbEntity
  8
View009
100
AcDbCircle
 10
271.557
 20
120.899
 30
0
 40
2.1
100
AcDbArc
 50
130.542
 51
-130.542
  0
LINE
  5
B46
330
A02
100
AcDbEntity
  8
View009
100
AcDbLine
 10
270.192
 20
122.495
 30
0
 11
270.192
 21
138.046
 31
0
  0
ARC
  5
B47
330
A02
100
AcDbEntity
  8
View009
100
AcDbCircle
 10
271.557
 20
120.899
 30
0
 40
2.1
100
AcDbArc
 50
89.045
 51
130.542
  0
LINE
  5
B48
330
A02
100
AcDbEntity
  8
View009
100
AcDbLine
 10
271.592
 20
135.703
 30
0
 11
271.592
 21
122.999
 31
0
  0
ARC
  5
B49
330
A02
100
AcDbEntity
  8
View009
100
AcDbCircle
 10
271.557
 20
120.899
 30
0
 40
2.1
100
AcDbArc
 50
46.8953
 51
89.045
  0
LINE
  5
B4A
330
A02
100
AcDbEntity
  8
View009
100
AcDbLine
 10
272.992
 20
122.432
 30
0
 11
272.992
 21
132.492
 31
0
  0
ARC
  5
B4B
330
A02
100
AcDbEntity
  8
View009
100
AcDbCircle
 10
271.557
 20
120.899
 30
0
 40
2.1
100
AcDbArc
 50
-46.8953
 51
46.8953
  0
LINE
  5
B4C
330
A02
100
AcDbEntity
  8
View009
100
AcDbLine
 10
272.992
 20
52.9922
 30
0
 11
272.992
 21
119.366
 31
0
  0
ARC
  5
B4D
330
A02
100
AcDbEntity
  8
View009
100
AcDbCircle
 10
271.557
 20
51.4589
 30
0
 40
2.1
100
AcDbArc
 50
-46.8953
 51
46.8953
  0
LINE
  5
B4E
330
A02
100
AcDbEntity
  8
View009
100
AcDbLine
 10
272.992
 20
48.149
 30
0
 11
272.992
 21
49.9257
 31
0
  0
ARC
  5
B4F
330
A02
100
AcDbEntity
  8
View009
100
AcDbCircle
 10
228.227
 20
51.4589
 30
0
 40
2.1
100
AcDbArc
 50
-133.105
 51
-90.955
  0
ARC
  5
B50
330
A02
100
AcDbEntity
  8
View009
100
AcDbCircle
 10
271.557
 20
51.4589
 30
0
 40
2.1
100
AcDbArc
 50
-89.045
 51
-46.8953
  0
LINE
  5
B51
330
A02
100
AcDbEntity
  8
View009
100
AcDbLine
 10
271.592
 20
49.3592
 30
0
 11
271.592
 21
48.0289
 31
0
  0
ARC
  5
B52
330
A02
100
AcDbEntity
  8
View009
100
AcDbCircle
 10
271.557
 20
51.4589
 30
0
 40
2.1
100
AcDbArc
 50
-90
 51
-89.045
  0
ARC
  5
B53
330
A02
100
AcDbEntity
  8
View009
100
AcDbCircle
 10
271.557
 20
51.4589
 30
0
 40
2.1
100
AcDbArc
 50
-130.542
 51
-90
  0
LINE
  5
B54
330
A02
100
AcDbEntity
  8
View009
100
AcDbLine
 10
270.192
 20
48.0289
 30
0
 11
270.192
 21
49.8631
 31
0
  0
LINE
  5
B55
330
A02
100
AcDbEntity
  8
View009
100
AcDbLine
 10
229.592
 20
49.8631
 30
0
 11
229.592
 21
48.0289
 31
0
  0
ARC
  5
B56
330
A02
100
AcDbEntity
  8
View009
100
AcDbCircle
 10
228.227
 20
51.4589
 30
0
 40
2.1
100
AcDbArc
 50
-90
 51
-49.4584
  0
ARC
  5
B57
330
A02
100
AcDbEntity
  8
View009
100
AcDbCircle
 10
228.227
 20
51.4589
 30
0
 40
2.1
100
AcDbArc
 50
-90.955
 51
-90
  0
LINE
  5
B58
330
A02
100
AcDbEntity
  8
View009
100
AcDbLine
 10
228.192
 20
48.0289
 30
0
 11
228.192
 21
49.3592
 31
0
  0
ARC
  5
B59
330
A02
100
AcDbEntity
  8
View009
100
AcDbCircle
 10
228.227
 20
51.4589
 30
0
 40
2.1
100
AcDbArc
 50
90.955
 51
133.105
  0
ARC
  5
B5A
330
A02
100
AcDbEntity
  8
View009
100
AcDbCircle
 10
228.227
 20
51.4589
 30
0
 40
2.1
100
AcDbArc
 50
49.4584
 51
90.955
  0
ARC
  5
B5B
330
A02
100
AcDbEntity
  8
View009
100
AcDbCircle
 10
228.227
 20
120.899
 30
0
 40
2.1
100
AcDbArc
 50
-90.955
 51
-90
  0
ARC
  5
B5C
330
A02
100
AcDbEntity
  8
View009
100
AcDbCircle
 10
228.227
 20
120.899
 30
0
 40
2.1
100
AcDbArc
 50
-133.105
 51
-90.955
  0
ARC
  5
B5D
330
A02
100
AcDbEntity
  8
View009
100
AcDbCircle
 10
228.227
 20
120.899
 30
0
 40
2.1
100
AcDbArc
 50
-90
 51
-49.4584
  0
LINE
  5
B5E
330
A02
100
AcDbEntity
  8
View009
100
AcDbLine
 10
229.592
 20
119.303
 30
0
 11
229.592
 21
53.0548
 31
0
  0
ARC
  5
B5F
330
A02
100
AcDbEntity
  8
View009
100
AcDbCircle
 10
271.557
 20
51.4589
 30
0
 40
2.1
100
AcDbArc
 50
89.045
 51
130.542
  0
ARC
  5
B60
330
A02
100
AcDbEntity
  8
View009
100
AcDbCircle
 10
271.557
 20
51.4589
 30
0
 40
2.1
100
AcDbArc
 50
46.8953
 51
89.045
  0
LINE
  5
B61
330
A02
100
AcDbEntity
  8
View009
100
AcDbLine
 10
270.192
 20
53.0548
 30
0
 11
270.192
 21
119.303
 31
0
  0
ARC
  5
B62
330
A02
100
AcDbEntity
  8
View009
100
AcDbCircle
 10
271.557
 20
120.899
 30
0
 40
2.1
100
AcDbArc
 50
-130.542
 51
-90
  0
ARC
  5
B63
330
A02
100
AcDbEntity
  8
View009
100
AcDbCircle
 10
271.557
 20
120.899
 30
0
 40
2.1
100
AcDbArc
 50
-89.045
 51
-46.8953
  0
ARC
  5
B64
330
A02
100
AcDbEntity
  8
View009
100
AcDbCircle
 10
271.557
 20
120.899
 30
0
 40
2.1
100
AcDbArc
 50
-90
 51
-89.045
  0
LINE
  5
B65
330
A02
100
AcDbEntity
  8
View009
100
AcDbLine
 10
228.192
 20
53.5587
 30
0
 11
228.192
 21
118.799
 31
0
  0
LINE
  5
B66
330
A02
100
AcDbEntity
  8
View009
100
AcDbLine
 10
271.592
 20
118.799
 30
0
 11
271.592
 21
53.5587
 31
0
  0
DIMENSION
  5
B67
330
A02
100
AcDbEntity
  8
Dimension047
100
AcDbDimension
  2
*Dimension047
 10
28.9013
 20
85.9888
 30
0
 11
23.9032
 21
86.1264
 31
0
 70
32
  1
109
  3
STANDARD
100
AcDbAlignedDimension
 13
46.4269
 23
124.331
 33
0
 14
48.5269
 24
48.0313
 34
0
 50
90
100
AcDbRotatedDimension
  0
DIMENSION
  5
B71
330
A02
100
AcDbEntity
  8
Dimension050
100
AcDbDimension
  2
*Dimension050
 10
230.177
 20
144.621
 30
0
 11
212.333
 21
46.3033
 31
0
 70
3
  1
⌀6
  3
STANDARD
100
AcDbDiametricDimension
 15
226.276
 25
146.177
 35
0
 40
0
  0
DIMENSION
  5
B79
330
A02
100
AcDbEntity
  8
Dimension051
100
AcDbDimension
  2
*Dimension051
 10
70.3319
 20
158.582
 30
0
 11
70.3319
 21
163.582
 31
0
 70
32
  1
70
  3
STANDARD
100
AcDbAlignedDimension
 13
46.4269
 23
124.331
 33
0
 14
95.4269
 24
124.331
 34
0
100
AcDbRotatedDimension
  0
LINE
  5
B83
330
A02
100
AcDbEntity
  8
View011
100
AcDbLine
 10
177.162
 20
156.2
 30
0
 11
177.103
 21
157.521
 31
0
  0
LINE
  5
B84
330
A02
100
AcDbEntity
  8
View011
100
AcDbLine
 10
172.023
 20
152.493
 30
0
 11
171.964
 21
153.814
 31
0
  0
LINE
  5
B85
330
A02
100
AcDbEntity
  8
View011
100
AcDbLine
 10
172.023
 20
152.493
 30
0
 11
177.162
 21
156.2
 31
0
  0
SPLINE
  5
B86
330
A02
100
AcDbEntity
  8
View011
100
AcDbSpline
210
0
220
0
230
1
 70
8
 71
1
 72
4
 73
2
 74
0
 40
3.82557
 40
3.82557
 40
3.82649
 40
3.82649
 10
171.641
 20
160.887
 30
0
 10
171.641
 20
160.887
 30
0
  0
SPLINE
  5
B87
330
A02
100
AcDbEntity
  8
View011
100
AcDbSpline
210
0
220
0
230
1
 70
8
 71
3
 72
8
 73
4
 74
0
 40
3.82649
 40
3.82649
 40
3.82649
 40
3.82649
 40
4.71239
 40
4.71239
 40
4.71239
 40
4.71239
 10
171.641
 20
160.887
 30
0
 10
171.641
 20
160.888
 30
0
 10
171.645
 20
160.805
 30
0
 10
171.651
 20
160.668
 30
0
  0
SPLINE
  5
B88
330
A02
100
AcDbEntity
  8
View011
100
AcDbSpline
210
0
220
0
230
1
 70
8
 71
3
 72
8
 73
4
 74
0
 40
0
 40
0
 40
0
 40
0
 40
0.684898
 40
0.684898
 40
0.684898
 40
0.684898
 10
177.103
 20
157.521
 30
0
 10
177.1
 20
157.608
 30
0
 10
177.039
 20
157.691
 30
0
 10
176.934
 20
157.753
 30
0
  0
SPLINE
  5
B89
330
A02
100
AcDbEntity
  8
View011
100
AcDbSpline
210
0
220
0
230
1
 70
8
 71
3
 72
8
 73
4
 74
0
 40
0.684898
 40
0.684898
 40
0.684898
 40
0.684898
 40
1.5708
 40
1.5708
 40
1.5708
 40
1.5708
 10
176.934
 20
157.753
 30
0
 10
176.798
 20
157.834
 30
0
 10
176.589
 20
157.877
 30
0
 10
176.38
 20
157.867
 30
0
  0
ELLIPSE
  5
B8A
330
A02
100
AcDbEntity
  8
View011
100
AcDbEllipse
 10
185.73
 20
156.527
 30
0
 11
1.24878
 21
0.0552906
 31
0
 40
0.654867
 41
3.92793
 42
5.4068
  0
LINE
  5
B8B
330
A02
100
AcDbEntity
  8
View011
100
AcDbLine
 10
184.873
 20
155.909
 30
0
 11
168.14
 21
165.819
 31
0
  0
ELLIPSE
  5
B8C
330
A02
100
AcDbEntity
  8
View011
100
AcDbEllipse
 10
168.996
 20
166.437
 30
0
 11
1.24878
 21
0.0552906
 31
0
 40
0.654867
 41
2.35713
 42
3.14159
  0
ELLIPSE
  5
B8D
330
A02
100
AcDbEntity
  8
View011
100
AcDbEllipse
 10
168.996
 20
166.437
 30
0
 11
1.24878
 21
0.0552906
 31
0
 40
0.654867
 41
3.14159
 42
3.92793
  0
LINE
  5
B8E
330
A02
100
AcDbEntity
  8
View011
100
AcDbLine
 10
168.087
 20
166.975
 30
0
 11
168.601
 21
167.346
 31
0
  0
ELLIPSE
  5
B8F
330
A02
100
AcDbEntity
  8
View011
100
AcDbEllipse
 10
167.691
 20
167.885
 30
0
 11
1.24878
 21
0.0552906
 31
0
 40
0.654867
 41
5.49872
 42
0
  0
ELLIPSE
  5
B90
330
A02
100
AcDbEntity
  8
View011
100
AcDbEllipse
 10
167.691
 20
167.885
 30
0
 11
1.24878
 21
0.0552906
 31
0
 40
0.654867
 41
0
 42
0.786334
  0
ELLIPSE
  5
B91
330
A02
100
AcDbEntity
  8
View011
100
AcDbEllipse
 10
188.437
 20
155.374
 30
0
 11
1.49853
 21
0.0663488
 31
0
 40
0.654867
 41
5.49872
 42
0
  0
ELLIPSE
  5
B92
330
A02
100
AcDbEntity
  8
View011
100
AcDbEllipse
 10
188.437
 20
155.374
 30
0
 11
1.49853
 21
0.0663488
 31
0
 40
0.654867
 41
0
 42
0.700845
  0
LINE
  5
B93
330
A02
100
AcDbEntity
  8
View011
100
AcDbLine
 10
168.548
 20
168.503
 30
0
 11
168.455
 21
168.557
 31
0
  0
LINE
  5
B94
330
A02
100
AcDbEntity
  8
View011
100
AcDbLine
 10
186.102
 20
152.256
 30
0
 11
189.528
 21
154.727
 31
0
  0
LINE
  5
B95
330
A02
100
AcDbEntity
  8
View011
100
AcDbLine
 10
163.919
 20
168.031
 30
0
 11
165.427
 21
169.119
 31
0
  0
ELLIPSE
  5
B96
330
A02
100
AcDbEntity
  8
View011
100
AcDbEllipse
 10
185.192
 20
152.795
 30
0
 11
1.24878
 21
0.0552906
 31
0
 40
0.654867
 41
3.92793
 42
5.49872
  0
LINE
  5
B97
330
A02
100
AcDbEntity
  8
View011
100
AcDbLine
 10
165.738
 20
166.953
 30
0
 11
163.919
 21
168.031
 31
0
  0
LINE
  5
B98
330
A02
100
AcDbEntity
  8
View011
100
AcDbLine
 10
183.79
 20
152.5
 30
0
 11
184.336
 21
152.177
 31
0
  0
ELLIPSE
  5
B99
330
A02
100
AcDbEntity
  8
View011
100
AcDbEllipse
 10
164.881
 20
166.336
 30
0
 11
1.24878
 21
0.0552906
 31
0
 40
0.654867
 41
5.49872
 42
0
  0
ELLIPSE
  5
B9A
330
A02
100
AcDbEntity
  8
View011
100
AcDbEllipse
 10
164.881
 20
166.336
 30
0
 11
1.24878
 21
0.0552906
 31
0
 40
0.654867
 41
0
 42
0.786334
  0
ELLIPSE
  5
B9B
330
A02
100
AcDbEntity
  8
View011
100
AcDbEllipse
 10
182.934
 20
151.882
 30
0
 11
1.24878
 21
0.0552906
 31
0
 40
0.654867
 41
0.786334
 42
2.35713
  0
LINE
  5
B9C
330
A02
100
AcDbEntity
  8
View011
100
AcDbLine
 10
165.448
 20
165.55
 30
0
 11
165.791
 21
165.797
 31
0
  0
LINE
  5
B9D
330
A02
100
AcDbEntity
  8
View011
100
AcDbLine
 10
175.172
 20
147.478
 30
0
 11
182.024
 21
152.421
 31
0
  0
ELLIPSE
  5
B9E
330
A02
100
AcDbEntity
  8
View011
100
AcDbEllipse
 10
164.539
 20
166.088
 30
0
 11
1.24878
 21
0.0552906
 31
0
 40
0.654867
 41
3.92793
 42
5.49872
  0
ELLIPSE
  5
B9F
330
A02
100
AcDbEntity
  8
View011
100
AcDbEllipse
 10
176.081
 20
146.939
 30
0
 11
1.24878
 21
0.0552906
 31
0
 40
0.654867
 41
2.35713
 42
3.14159
  0
ELLIPSE
  5
BA0
330
A02
100
AcDbEntity
  8
View011
100
AcDbEllipse
 10
176.081
 20
146.939
 30
0
 11
1.24878
 21
0.0552906
 31
0
 40
0.654867
 41
3.14159
 42
3.92793
  0
LINE
  5
BA1
330
A02
100
AcDbEntity
  8
View011
100
AcDbLine
 10
161.863
 20
166.548
 30
0
 11
163.682
 21
165.471
 31
0
  0
LINE
  5
BA2
330
A02
100
AcDbEntity
  8
View011
100
AcDbLine
 10
175.224
 20
146.321
 30
0
 11
175.77
 21
145.998
 31
0
  0
LINE
  5
BA3
330
A02
100
AcDbEntity
  8
View011
100
AcDbLine
 10
147.178
 20
155.955
 30
0
 11
148.639
 21
157.009
 31
0
  0
LINE
  5
BA4
330
A02
100
AcDbEntity
  8
View011
100
AcDbLine
 10
151.335
 20
158.954
 30
0
 11
154.906
 21
161.53
 31
0
  0
LINE
  5
BA5
330
A02
100
AcDbEntity
  8
View011
100
AcDbLine
 10
157.96
 20
163.732
 30
0
 11
161.863
 21
166.548
 31
0
  0
ELLIPSE
  5
BA6
330
A02
100
AcDbEntity
  8
View011
100
AcDbEllipse
 10
174.914
 20
145.38
 30
0
 11
1.24878
 21
0.0552906
 31
0
 40
0.654867
 41
5.49872
 42
0
  0
ELLIPSE
  5
BA7
330
A02
100
AcDbEntity
  8
View011
100
AcDbEllipse
 10
174.914
 20
145.38
 30
0
 11
1.24878
 21
0.0552906
 31
0
 40
0.654867
 41
0
 42
0.786334
  0
LINE
  5
BA8
330
A02
100
AcDbEntity
  8
View011
100
AcDbLine
 10
147.178
 20
155.955
 30
0
 11
170.278
 21
142.275
 31
0
  0
LINE
  5
BA9
330
A02
100
AcDbEntity
  8
View011
100
AcDbLine
 10
172.397
 20
142.37
 30
0
 11
175.823
 21
144.842
 31
0
  0
ELLIPSE
  5
BAA
330
A02
100
AcDbEntity
  8
View011
100
AcDbEllipse
 10
171.305
 20
143.016
 30
0
 11
1.49853
 21
0.0663488
 31
0
 40
0.654867
 41
3.92793
 42
5.49872
  0
ELLIPSE
  5
BAB
330
A02
100
AcDbEntity
  8
View011
100
AcDbEllipse
 10
188.084
 20
155.358
 30
0
 11
-1.49853
 21
-0.0663488
 31
0
 40
0.654867
 41
-0
 42
-3.14159
  0
LINE
  5
BAC
330
A02
100
AcDbEntity
  8
View011
100
AcDbLine
 10
166.566
 20
155.725
 30
0
 11
172.023
 21
152.493
 31
0
  0
ELLIPSE
  5
BAD
330
A02
100
AcDbEntity
  8
View011
100
AcDbEllipse
 10
166.985
 20
167.853
 30
0
 11
-1.49853
 21
-0.0663488
 31
0
 40
0.654867
 41
-0
 42
-3.14159
  0
LINE
  5
BAE
330
A02
100
AcDbEntity
  8
View011
100
AcDbLine
 10
161.837
 20
158.525
 30
0
 11
165.475
 21
156.371
 31
0
  0
LINE
  5
BAF
330
A02
100
AcDbEntity
  8
View011
100
AcDbLine
 10
165.475
 20
156.371
 30
0
 11
166.519
 21
157.124
 31
0
  0
ELLIPSE
  5
BB0
330
A02
100
AcDbEntity
  8
View011
100
AcDbEllipse
 10
171.295
 20
143.248
 30
0
 11
-1.49853
 21
-0.0663488
 31
0
 40
0.654867
 41
-0
 42
-3.14159
  0
LINE
  5
BB1
330
A02
100
AcDbEntity
  8
View011
100
AcDbLine
 10
154.969
 20
160.117
 30
0
 11
157.879
 21
158.394
 31
0
  0
LINE
  5
BB2
330
A02
100
AcDbEntity
  8
View011
100
AcDbLine
 10
157.879
 20
158.394
 30
0
 11
160.62
 21
160.371
 31
0
  0
ELLIPSE
  5
BB3
330
A02
100
AcDbEntity
  8
View011
100
AcDbEllipse
 10
150.196
 20
155.743
 30
0
 11
-1.49853
 21
-0.0663488
 31
0
 40
0.654867
 41
-0
 42
-3.14159
  0
LINE
  5
BB4
330
A02
100
AcDbEntity
  8
View011
100
AcDbLine
 10
166.566
 20
155.725
 30
0
 11
166.507
 21
157.046
 31
0
  0
SPLINE
  5
BB5
330
A02
100
AcDbEntity
  8
View011
100
AcDbSpline
210
0
220
0
230
1
 70
8
 71
3
 72
8
 73
4
 74
0
 40
0
 40
0
 40
0
 40
0
 40
1.5708
 40
1.5708
 40
1.5708
 40
1.5708
 10
171.964
 20
153.814
 30
0
 10
171.955
 20
154.011
 30
0
 10
171.937
 20
154.411
 30
0
 10
171.926
 20
154.654
 30
0
  0
SPLINE
  5
BB6
330
A02
100
AcDbEntity
  8
View011
100
AcDbSpline
210
0
220
0
230
1
 70
8
 71
3
 72
8
 73
4
 74
0
 40
0
 40
0
 40
0
 40
0
 40
0.683981
 40
0.683981
 40
0.683981
 40
0.683981
 10
166.507
 20
157.046
 30
0
 10
166.503
 20
157.132
 30
0
 10
166.557
 20
157.22
 30
0
 10
166.656
 20
157.291
 30
0
  0
SPLINE
  5
BB7
330
A02
100
AcDbEntity
  8
View011
100
AcDbSpline
210
0
220
0
230
1
 70
8
 71
3
 72
8
 73
4
 74
0
 40
0.683981
 40
0.683981
 40
0.683981
 40
0.683981
 40
1.5708
 40
1.5708
 40
1.5708
 40
1.5708
 10
166.656
 20
157.291
 30
0
 10
166.784
 20
157.384
 30
0
 10
166.988
 20
157.446
 30
0
 10
167.197
 20
157.455
 30
0
  0
ELLIPSE
  5
BB8
330
A02
100
AcDbEntity
  8
View011
100
AcDbEllipse
 10
188.604
 20
151.599
 30
0
 11
1.49853
 21
0.0663488
 31
0
 40
0.654867
 41
5.49872
 42
0
  0
LINE
  5
BB9
330
A02
100
AcDbEntity
  8
View011
100
AcDbLine
 10
186.269
 20
148.481
 30
0
 11
189.695
 21
150.952
 31
0
  0
LINE
  5
BBA
330
A02
100
AcDbEntity
  8
View011
100
AcDbLine
 10
164.039
 20
165.325
 30
0
 11
163.919
 21
168.031
 31
0
  0
ELLIPSE
  5
BBB
330
A02
100
AcDbEntity
  8
View011
100
AcDbEllipse
 10
185.359
 20
149.019
 30
0
 11
1.24878
 21
0.0552906
 31
0
 40
0.654867
 41
3.92793
 42
5.49872
  0
LINE
  5
BBC
330
A02
100
AcDbEntity
  8
View011
100
AcDbLine
 10
183.957
 20
148.725
 30
0
 11
184.503
 21
148.402
 31
0
  0
ELLIPSE
  5
BBD
330
A02
100
AcDbEntity
  8
View011
100
AcDbEllipse
 10
183.101
 20
148.107
 30
0
 11
1.24878
 21
0.0552906
 31
0
 40
0.654867
 41
0.786334
 42
2.35713
  0
LINE
  5
BBE
330
A02
100
AcDbEntity
  8
View011
100
AcDbLine
 10
176.211
 20
144.332
 30
0
 11
182.191
 21
148.646
 31
0
  0
LINE
  5
BBF
330
A02
100
AcDbEntity
  8
View011
100
AcDbLine
 10
147.345
 20
152.18
 30
0
 11
147.178
 21
155.955
 31
0
  0
ELLIPSE
  5
BC0
330
A02
100
AcDbEntity
  8
View011
100
AcDbEllipse
 10
175.081
 20
141.605
 30
0
 11
1.24878
 21
0.0552906
 31
0
 40
0.654867
 41
5.49872
 42
0
  0
LINE
  5
BC1
330
A02
100
AcDbEntity
  8
View011
100
AcDbLine
 10
147.345
 20
152.18
 30
0
 11
170.445
 21
138.5
 31
0
  0
LINE
  5
BC2
330
A02
100
AcDbEntity
  8
View011
100
AcDbLine
 10
172.564
 20
138.595
 30
0
 11
175.99
 21
141.067
 31
0
  0
ELLIPSE
  5
BC3
330
A02
100
AcDbEntity
  8
View011
100
AcDbEllipse
 10
171.473
 20
139.241
 30
0
 11
1.49853
 21
0.0663488
 31
0
 40
0.654867
 41
3.92793
 42
5.49872
  0
ELLIPSE
  5
BC4
330
A02
100
AcDbEntity
  8
View011
100
AcDbEllipse
 10
187.967
 20
158
 30
0
 11
1.49853
 21
0.0663488
 31
0
 40
0.654867
 41
2.35713
 42
3.14159
  0
ELLIPSE
  5
BC5
330
A02
100
AcDbEntity
  8
View011
100
AcDbEllipse
 10
187.967
 20
158
 30
0
 11
1.49853
 21
0.0663488
 31
0
 40
0.654867
 41
3.14159
 42
0
  0
ELLIPSE
  5
BC6
330
A02
100
AcDbEntity
  8
View011
100
AcDbEllipse
 10
187.967
 20
158
 30
0
 11
1.49853
 21
0.0663488
 31
0
 40
0.654867
 41
0
 42
2.35713
  0
ELLIPSE
  5
BC7
330
A02
100
AcDbEntity
  8
View011
100
AcDbEllipse
 10
166.868
 20
170.496
 30
0
 11
1.49853
 21
0.0663488
 31
0
 40
0.654867
 41
2.35713
 42
3.14159
  0
ELLIPSE
  5
BC8
330
A02
100
AcDbEntity
  8
View011
100
AcDbEllipse
 10
166.868
 20
170.496
 30
0
 11
1.49853
 21
0.0663488
 31
0
 40
0.654867
 41
3.14159
 42
0
  0
ELLIPSE
  5
BC9
330
A02
100
AcDbEntity
  8
View011
100
AcDbEllipse
 10
166.868
 20
170.496
 30
0
 11
1.49853
 21
0.0663488
 31
0
 40
0.654867
 41
0
 42
2.35713
  0
LINE
  5
BCA
330
A02
100
AcDbEntity
  8
View011
100
AcDbLine
 10
161.837
 20
158.525
 30
0
 11
161.762
 21
160.224
 31
0
  0
LINE
  5
BCB
330
A02
100
AcDbEntity
  8
View011
100
AcDbLine
 10
165.475
 20
156.371
 30
0
 11
165.399
 21
158.07
 31
0
  0
LINE
  5
BCC
330
A02
100
AcDbEntity
  8
View011
100
AcDbLine
 10
170.611
 20
160.145
 30
0
 11
170.539
 21
161.777
 31
0
  0
ELLIPSE
  5
BCD
330
A02
100
AcDbEntity
  8
View011
100
AcDbEllipse
 10
171.178
 20
145.89
 30
0
 11
1.49853
 21
0.0663488
 31
0
 40
0.654867
 41
2.35713
 42
3.14159
  0
ELLIPSE
  5
BCE
330
A02
100
AcDbEntity
  8
View011
100
AcDbEllipse
 10
171.178
 20
145.89
 30
0
 11
1.49853
 21
0.0663488
 31
0
 40
0.654867
 41
3.14159
 42
0
  0
ELLIPSE
  5
BCF
330
A02
100
AcDbEntity
  8
View011
100
AcDbEllipse
 10
171.178
 20
145.89
 30
0
 11
1.49853
 21
0.0663488
 31
0
 40
0.654867
 41
0
 42
2.35713
  0
LINE
  5
BD0
330
A02
100
AcDbEntity
  8
View011
100
AcDbLine
 10
154.969
 20
160.117
 30
0
 11
154.894
 21
161.816
 31
0
  0
LINE
  5
BD1
330
A02
100
AcDbEntity
  8
View011
100
AcDbLine
 10
157.879
 20
158.394
 30
0
 11
157.804
 21
160.093
 31
0
  0
LINE
  5
BD2
330
A02
100
AcDbEntity
  8
View011
100
AcDbLine
 10
160.62
 20
160.371
 30
0
 11
160.545
 21
162.07
 31
0
  0
ELLIPSE
  5
BD3
330
A02
100
AcDbEntity
  8
View011
100
AcDbEllipse
 10
150.079
 20
158.385
 30
0
 11
1.49853
 21
0.0663488
 31
0
 40
0.654867
 41
2.35713
 42
3.14159
  0
ELLIPSE
  5
BD4
330
A02
100
AcDbEntity
  8
View011
100
AcDbEllipse
 10
150.079
 20
158.385
 30
0
 11
1.49853
 21
0.0663488
 31
0
 40
0.654867
 41
3.14159
 42
0
  0
ELLIPSE
  5
BD5
330
A02
100
AcDbEntity
  8
View011
100
AcDbEllipse
 10
150.079
 20
158.385
 30
0
 11
1.49853
 21
0.0663488
 31
0
 40
0.654867
 41
0
 42
2.35713
  0
ELLIPSE
  5
BD6
330
A02
100
AcDbEntity
  8
View011
100
AcDbEllipse
 10
146.279
 20
166.988
 30
0
 11
17.4829
 21
0.774069
 31
0
 40
0.654867
 41
0.786334
 42
3.14159
  0
ELLIPSE
  5
BD7
330
A02
100
AcDbEntity
  8
View011
100
AcDbEllipse
 10
146.279
 20
166.988
 30
0
 11
17.4829
 21
0.774069
 31
0
 40
0.654867
 41
3.14159
 42
3.92793
  0
LINE
  5
BD8
330
A02
100
AcDbEntity
  8
View011
100
AcDbLine
 10
196.831
 20
152.802
 30
0
 11
189.506
 21
157.14
 31
0
  0
LINE
  5
BD9
330
A02
100
AcDbEntity
  8
View011
100
AcDbLine
 10
186.915
 20
158.674
 30
0
 11
168.407
 21
169.635
 31
0
  0
LINE
  5
BDA
330
A02
100
AcDbEntity
  8
View011
100
AcDbLine
 10
165.817
 20
171.17
 30
0
 11
158.271
 21
175.638
 31
0
  0
LINE
  5
BDB
330
A02
100
AcDbEntity
  8
View011
100
AcDbLine
 10
134.287
 20
158.338
 30
0
 11
172.847
 21
135.502
 31
0
  0
ELLIPSE
  5
BDC
330
A02
100
AcDbEntity
  8
View011
100
AcDbEllipse
 10
195.803
 20
152.061
 30
0
 11
1.49853
 21
0.0663488
 31
0
 40
0.654867
 41
5.49872
 42
0
  0
ELLIPSE
  5
BDD
330
A02
100
AcDbEntity
  8
View011
100
AcDbEllipse
 10
195.803
 20
152.061
 30
0
 11
1.49853
 21
0.0663488
 31
0
 40
0.654867
 41
0
 42
0.786334
  0
ELLIPSE
  5
BDE
330
A02
100
AcDbEntity
  8
View011
100
AcDbEllipse
 10
173.875
 20
136.244
 30
0
 11
1.49853
 21
0.0663488
 31
0
 40
0.654867
 41
3.92793
 42
5.49872
  0
LINE
  5
BDF
330
A02
100
AcDbEntity
  8
View011
100
AcDbLine
 10
174.966
 20
135.597
 30
0
 11
196.894
 21
151.415
 31
0
  0
ELLIPSE
  5
BE0
330
A02
100
AcDbEntity
  8
View011
100
AcDbEllipse
 10
194.752
 20
152.211
 30
0
 11
0.749266
 21
0.0331744
 31
0
 40
0.654867
 41
5.49872
 42
0
  0
ELLIPSE
  5
BE1
330
A02
100
AcDbEntity
  8
View011
100
AcDbEllipse
 10
194.752
 20
152.211
 30
0
 11
0.749266
 21
0.0331744
 31
0
 40
0.654867
 41
0
 42
3.14159
  0
ELLIPSE
  5
BE2
330
A02
100
AcDbEntity
  8
View011
100
AcDbEllipse
 10
194.752
 20
152.211
 30
0
 11
0.749266
 21
0.0331744
 31
0
 40
0.654867
 41
3.14159
 42
5.49872
  0
ELLIPSE
  5
BE3
330
A02
100
AcDbEntity
  8
View011
100
AcDbEllipse
 10
158.666
 20
173.582
 30
0
 11
0.749266
 21
0.0331744
 31
0
 40
0.654867
 41
5.49872
 42
0
  0
ELLIPSE
  5
BE4
330
A02
100
AcDbEntity
  8
View011
100
AcDbEllipse
 10
158.666
 20
173.582
 30
0
 11
0.749266
 21
0.0331744
 31
0
 40
0.654867
 41
0
 42
3.14159
  0
ELLIPSE
  5
BE5
330
A02
100
AcDbEntity
  8
View011
100
AcDbEllipse
 10
158.666
 20
173.582
 30
0
 11
0.749266
 21
0.0331744
 31
0
 40
0.654867
 41
3.14159
 42
5.49872
  0
ELLIPSE
  5
BE6
330
A02
100
AcDbEntity
  8
View011
100
AcDbEllipse
 10
173.543
 20
136.912
 30
0
 11
0.749266
 21
0.0331744
 31
0
 40
0.654867
 41
5.49872
 42
0
  0
ELLIPSE
  5
BE7
330
A02
100
AcDbEntity
  8
View011
100
AcDbEllipse
 10
173.543
 20
136.912
 30
0
 11
0.749266
 21
0.0331744
 31
0
 40
0.654867
 41
0
 42
3.14159
  0
ELLIPSE
  5
BE8
330
A02
100
AcDbEntity
  8
View011
100
AcDbEllipse
 10
173.543
 20
136.912
 30
0
 11
0.749266
 21
0.0331744
 31
0
 40
0.654867
 41
3.14159
 42
5.49872
  0
ELLIPSE
  5
BE9
330
A02
100
AcDbEntity
  8
View011
100
AcDbEllipse
 10
137.457
 20
158.284
 30
0
 11
0.749266
 21
0.0331744
 31
0
 40
0.654867
 41
5.49872
 42
0
  0
ELLIPSE
  5
BEA
330
A02
100
AcDbEntity
  8
View011
100
AcDbEllipse
 10
137.457
 20
158.284
 30
0
 11
0.749266
 21
0.0331744
 31
0
 40
0.654867
 41
0
 42
3.14159
  0
ELLIPSE
  5
BEB
330
A02
100
AcDbEntity
  8
View011
100
AcDbEllipse
 10
137.457
 20
158.284
 30
0
 11
0.749266
 21
0.0331744
 31
0
 40
0.654867
 41
3.14159
 42
5.49872
  0
ELLIPSE
  5
BEC
330
A02
100
AcDbEntity
  8
View011
100
AcDbEllipse
 10
187.967
 20
158
 30
0
 11
0.72429
 21
0.0320686
 31
0
 40
0.654867
 41
2.35713
 42
3.14159
  0
ELLIPSE
  5
BED
330
A02
100
AcDbEntity
  8
View011
100
AcDbEllipse
 10
187.967
 20
158
 30
0
 11
0.72429
 21
0.0320686
 31
0
 40
0.654867
 41
3.14159
 42
0
  0
ELLIPSE
  5
BEE
330
A02
100
AcDbEntity
  8
View011
100
AcDbEllipse
 10
187.967
 20
158
 30
0
 11
0.72429
 21
0.0320686
 31
0
 40
0.654867
 41
0
 42
2.35713
  0
ELLIPSE
  5
BEF
330
A02
100
AcDbEntity
  8
View011
100
AcDbEllipse
 10
166.868
 20
170.496
 30
0
 11
0.72429
 21
0.0320686
 31
0
 40
0.654867
 41
2.35713
 42
3.14159
  0
ELLIPSE
  5
BF0
330
A02
100
AcDbEntity
  8
View011
100
AcDbEllipse
 10
166.868
 20
170.496
 30
0
 11
0.72429
 21
0.0320686
 31
0
 40
0.654867
 41
3.14159
 42
0
  0
ELLIPSE
  5
BF1
330
A02
100
AcDbEntity
  8
View011
100
AcDbEllipse
 10
166.868
 20
170.496
 30
0
 11
0.72429
 21
0.0320686
 31
0
 40
0.654867
 41
0
 42
2.35713
  0
SPLINE
  5
BF2
330
A02
100
AcDbEntity
  8
View011
100
AcDbSpline
210
0
220
0
230
1
 70
8
 71
3
 72
8
 73
4
 74
0
 40
3.14159
 40
3.14159
 40
3.14159
 40
3.14159
 40
4.71239
 40
4.71239
 40
4.71239
 40
4.71239
 10
165.399
 20
158.07
 30
0
 10
165.391
 20
158.266
 30
0
 10
165.373
 20
158.667
 30
0
 10
165.362
 20
158.91
 30
0
  0
SPLINE
  5
BF3
330
A02
100
AcDbEntity
  8
View011
100
AcDbSpline
210
0
220
0
230
1
 70
8
 71
3
 72
8
 73
4
 74
0
 40
0
 40
0
 40
0
 40
0
 40
0.683981
 40
0.683981
 40
0.683981
 40
0.683981
 10
161.762
 20
160.224
 30
0
 10
161.758
 20
160.31
 30
0
 10
161.811
 20
160.398
 30
0
 10
161.91
 20
160.47
 30
0
  0
SPLINE
  5
BF4
330
A02
100
AcDbEntity
  8
View011
100
AcDbSpline
210
0
220
0
230
1
 70
8
 71
3
 72
8
 73
4
 74
0
 40
0.683981
 40
0.683981
 40
0.683981
 40
0.683981
 40
1.5708
 40
1.5708
 40
1.5708
 40
1.5708
 10
161.91
 20
160.47
 30
0
 10
162.038
 20
160.562
 30
0
 10
162.242
 20
160.624
 30
0
 10
162.451
 20
160.633
 30
0
  0
SPLINE
  5
BF5
330
A02
100
AcDbEntity
  8
View011
100
AcDbSpline
210
0
220
0
230
1
 70
8
 71
3
 72
8
 73
4
 74
0
 40
0
 40
0
 40
0
 40
0
 40
0.684898
 40
0.684898
 40
0.684898
 40
0.684898
 10
170.539
 20
161.777
 30
0
 10
170.535
 20
161.863
 30
0
 10
170.474
 20
161.946
 30
0
 10
170.369
 20
162.008
 30
0
  0
SPLINE
  5
BF6
330
A02
100
AcDbEntity
  8
View011
100
AcDbSpline
210
0
220
0
230
1
 70
8
 71
3
 72
8
 73
4
 74
0
 40
0.684898
 40
0.684898
 40
0.684898
 40
0.684898
 40
1.5708
 40
1.5708
 40
1.5708
 40
1.5708
 10
170.369
 20
162.008
 30
0
 10
170.233
 20
162.089
 30
0
 10
170.025
 20
162.132
 30
0
 10
169.816
 20
162.123
 30
0
  0
SPLINE
  5
BF7
330
A02
100
AcDbEntity
  8
View011
100
AcDbSpline
210
0
220
0
230
1
 70
8
 71
1
 72
4
 73
2
 74
0
 40
0.683981
 40
0.683981
 40
0.684898
 40
0.684898
 10
166.895
 20
164.066
 30
0
 10
166.895
 20
164.066
 30
0
  0
SPLINE
  5
BF8
330
A02
100
AcDbEntity
  8
View011
100
AcDbSpline
210
0
220
0
230
1
 70
8
 71
3
 72
8
 73
4
 74
0
 40
0.684898
 40
0.684898
 40
0.684898
 40
0.684898
 40
1.5708
 40
1.5708
 40
1.5708
 40
1.5708
 10
166.895
 20
164.066
 30
0
 10
166.895
 20
164.066
 30
0
 10
166.899
 20
163.983
 30
0
 10
166.906
 20
163.846
 30
0
  0
ELLIPSE
  5
BF9
330
A02
100
AcDbEntity
  8
View011
100
AcDbEllipse
 10
171.178
 20
145.89
 30
0
 11
0.72429
 21
0.0320686
 31
0
 40
0.654867
 41
2.35713
 42
3.14159
  0
ELLIPSE
  5
BFA
330
A02
100
AcDbEntity
  8
View011
100
AcDbEllipse
 10
171.178
 20
145.89
 30
0
 11
0.72429
 21
0.0320686
 31
0
 40
0.654867
 41
3.14159
 42
0
  0
ELLIPSE
  5
BFB
330
A02
100
AcDbEntity
  8
View011
100
AcDbEllipse
 10
171.178
 20
145.89
 30
0
 11
0.72429
 21
0.0320686
 31
0
 40
0.654867
 41
0
 42
2.35713
  0
SPLINE
  5
BFC
330
A02
100
AcDbEntity
  8
View011
100
AcDbSpline
210
0
220
0
230
1
 70
8
 71
3
 72
8
 73
4
 74
0
 40
3.14159
 40
3.14159
 40
3.14159
 40
3.14159
 40
4.71239
 40
4.71239
 40
4.71239
 40
4.71239
 10
157.804
 20
160.093
 30
0
 10
157.795
 20
160.289
 30
0
 10
157.777
 20
160.69
 30
0
 10
157.766
 20
160.933
 30
0
  0
SPLINE
  5
BFD
330
A02
100
AcDbEntity
  8
View011
100
AcDbSpline
210
0
220
0
230
1
 70
8
 71
3
 72
8
 73
4
 74
0
 40
0
 40
0
 40
0
 40
0
 40
0.683981
 40
0.683981
 40
0.683981
 40
0.683981
 10
154.894
 20
161.816
 30
0
 10
154.89
 20
161.902
 30
0
 10
154.943
 20
161.99
 30
0
 10
155.042
 20
162.062
 30
0
  0
SPLINE
  5
BFE
330
A02
100
AcDbEntity
  8
View011
100
AcDbSpline
210
0
220
0
230
1
 70
8
 71
3
 72
8
 73
4
 74
0
 40
0.683981
 40
0.683981
 40
0.683981
 40
0.683981
 40
1.5708
 40
1.5708
 40
1.5708
 40
1.5708
 10
155.042
 20
162.062
 30
0
 10
155.17
 20
162.155
 30
0
 10
155.374
 20
162.216
 30
0
 10
155.583
 20
162.225
 30
0
  0
SPLINE
  5
BFF
330
A02
100
AcDbEntity
  8
View011
100
AcDbSpline
210
0
220
0
230
1
 70
8
 71
3
 72
8
 73
4
 74
0
 40
0
 40
0
 40
0
 40
0
 40
0.684898
 40
0.684898
 40
0.684898
 40
0.684898
 10
160.545
 20
162.07
 30
0
 10
160.541
 20
162.156
 30
0
 10
160.48
 20
162.239
 30
0
 10
160.375
 20
162.301
 30
0
  0
SPLINE
  5
C00
330
A02
100
AcDbEntity
  8
View011
100
AcDbSpline
210
0
220
0
230
1
 70
8
 71
3
 72
8
 73
4
 74
0
 40
0.684898
 40
0.684898
 40
0.684898
 40
0.684898
 40
1.5708
 40
1.5708
 40
1.5708
 40
1.5708
 10
160.375
 20
162.301
 30
0
 10
160.239
 20
162.382
 30
0
 10
160.031
 20
162.425
 30
0
 10
159.822
 20
162.416
 30
0
  0
SPLINE
  5
C01
330
A02
100
AcDbEntity
  8
View011
100
AcDbSpline
210
0
220
0
230
1
 70
8
 71
1
 72
4
 73
2
 74
0
 40
0.683981
 40
0.683981
 40
0.684898
 40
0.684898
 10
157.629
 20
163.928
 30
0
 10
157.629
 20
163.928
 30
0
  0
SPLINE
  5
C02
330
A02
100
AcDbEntity
  8
View011
100
AcDbSpline
210
0
220
0
230
1
 70
8
 71
3
 72
8
 73
4
 74
0
 40
0.684898
 40
0.684898
 40
0.684898
 40
0.684898
 40
1.5708
 40
1.5708
 40
1.5708
 40
1.5708
 10
157.629
 20
163.928
 30
0
 10
157.629
 20
163.928
 30
0
 10
157.633
 20
163.846
 30
0
 10
157.639
 20
163.708
 30
0
  0
ELLIPSE
  5
C03
330
A02
100
AcDbEntity
  8
View011
100
AcDbEllipse
 10
150.079
 20
158.385
 30
0
 11
0.72429
 21
0.0320686
 31
0
 40
0.654867
 41
2.35713
 42
3.14159
  0
ELLIPSE
  5
C04
330
A02
100
AcDbEntity
  8
View011
100
AcDbEllipse
 10
150.079
 20
158.385
 30
0
 11
0.72429
 21
0.0320686
 31
0
 40
0.654867
 41
3.14159
 42
0
  0
ELLIPSE
  5
C05
330
A02
100
AcDbEntity
  8
View011
100
AcDbEllipse
 10
150.079
 20
158.385
 30
0
 11
0.72429
 21
0.0320686
 31
0
 40
0.654867
 41
0
 42
2.35713
  0
ELLIPSE
  5
C06
330
A02
100
AcDbEntity
  8
View011
100
AcDbEllipse
 10
146.346
 20
165.478
 30
0
 11
-17.4829
 21
-0.774069
 31
0
 40
0.654867
 41
-0
 42
-6.27205
  0
LINE
  5
C07
330
A02
100
AcDbEntity
  8
View011
100
AcDbLine
 10
128.87
 20
164.577
 30
0
 11
128.903
 21
163.822
 31
0
  0
ELLIPSE
  5
C08
330
A02
100
AcDbEntity
  8
View011
100
AcDbEllipse
 10
146.379
 20
164.723
 30
0
 11
17.4829
 21
0.774069
 31
0
 40
0.654867
 41
3.15273
 42
3.23821
  0
LINE
  5
C09
330
A02
100
AcDbEntity
  8
View011
100
AcDbLine
 10
128.994
 20
163.603
 30
0
 11
129.027
 21
162.848
 31
0
  0
ELLIPSE
  5
C0A
330
A02
100
AcDbEntity
  8
View011
100
AcDbEllipse
 10
146.346
 20
165.478
 30
0
 11
-17.4829
 21
-0.774069
 31
0
 40
0.654867
 41
-6.18656
 42
-6.0911
  0
LINE
  5
C0B
330
A02
100
AcDbEntity
  8
View011
100
AcDbLine
 10
129.281
 20
162.533
 30
0
 11
129.315
 21
161.778
 31
0
  0
ELLIPSE
  5
C0C
330
A02
100
AcDbEntity
  8
View011
100
AcDbEllipse
 10
146.379
 20
164.723
 30
0
 11
17.4829
 21
0.774069
 31
0
 40
0.654867
 41
3.33368
 42
3.44516
  0
LINE
  5
C0D
330
A02
100
AcDbEntity
  8
View011
100
AcDbLine
 10
129.814
 20
161.317
 30
0
 11
129.848
 21
160.562
 31
0
  0
ELLIPSE
  5
C0E
330
A02
100
AcDbEntity
  8
View011
100
AcDbEllipse
 10
146.346
 20
165.478
 30
0
 11
-17.4829
 21
-0.774069
 31
0
 40
0.654867
 41
-5.97962
 42
-5.83654
  0
LINE
  5
C0F
330
A02
100
AcDbEntity
  8
View011
100
AcDbLine
 10
130.797
 20
159.835
 30
0
 11
130.831
 21
159.08
 31
0
  0
ELLIPSE
  5
C10
330
A02
100
AcDbEntity
  8
View011
100
AcDbEllipse
 10
146.379
 20
164.723
 30
0
 11
17.4829
 21
0.774069
 31
0
 40
0.654867
 41
3.58823
 42
3.92793
  0
LINE
  5
C11
330
A02
100
AcDbEntity
  8
View011
100
AcDbLine
 10
134.388
 20
156.073
 30
0
 11
172.947
 21
133.237
 31
0
  0
ELLIPSE
  5
C12
330
A02
100
AcDbEntity
  8
View011
100
AcDbEllipse
 10
195.87
 20
150.551
 30
0
 11
-1.49853
 21
-0.0663488
 31
0
 40
0.654867
 41
-3.92606
 42
-3.58622
  0
LINE
  5
C13
330
A02
100
AcDbEntity
  8
View011
100
AcDbLine
 10
197.241
 20
150.189
 30
0
 11
197.275
 21
149.434
 31
0
  0
ELLIPSE
  5
C14
330
A02
100
AcDbEntity
  8
View011
100
AcDbEllipse
 10
195.903
 20
149.796
 30
0
 11
1.49853
 21
0.0663488
 31
0
 40
0.654867
 41
5.83856
 42
0
  0
ELLIPSE
  5
C15
330
A02
100
AcDbEntity
  8
View011
100
AcDbEllipse
 10
173.975
 20
133.979
 30
0
 11
1.49853
 21
0.0663488
 31
0
 40
0.654867
 41
3.92793
 42
5.15889
  0
LINE
  5
C16
330
A02
100
AcDbEntity
  8
View011
100
AcDbLine
 10
174.628
 20
133.877
 30
0
 11
174.661
 21
133.122
 31
0
  0
ELLIPSE
  5
C17
330
A02
100
AcDbEntity
  8
View011
100
AcDbEllipse
 10
173.942
 20
134.734
 30
0
 11
-1.49853
 21
-0.0663488
 31
0
 40
0.654867
 41
-4.26589
 42
-3.92606
  0
LINE
  5
C18
330
A02
100
AcDbEntity
  8
View011
100
AcDbLine
 10
175.375
 20
134.334
 30
0
 11
175.033
 21
134.087
 31
0
  0
LINE
  5
C19
330
A02
100
AcDbEntity
  8
View011
100
AcDbLine
 10
175.409
 20
133.579
 30
0
 11
175.375
 21
134.334
 31
0
  0
LINE
  5
C1A
330
A02
100
AcDbEntity
  8
View011
100
AcDbLine
 10
175.409
 20
133.579
 30
0
 11
176.094
 21
134.074
 31
0
  0
LINE
  5
C1B
330
A02
100
AcDbEntity
  8
View011
100
AcDbLine
 10
176.094
 20
134.074
 30
0
 11
176.061
 21
134.829
 31
0
  0
LINE
  5
C1C
330
A02
100
AcDbEntity
  8
View011
100
AcDbLine
 10
176.746
 20
135.323
 30
0
 11
176.061
 21
134.829
 31
0
  0
LINE
  5
C1D
330
A02
100
AcDbEntity
  8
View011
100
AcDbLine
 10
176.779
 20
134.568
 30
0
 11
176.746
 21
135.323
 31
0
  0
LINE
  5
C1E
330
A02
100
AcDbEntity
  8
View011
100
AcDbLine
 10
176.779
 20
134.568
 30
0
 11
177.465
 21
135.062
 31
0
  0
LINE
  5
C1F
330
A02
100
AcDbEntity
  8
View011
100
AcDbLine
 10
177.465
 20
135.062
 30
0
 11
177.431
 21
135.817
 31
0
  0
LINE
  5
C20
330
A02
100
AcDbEntity
  8
View011
100
AcDbLine
 10
178.116
 20
136.312
 30
0
 11
177.431
 21
135.817
 31
0
  0
LINE
  5
C21
330
A02
100
AcDbEntity
  8
View011
100
AcDbLine
 10
178.15
 20
135.557
 30
0
 11
178.116
 21
136.312
 31
0
  0
LINE
  5
C22
330
A02
100
AcDbEntity
  8
View011
100
AcDbLine
 10
178.15
 20
135.557
 30
0
 11
178.835
 21
136.051
 31
0
  0
LINE
  5
C23
330
A02
100
AcDbEntity
  8
View011
100
AcDbLine
 10
178.835
 20
136.051
 30
0
 11
178.802
 21
136.806
 31
0
  0
LINE
  5
C24
330
A02
100
AcDbEntity
  8
View011
100
AcDbLine
 10
179.487
 20
137.3
 30
0
 11
178.802
 21
136.806
 31
0
  0
LINE
  5
C25
330
A02
100
AcDbEntity
  8
View011
100
AcDbLine
 10
179.52
 20
136.545
 30
0
 11
179.487
 21
137.3
 31
0
  0
LINE
  5
C26
330
A02
100
AcDbEntity
  8
View011
100
AcDbLine
 10
179.52
 20
136.545
 30
0
 11
180.206
 21
137.039
 31
0
  0
LINE
  5
C27
330
A02
100
AcDbEntity
  8
View011
100
AcDbLine
 10
180.206
 20
137.039
 30
0
 11
180.172
 21
137.794
 31
0
  0
LINE
  5
C28
330
A02
100
AcDbEntity
  8
View011
100
AcDbLine
 10
180.857
 20
138.289
 30
0
 11
180.172
 21
137.794
 31
0
  0
LINE
  5
C29
330
A02
100
AcDbEntity
  8
View011
100
AcDbLine
 10
180.891
 20
137.534
 30
0
 11
180.857
 21
138.289
 31
0
  0
LINE
  5
C2A
330
A02
100
AcDbEntity
  8
View011
100
AcDbLine
 10
180.891
 20
137.534
 30
0
 11
181.576
 21
138.028
 31
0
  0
LINE
  5
C2B
330
A02
100
AcDbEntity
  8
View011
100
AcDbLine
 10
181.576
 20
138.028
 30
0
 11
181.543
 21
138.783
 31
0
  0
LINE
  5
C2C
330
A02
100
AcDbEntity
  8
View011
100
AcDbLine
 10
182.228
 20
139.277
 30
0
 11
181.543
 21
138.783
 31
0
  0
LINE
  5
C2D
330
A02
100
AcDbEntity
  8
View011
100
AcDbLine
 10
182.261
 20
138.522
 30
0
 11
182.228
 21
139.277
 31
0
  0
LINE
  5
C2E
330
A02
100
AcDbEntity
  8
View011
100
AcDbLine
 10
182.261
 20
138.522
 30
0
 11
182.947
 21
139.017
 31
0
  0
LINE
  5
C2F
330
A02
100
AcDbEntity
  8
View011
100
AcDbLine
 10
182.947
 20
139.017
 30
0
 11
182.913
 21
139.772
 31
0
  0
LINE
  5
C30
330
A02
100
AcDbEntity
  8
View011
100
AcDbLine
 10
183.599
 20
140.266
 30
0
 11
182.913
 21
139.772
 31
0
  0
LINE
  5
C31
330
A02
100
AcDbEntity
  8
View011
100
AcDbLine
 10
183.632
 20
139.511
 30
0
 11
183.599
 21
140.266
 31
0
  0
LINE
  5
C32
330
A02
100
AcDbEntity
  8
View011
100
AcDbLine
 10
183.632
 20
139.511
 30
0
 11
184.317
 21
140.005
 31
0
  0
LINE
  5
C33
330
A02
100
AcDbEntity
  8
View011
100
AcDbLine
 10
184.317
 20
140.005
 30
0
 11
184.284
 21
140.76
 31
0
  0
LINE
  5
C34
330
A02
100
AcDbEntity
  8
View011
100
AcDbLine
 10
184.969
 20
141.255
 30
0
 11
184.284
 21
140.76
 31
0
  0
LINE
  5
C35
330
A02
100
AcDbEntity
  8
View011
100
AcDbLine
 10
185.002
 20
140.5
 30
0
 11
184.969
 21
141.255
 31
0
  0
LINE
  5
C36
330
A02
100
AcDbEntity
  8
View011
100
AcDbLine
 10
185.002
 20
140.5
 30
0
 11
185.688
 21
140.994
 31
0
  0
LINE
  5
C37
330
A02
100
AcDbEntity
  8
View011
100
AcDbLine
 10
185.688
 20
140.994
 30
0
 11
185.654
 21
141.749
 31
0
  0
LINE
  5
C38
330
A02
100
AcDbEntity
  8
View011
100
AcDbLine
 10
186.34
 20
142.243
 30
0
 11
185.654
 21
141.749
 31
0
  0
LINE
  5
C39
330
A02
100
AcDbEntity
  8
View011
100
AcDbLine
 10
186.373
 20
141.488
 30
0
 11
186.34
 21
142.243
 31
0
  0
LINE
  5
C3A
330
A02
100
AcDbEntity
  8
View011
100
AcDbLine
 10
186.373
 20
141.488
 30
0
 11
187.058
 21
141.982
 31
0
  0
LINE
  5
C3B
330
A02
100
AcDbEntity
  8
View011
100
AcDbLine
 10
187.058
 20
141.982
 30
0
 11
187.025
 21
142.737
 31
0
  0
LINE
  5
C3C
330
A02
100
AcDbEntity
  8
View011
100
AcDbLine
 10
187.71
 20
143.232
 30
0
 11
187.025
 21
142.737
 31
0
  0
LINE
  5
C3D
330
A02
100
AcDbEntity
  8
View011
100
AcDbLine
 10
187.743
 20
142.477
 30
0
 11
187.71
 21
143.232
 31
0
  0
LINE
  5
C3E
330
A02
100
AcDbEntity
  8
View011
100
AcDbLine
 10
187.743
 20
142.477
 30
0
 11
188.429
 21
142.971
 31
0
  0
LINE
  5
C3F
330
A02
100
AcDbEntity
  8
View011
100
AcDbLine
 10
188.429
 20
142.971
 30
0
 11
188.395
 21
143.726
 31
0
  0
LINE
  5
C40
330
A02
100
AcDbEntity
  8
View011
100
AcDbLine
 10
189.081
 20
144.22
 30
0
 11
188.395
 21
143.726
 31
0
  0
LINE
  5
C41
330
A02
100
AcDbEntity
  8
View011
100
AcDbLine
 10
189.114
 20
143.465
 30
0
 11
189.081
 21
144.22
 31
0
  0
LINE
  5
C42
330
A02
100
AcDbEntity
  8
View011
100
AcDbLine
 10
189.114
 20
143.465
 30
0
 11
189.799
 21
143.96
 31
0
  0
LINE
  5
C43
330
A02
100
AcDbEntity
  8
View011
100
AcDbLine
 10
189.799
 20
143.96
 30
0
 11
189.766
 21
144.715
 31
0
  0
LINE
  5
C44
330
A02
100
AcDbEntity
  8
View011
100
AcDbLine
 10
190.451
 20
145.209
 30
0
 11
189.766
 21
144.715
 31
0
  0
LINE
  5
C45
330
A02
100
AcDbEntity
  8
View011
100
AcDbLine
 10
190.484
 20
144.454
 30
0
 11
190.451
 21
145.209
 31
0
  0
LINE
  5
C46
330
A02
100
AcDbEntity
  8
View011
100
AcDbLine
 10
190.484
 20
144.454
 30
0
 11
191.17
 21
144.948
 31
0
  0
LINE
  5
C47
330
A02
100
AcDbEntity
  8
View011
100
AcDbLine
 10
191.17
 20
144.948
 30
0
 11
191.136
 21
145.703
 31
0
  0
LINE
  5
C48
330
A02
100
AcDbEntity
  8
View011
100
AcDbLine
 10
191.822
 20
146.197
 30
0
 11
191.136
 21
145.703
 31
0
  0
LINE
  5
C49
330
A02
100
AcDbEntity
  8
View011
100
AcDbLine
 10
191.855
 20
145.442
 30
0
 11
191.822
 21
146.197
 31
0
  0
LINE
  5
C4A
330
A02
100
AcDbEntity
  8
View011
100
AcDbLine
 10
191.855
 20
145.442
 30
0
 11
192.54
 21
145.937
 31
0
  0
LINE
  5
C4B
330
A02
100
AcDbEntity
  8
View011
100
AcDbLine
 10
192.54
 20
145.937
 30
0
 11
192.507
 21
146.692
 31
0
  0
LINE
  5
C4C
330
A02
100
AcDbEntity
  8
View011
100
AcDbLine
 10
193.192
 20
147.186
 30
0
 11
192.507
 21
146.692
 31
0
  0
LINE
  5
C4D
330
A02
100
AcDbEntity
  8
View011
100
AcDbLine
 10
193.225
 20
146.431
 30
0
 11
193.192
 21
147.186
 31
0
  0
LINE
  5
C4E
330
A02
100
AcDbEntity
  8
View011
100
AcDbLine
 10
193.225
 20
146.431
 30
0
 11
193.911
 21
146.925
 31
0
  0
LINE
  5
C4F
330
A02
100
AcDbEntity
  8
View011
100
AcDbLine
 10
193.911
 20
146.925
 30
0
 11
193.877
 21
147.68
 31
0
  0
LINE
  5
C50
330
A02
100
AcDbEntity
  8
View011
100
AcDbLine
 10
194.563
 20
148.175
 30
0
 11
193.877
 21
147.68
 31
0
  0
LINE
  5
C51
330
A02
100
AcDbEntity
  8
View011
100
AcDbLine
 10
194.596
 20
147.42
 30
0
 11
194.563
 21
148.175
 31
0
  0
LINE
  5
C52
330
A02
100
AcDbEntity
  8
View011
100
AcDbLine
 10
194.596
 20
147.42
 30
0
 11
195.281
 21
147.914
 31
0
  0
LINE
  5
C53
330
A02
100
AcDbEntity
  8
View011
100
AcDbLine
 10
195.281
 20
147.914
 30
0
 11
195.248
 21
148.669
 31
0
  0
LINE
  5
C54
330
A02
100
AcDbEntity
  8
View011
100
AcDbLine
 10
195.933
 20
149.163
 30
0
 11
195.248
 21
148.669
 31
0
  0
LINE
  5
C55
330
A02
100
AcDbEntity
  8
View011
100
AcDbLine
 10
195.966
 20
148.408
 30
0
 11
195.933
 21
149.163
 31
0
  0
LINE
  5
C56
330
A02
100
AcDbEntity
  8
View011
100
AcDbLine
 10
195.966
 20
148.408
 30
0
 11
196.652
 21
148.902
 31
0
  0
LINE
  5
C57
330
A02
100
AcDbEntity
  8
View011
100
AcDbLine
 10
196.652
 20
148.902
 30
0
 11
196.618
 21
149.657
 31
0
  0
LINE
  5
C58
330
A02
100
AcDbEntity
  8
View011
100
AcDbLine
 10
196.961
 20
149.905
 30
0
 11
196.618
 21
149.657
 31
0
  0
LINE
  5
C59
330
A02
100
AcDbEntity
  8
View011
100
AcDbLine
 10
196.744
 20
149.748
 30
0
 11
197.275
 21
149.434
 31
0
  0
LINE
  5
C5A
330
A02
100
AcDbEntity
  8
View011
100
AcDbLine
 10
194.003
 20
147.771
 30
0
 11
194.596
 21
147.42
 31
0
  0
LINE
  5
C5B
330
A02
100
AcDbEntity
  8
View011
100
AcDbLine
 10
192.632
 20
146.782
 30
0
 11
193.225
 21
146.431
 31
0
  0
LINE
  5
C5C
330
A02
100
AcDbEntity
  8
View011
100
AcDbLine
 10
191.262
 20
145.794
 30
0
 11
191.855
 21
145.442
 31
0
  0
LINE
  5
C5D
330
A02
100
AcDbEntity
  8
View011
100
AcDbLine
 10
189.891
 20
144.805
 30
0
 11
190.484
 21
144.454
 31
0
  0
LINE
  5
C5E
330
A02
100
AcDbEntity
  8
View011
100
AcDbLine
 10
188.521
 20
143.817
 30
0
 11
189.114
 21
143.465
 31
0
  0
LINE
  5
C5F
330
A02
100
AcDbEntity
  8
View011
100
AcDbLine
 10
187.15
 20
142.828
 30
0
 11
187.743
 21
142.477
 31
0
  0
LINE
  5
C60
330
A02
100
AcDbEntity
  8
View011
100
AcDbLine
 10
185.78
 20
141.839
 30
0
 11
186.373
 21
141.488
 31
0
  0
LINE
  5
C61
330
A02
100
AcDbEntity
  8
View011
100
AcDbLine
 10
184.409
 20
140.851
 30
0
 11
185.002
 21
140.5
 31
0
  0
LINE
  5
C62
330
A02
100
AcDbEntity
  8
View011
100
AcDbLine
 10
183.039
 20
139.862
 30
0
 11
183.632
 21
139.511
 31
0
  0
LINE
  5
C63
330
A02
100
AcDbEntity
  8
View011
100
AcDbLine
 10
181.668
 20
138.874
 30
0
 11
182.261
 21
138.522
 31
0
  0
LINE
  5
C64
330
A02
100
AcDbEntity
  8
View011
100
AcDbLine
 10
180.298
 20
137.885
 30
0
 11
180.891
 21
137.534
 31
0
  0
LINE
  5
C65
330
A02
100
AcDbEntity
  8
View011
100
AcDbLine
 10
178.927
 20
136.896
 30
0
 11
179.52
 21
136.545
 31
0
  0
LINE
  5
C66
330
A02
100
AcDbEntity
  8
View011
100
AcDbLine
 10
177.557
 20
135.908
 30
0
 11
178.15
 21
135.557
 31
0
  0
LINE
  5
C67
330
A02
100
AcDbEntity
  8
View011
100
AcDbLine
 10
129.027
 20
162.848
 30
0
 11
129.214
 21
162.738
 31
0
  0
LINE
  5
C68
330
A02
100
AcDbEntity
  8
View011
100
AcDbLine
 10
176.186
 20
134.919
 30
0
 11
176.779
 21
134.568
 31
0
  0
LINE
  5
C69
330
A02
100
AcDbEntity
  8
View011
100
AcDbLine
 10
129.848
 20
160.562
 30
0
 11
130.563
 21
160.139
 31
0
  0
LINE
  5
C6A
330
A02
100
AcDbEntity
  8
View011
100
AcDbLine
 10
174.791
 20
133.945
 30
0
 11
175.409
 21
133.579
 31
0
  0
LINE
  5
C6B
330
A02
100
AcDbEntity
  8
View011
100
AcDbLine
 10
195.373
 20
148.759
 30
0
 11
195.966
 21
148.408
 31
0
  0
LINE
  5
C6C
330
A02
100
AcDbEntity
  8
View011
100
AcDbLine
 10
171.641
 20
160.887
 30
0
 11
176.934
 21
157.753
 31
0
  0
LINE
  5
C6D
330
A02
100
AcDbEntity
  8
View011
100
AcDbLine
 10
166.656
 20
157.291
 30
0
 11
171.641
 21
160.887
 31
0
  0
LINE
  5
C6E
330
A02
100
AcDbEntity
  8
View011
100
AcDbLine
 10
168.94
 20
167.94
 30
0
 11
169.058
 21
165.275
 31
0
  0
LINE
  5
C6F
330
A02
100
AcDbEntity
  8
View011
100
AcDbLine
 10
189.935
 20
155.44
 30
0
 11
190.102
 21
151.665
 31
0
  0
LINE
  5
C70
330
A02
100
AcDbEntity
  8
View011
100
AcDbLine
 10
176.162
 20
145.435
 30
0
 11
176.329
 21
141.66
 31
0
  0
LINE
  5
C71
330
A02
100
AcDbEntity
  8
View011
100
AcDbLine
 10
186.468
 20
157.934
 30
0
 11
186.585
 21
155.291
 31
0
  0
LINE
  5
C72
330
A02
100
AcDbEntity
  8
View011
100
AcDbLine
 10
189.465
 20
158.067
 30
0
 11
189.582
 21
155.424
 31
0
  0
LINE
  5
C73
330
A02
100
AcDbEntity
  8
View011
100
AcDbLine
 10
165.369
 20
170.429
 30
0
 11
165.486
 21
167.787
 31
0
  0
LINE
  5
C74
330
A02
100
AcDbEntity
  8
View011
100
AcDbLine
 10
168.366
 20
170.562
 30
0
 11
168.483
 21
167.919
 31
0
  0
LINE
  5
C75
330
A02
100
AcDbEntity
  8
View011
100
AcDbLine
 10
169.679
 20
145.824
 30
0
 11
169.796
 21
143.181
 31
0
  0
LINE
  5
C76
330
A02
100
AcDbEntity
  8
View011
100
AcDbLine
 10
172.676
 20
145.957
 30
0
 11
172.793
 21
143.314
 31
0
  0
LINE
  5
C77
330
A02
100
AcDbEntity
  8
View011
100
AcDbLine
 10
148.581
 20
158.319
 30
0
 11
148.698
 21
155.677
 31
0
  0
LINE
  5
C78
330
A02
100
AcDbEntity
  8
View011
100
AcDbLine
 10
151.578
 20
158.452
 30
0
 11
151.695
 21
155.809
 31
0
  0
LINE
  5
C79
330
A02
100
AcDbEntity
  8
View011
100
AcDbLine
 10
166.895
 20
164.066
 30
0
 11
170.369
 21
162.008
 31
0
  0
LINE
  5
C7A
330
A02
100
AcDbEntity
  8
View011
100
AcDbLine
 10
161.91
 20
160.47
 30
0
 11
166.895
 21
164.066
 31
0
  0
LINE
  5
C7B
330
A02
100
AcDbEntity
  8
View011
100
AcDbLine
 10
157.629
 20
163.928
 30
0
 11
160.375
 21
162.301
 31
0
  0
LINE
  5
C7C
330
A02
100
AcDbEntity
  8
View011
100
AcDbLine
 10
155.042
 20
162.062
 30
0
 11
157.629
 21
163.928
 31
0
  0
LINE
  5
C7D
330
A02
100
AcDbEntity
  8
View011
100
AcDbLine
 10
128.796
 20
166.214
 30
0
 11
128.863
 21
164.704
 31
0
  0
LINE
  5
C7E
330
A02
100
AcDbEntity
  8
View011
100
AcDbLine
 10
197.301
 20
152.127
 30
0
 11
197.402
 21
149.862
 31
0
  0
LINE
  5
C7F
330
A02
100
AcDbEntity
  8
View011
100
AcDbLine
 10
177.103
 20
157.521
 30
0
 11
171.964
 21
153.814
 31
0
  0
LINE
  5
C80
330
A02
100
AcDbEntity
  8
View011
100
AcDbLine
 10
171.651
 20
160.668
 30
0
 11
176.38
 21
157.867
 31
0
  0
LINE
  5
C81
330
A02
100
AcDbEntity
  8
View011
100
AcDbLine
 10
171.964
 20
153.814
 30
0
 11
166.507
 21
157.046
 31
0
  0
LINE
  5
C82
330
A02
100
AcDbEntity
  8
View011
100
AcDbLine
 10
176.38
 20
157.867
 30
0
 11
171.926
 21
154.654
 31
0
  0
LINE
  5
C83
330
A02
100
AcDbEntity
  8
View011
100
AcDbLine
 10
167.197
 20
157.455
 30
0
 11
171.651
 21
160.668
 31
0
  0
LINE
  5
C84
330
A02
100
AcDbEntity
  8
View011
100
AcDbLine
 10
171.926
 20
154.654
 30
0
 11
167.197
 21
157.455
 31
0
  0
LINE
  5
C85
330
A02
100
AcDbEntity
  8
View011
100
AcDbLine
 10
168.138
 20
165.82
 30
0
 11
168.087
 21
166.975
 31
0
  0
LINE
  5
C86
330
A02
100
AcDbEntity
  8
View011
100
AcDbLine
 10
168.683
 20
165.497
 30
0
 11
168.601
 21
167.346
 31
0
  0
LINE
  5
C87
330
A02
100
AcDbEntity
  8
View011
100
AcDbLine
 10
189.695
 20
150.952
 30
0
 11
189.528
 21
154.727
 31
0
  0
LINE
  5
C88
330
A02
100
AcDbEntity
  8
View011
100
AcDbLine
 10
186.269
 20
148.481
 30
0
 11
186.102
 21
152.256
 31
0
  0
LINE
  5
C89
330
A02
100
AcDbEntity
  8
View011
100
AcDbLine
 10
184.503
 20
148.402
 30
0
 11
184.336
 21
152.177
 31
0
  0
LINE
  5
C8A
330
A02
100
AcDbEntity
  8
View011
100
AcDbLine
 10
165.789
 20
165.796
 30
0
 11
165.738
 21
166.953
 31
0
  0
LINE
  5
C8B
330
A02
100
AcDbEntity
  8
View011
100
AcDbLine
 10
183.957
 20
148.725
 30
0
 11
183.79
 21
152.5
 31
0
  0
LINE
  5
C8C
330
A02
100
AcDbEntity
  8
View011
100
AcDbLine
 10
182.191
 20
148.646
 30
0
 11
182.024
 21
152.421
 31
0
  0
LINE
  5
C8D
330
A02
100
AcDbEntity
  8
View011
100
AcDbLine
 10
175.223
 20
146.322
 30
0
 11
175.172
 21
147.478
 31
0
  0
LINE
  5
C8E
330
A02
100
AcDbEntity
  8
View011
100
AcDbLine
 10
175.99
 20
141.067
 30
0
 11
175.823
 21
144.842
 31
0
  0
LINE
  5
C8F
330
A02
100
AcDbEntity
  8
View011
100
AcDbLine
 10
170.445
 20
138.5
 30
0
 11
170.278
 21
142.275
 31
0
  0
LINE
  5
C90
330
A02
100
AcDbEntity
  8
View011
100
AcDbLine
 10
172.564
 20
138.595
 30
0
 11
172.397
 21
142.37
 31
0
  0
LINE
  5
C91
330
A02
100
AcDbEntity
  8
View011
100
AcDbLine
 10
165.399
 20
158.07
 30
0
 11
161.762
 21
160.224
 31
0
  0
LINE
  5
C92
330
A02
100
AcDbEntity
  8
View011
100
AcDbLine
 10
170.539
 20
161.777
 30
0
 11
165.399
 21
158.07
 31
0
  0
LINE
  5
C93
330
A02
100
AcDbEntity
  8
View011
100
AcDbLine
 10
157.804
 20
160.093
 30
0
 11
154.894
 21
161.816
 31
0
  0
LINE
  5
C94
330
A02
100
AcDbEntity
  8
View011
100
AcDbLine
 10
160.545
 20
162.07
 30
0
 11
157.804
 21
160.093
 31
0
  0
LINE
  5
C95
330
A02
100
AcDbEntity
  8
View011
100
AcDbLine
 10
165.362
 20
158.91
 30
0
 11
162.451
 21
160.633
 31
0
  0
LINE
  5
C96
330
A02
100
AcDbEntity
  8
View011
100
AcDbLine
 10
169.816
 20
162.123
 30
0
 11
165.362
 21
158.91
 31
0
  0
LINE
  5
C97
330
A02
100
AcDbEntity
  8
View011
100
AcDbLine
 10
166.906
 20
163.846
 30
0
 11
169.816
 21
162.123
 31
0
  0
LINE
  5
C98
330
A02
100
AcDbEntity
  8
View011
100
AcDbLine
 10
162.451
 20
160.633
 30
0
 11
166.906
 21
163.846
 31
0
  0
LINE
  5
C99
330
A02
100
AcDbEntity
  8
View011
100
AcDbLine
 10
157.766
 20
160.933
 30
0
 11
155.583
 21
162.225
 31
0
  0
LINE
  5
C9A
330
A02
100
AcDbEntity
  8
View011
100
AcDbLine
 10
159.822
 20
162.416
 30
0
 11
157.766
 21
160.933
 31
0
  0
LINE
  5
C9B
330
A02
100
AcDbEntity
  8
View011
100
AcDbLine
 10
157.639
 20
163.708
 30
0
 11
159.822
 21
162.416
 31
0
  0
LINE
  5
C9C
330
A02
100
AcDbEntity
  8
View011
100
AcDbLine
 10
155.583
 20
162.225
 30
0
 11
157.639
 21
163.708
 31
0
  0
LINE
  5
C9D
330
A02
100
AcDbEntity
  8
View011
100
AcDbLine
 10
134.388
 20
156.073
 30
0
 11
134.287
 21
158.338
 31
0
  0
LINE
  5
C9E
330
A02
100
AcDbEntity
  8
View011
100
AcDbLine
 10
172.947
 20
133.237
 30
0
 11
172.847
 21
135.502
 31
0
  0
LINE
  5
C9F
330
A02
100
AcDbEntity
  8
View011
100
AcDbLine
 10
196.961
 20
149.905
 30
0
 11
196.894
 21
151.415
 31
0
  0
LINE
  5
CA0
330
A02
100
AcDbEntity
  8
View011
100
AcDbLine
 10
175.033
 20
134.087
 30
0
 11
174.966
 21
135.597
 31
0
  0
LINE
  5
CA1
330
A02
100
AcDbEntity
  8
View011
100
AcDbLine
 10
187.439
 20
158.313
 30
0
 11
187.469
 21
157.643
 31
0
  0
LINE
  5
CA2
330
A02
100
AcDbEntity
  8
View011
100
AcDbLine
 10
166.34
 20
170.808
 30
0
 11
166.37
 21
170.138
 31
0
  0
LINE
  5
CA3
330
A02
100
AcDbEntity
  8
View011
100
AcDbLine
 10
170.65
 20
146.203
 30
0
 11
170.68
 21
145.533
 31
0
  0
LINE
  5
CA4
330
A02
100
AcDbEntity
  8
View011
100
AcDbLine
 10
149.552
 20
158.698
 30
0
 11
149.581
 21
158.028
 31
0
  0
DIMENSION
  5
CA5
330
A02
100
AcDbEntity
  8
Dimension052
100
AcDbDimension
  2
*Dimension052
 10
229.192
 20
144.986
 30
0
 11
213.586
 21
53.5742
 31
0
 70
3
  1
⌀3
  3
STANDARD
100
AcDbDiametricDimension
 15
227.261
 25
145.812
 35
0
 40
0
  0
DIMENSION
  5
CAD
330
A02
100
AcDbEntity
  8
Dimension056
100
AcDbDimension
  2
*Dimension056
 10
103.843
 20
98.724
 30
0
 11
100.795
 21
94.7609
 31
0
 70
32
  1
6.5
  3
STANDARD
100
AcDbAlignedDimension
 13
88.0769
 23
97.3113
 33
0
 14
83.5269
 24
93.8113
 34
0
100
AcDbRotatedDimension
  0
DIMENSION
  5
CB7
330
A02
100
AcDbEntity
  8
Dimension058
100
AcDbDimension
  2
*Dimension058
 10
199.602
 20
94.7547
 30
0
 11
203.137
 21
91.2192
 31
0
 70
32
  1
2
  3
STANDARD
100
AcDbAlignedDimension
 13
193.462
 23
74.9277
 33
0
 14
191.462
 24
76.9277
 34
0
 50
90
100
AcDbRotatedDimension
  0
DIMENSION
  5
CC1
330
A02
100
AcDbEntity
  8
Dimension059
100
AcDbDimension
  2
*Dimension059
 10
193.187
 20
96.2614
 30
0
 11
198.187
 21
96.2614
 31
0
 70
32
  1
6
  3
STANDARD
100
AcDbAlignedDimension
 13
193.462
 23
74.9277
 33
0
 14
193.462
 24
80.9277
 34
0
 50
90
100
AcDbRotatedDimension
  0
DIMENSION
  5
CCB
330
A02
100
AcDbEntity
  8
Dimension060
100
AcDbDimension
  2
*Dimension060
 10
184.812
 20
68.0456
 30
0
 11
184.812
 21
73.0456
 31
0
 70
32
  1
2
  3
STANDARD
100
AcDbAlignedDimension
 13
171.462
 23
74.9277
 33
0
 14
173.462
 24
74.9277
 34
0
100
AcDbRotatedDimension
  0
DIMENSION
  5
CD5
330
A02
100
AcDbEntity
  8
Dimension061
100
AcDbDimension
  2
*Dimension061
 10
109.604
 20
104.703
 30
0
 11
114.324
 21
106.355
 31
0
 70
32
  1
10
  3
STANDARD
100
AcDbAlignedDimension
 13
123.462
 23
80.9277
 33
0
 14
126.962
 24
90.9277
 34
0
 50
90
100
AcDbRotatedDimension
  0
DIMENSION
  5
CDF
330
A02
100
AcDbEntity
  8
Dimension062
100
AcDbDimension
  2
*Dimension062
 10
114.354
 20
112.693
 30
0
 11
119.221
 21
113.838
 31
0
 70
32
  1
17
  3
STANDARD
100
AcDbAlignedDimension
 13
123.462
 23
80.9277
 33
0
 14
127.462
 24
97.9277
 34
0
 50
90
100
AcDbRotatedDimension
  0
DIMENSION
  5
CE9
330
A02
100
AcDbEntity
  8
Dimension
100
AcDbDimension
  2
*Dimension
 10
101.255
 20
102.401
 30
0
 11
101.255
 21
107.401
 31
0
 70
32
  1
7.14
  3
STANDARD
100
AcDbAlignedDimension
 13
83.0789
 23
101.511
 33
0
 14
88.0769
 24
101.511
 34
0
100
AcDbRotatedDimension
  0
DIMENSION
  5
CF3
330
A02
100
AcDbEntity
  8
Dimension063
100
AcDbDimension
  2
*Dimension063
 10
52.4393
 20
137.67
 30
0
 11
52.0891
 21
73.7582
 31
0
 70
3
  1
⌀6
  3
STANDARD
100
AcDbDiametricDimension
 15
50.2144
 25
141.232
 35
0
 40
0
  0
DIMENSION
  5
CFB
330
A02
100
AcDbEntity
  8
Dimension064
100
AcDbDimension
  2
*Dimension064
 10
70.9269
 20
124.331
 30
0
 11
80.7684
 21
135.933
 31
0
 70
4
  1
R35
  3
STANDARD
100
AcDbRadialDimension
 15
70.9269
 25
148.831
 35
0
 40
0
  0
DIMENSION
  5
D02
330
A02
100
AcDbEntity
  8
Dimension065
100
AcDbDimension
  2
*Dimension065
 10
93.3269
 20
50.1313
 30
0
 11
108.263
 21
44.7537
 31
0
 70
4
  1
R3
  3
STANDARD
100
AcDbRadialDimension
 15
94.8118
 25
48.6463
 35
0
 40
0
  0
DIMENSION
  5
D09
330
A02
100
AcDbEntity
  8
Dimension066
100
AcDbDimension
  2
*Dimension066
 10
61.4769
 20
57.7613
 30
0
 11
78.1861
 21
53.6061
 31
0
 70
4
  1
R2.5
  3
STANDARD
100
AcDbRadialDimension
 15
60.2394
 25
58.9987
 35
0
 40
0
  0
DIMENSION
  5
D10
330
A02
100
AcDbEntity
  8
Dimension067
100
AcDbDimension
  2
*Dimension067
 10
147.462
 20
95.4277
 30
0
 11
134.967
 21
106.815
 31
0
 70
4
  1
R1
  3
STANDARD
100
AcDbRadialDimension
 15
146.755
 25
96.1348
 35
0
 40
0
  0
TEXT
  5
D17
330
A02
100
AcDbEntity
  8
Annotation
100
AcDbText
 10
205.802
 20
167.513
 30
0
 40
3
  1
wärmeleitfolie 1.5mm
  7
STANDARD
 72
1
 11
205.802
 21
167.513
 31
0
100
AcDbText
  0
ENDSEC
  0
SECTION
  2
OBJECTS
  0
DICTIONARY
  5
F000
330
0
100
AcDbDictionary
  3
ACAD_GROUP
350
F001
  0
DICTIONARY
  5
F001
330
F000
100
AcDbDictionary
  0
ENDSEC
  0
EOF